<svg width="232" height="232" viewBox="0 0 232 232" fill="none" xmlns="http://www.w3.org/2000/svg">
<ellipse rx="27.0667" ry="27.0667" transform="matrix(-1 0 0 1 204.933 27.0667)" fill="#F3ECAA"/>
<circle cx="116" cy="116" r="116" fill="#F2FCF5"/>
<path d="M0.749966 204.933C0.749966 219.468 12.5323 231.25 27.0666 231.25C41.6009 231.25 53.3833 219.468 53.3833 204.933C53.3833 190.399 41.6009 178.617 27.0666 178.617C12.5323 178.617 0.749966 190.399 0.749966 204.933Z" stroke="#F3ECAA" stroke-width="1.5"/>
<g clip-path="url(#clip0)">
<path d="M51.5982 165.394C53.5679 169.062 57.7483 170.636 57.7483 170.636C57.7483 170.636 58.7351 166.264 56.7655 162.597C54.7958 158.93 50.6154 157.356 50.6154 157.356C50.6154 157.356 49.6285 161.727 51.5982 165.394Z" fill="#2F2E41"/>
<path d="M52.9521 164.188C56.5082 166.336 57.8777 170.602 57.8777 170.602C57.8777 170.602 53.4817 171.386 49.9256 169.238C46.3696 167.09 45 162.824 45 162.824C45 162.824 49.396 162.04 52.9521 164.188Z" fill="#2CB674"/>
<path d="M132.68 57.7129H110.492V58.0311H132.68V57.7129Z" fill="#F2F2F2"/>
<path d="M126.658 57.9515H126.341V60.8948H126.658V57.9515Z" fill="#F2F2F2"/>
<path d="M116.99 57.9515H116.673V60.8948H116.99V57.9515Z" fill="#F2F2F2"/>
<path d="M143.932 72.9862H121.745V73.3044H143.932V72.9862Z" fill="#F2F2F2"/>
<path d="M128.084 70.1224H127.767V73.0657H128.084V70.1224Z" fill="#F2F2F2"/>
<path d="M137.751 70.1224H137.434V73.0657H137.751V70.1224Z" fill="#F2F2F2"/>
<path d="M173.41 80.1455H151.222V80.4637H173.41V80.1455Z" fill="#F2F2F2"/>
<path d="M157.562 77.2817H157.245V80.225H157.562V77.2817Z" fill="#F2F2F2"/>
<path d="M167.229 77.2817H166.912V80.225H167.229V77.2817Z" fill="#F2F2F2"/>
<path d="M171.191 153.967H149.004V154.285H171.191V153.967Z" fill="#F2F2F2"/>
<path d="M155.343 151.103H155.026V154.046H155.343V151.103Z" fill="#F2F2F2"/>
<path d="M165.01 151.103H164.693V154.046H165.01V151.103Z" fill="#F2F2F2"/>
<path d="M133.314 102.896H111.126V103.215H133.314V102.896Z" fill="#F2F2F2"/>
<path d="M117.466 100.033H117.149V102.976H117.466V100.033Z" fill="#F2F2F2"/>
<path d="M127.133 100.033H126.816V102.976H127.133V100.033Z" fill="#F2F2F2"/>
<path d="M140.287 141.239H118.1V141.557H140.287V141.239Z" fill="#F2F2F2"/>
<path d="M124.439 138.375H124.122V141.318H124.439V138.375Z" fill="#F2F2F2"/>
<path d="M134.106 138.375H133.789V141.318H134.106V138.375Z" fill="#F2F2F2"/>
<path d="M175.787 129.625H153.6V129.943H175.787V129.625Z" fill="#F2F2F2"/>
<path d="M159.939 126.761H159.622V129.704H159.939V126.761Z" fill="#F2F2F2"/>
<path d="M169.606 126.761H169.289V129.704H169.606V126.761Z" fill="#F2F2F2"/>
<path d="M102.38 163.715H64.8538V163.444H102.11V150.3H68.0085L66.3519 146.835L66.5953 146.718L68.1784 150.029H102.38V163.715Z" fill="#2F2E41"/>
<path d="M69.8482 170.355C71.4137 170.355 72.6829 169.081 72.6829 167.51C72.6829 165.938 71.4137 164.664 69.8482 164.664C68.2826 164.664 67.0134 165.938 67.0134 167.51C67.0134 169.081 68.2826 170.355 69.8482 170.355Z" fill="#3F3D56"/>
<path d="M97.7905 170.355C99.3561 170.355 100.625 169.081 100.625 167.51C100.625 165.938 99.3561 164.664 97.7905 164.664C96.225 164.664 94.9558 165.938 94.9558 167.51C94.9558 169.081 96.225 170.355 97.7905 170.355Z" fill="#3F3D56"/>
<path d="M130.727 108.834C131.696 108.834 132.482 108.045 132.482 107.072C132.482 106.099 131.696 105.31 130.727 105.31C129.758 105.31 128.972 106.099 128.972 107.072C128.972 108.045 129.758 108.834 130.727 108.834Z" fill="#3F3D56"/>
<path d="M106.394 145.828H64.2139L55.0872 115.88H115.793L115.738 116.056L106.394 145.828ZM64.4136 145.557H106.196L115.425 116.151H55.452L64.4136 145.557Z" fill="#2F2E41"/>
<path d="M103.101 144.27H66.053L58.0366 117.709H111.357L111.308 117.866L103.101 144.27Z" fill="#F2F2F2"/>
<path d="M116.549 113.205L116.288 113.135L118.07 106.394H128.433V106.665H118.277L116.549 113.205Z" fill="#2F2E41"/>
<path d="M112.759 124.959H58.0366V125.23H112.759V124.959Z" fill="#2F2E41"/>
<path d="M109.625 134.944H61.0793V135.215H109.625V134.944Z" fill="#2F2E41"/>
<path d="M85.5742 116.016H85.3042V145.692H85.5742V116.016Z" fill="#2F2E41"/>
<path d="M97.6614 116.007L95.7234 145.683L95.9928 145.701L97.9308 116.025L97.6614 116.007Z" fill="#2F2E41"/>
<path d="M73.2226 116.007L72.9531 116.024L74.8799 145.701L75.1493 145.684L73.2226 116.007Z" fill="#2F2E41"/>
<path d="M139.362 61.8443C139.362 61.8443 141.679 68.4638 140.253 69.4821C138.827 70.5005 145.065 78.8172 145.065 78.8172L152.55 76.7805L148.451 69.8216C148.451 69.8216 147.916 62.8627 147.916 61.8443C147.916 60.826 139.362 61.8443 139.362 61.8443Z" fill="#D7A5A7"/>
<path d="M135.473 109.029C135.473 109.029 134.797 117.515 135.473 121.928C136.149 126.341 137.164 138.562 137.164 138.562C137.164 138.562 137.164 161.645 140.884 161.984C144.603 162.324 147.308 162.663 147.646 161.306C147.985 159.948 145.956 159.269 146.97 158.59C147.985 157.911 148.323 155.535 146.97 152.819C145.618 150.103 146.97 122.607 146.97 122.607L153.395 139.92C153.395 139.92 154.071 154.177 154.747 156.214C155.424 158.25 154.071 161.984 156.438 162.324C158.805 162.663 161.51 160.627 162.863 159.948C164.216 159.269 160.834 159.269 161.51 158.929C162.187 158.59 164.216 157.571 163.539 157.232C162.863 156.893 162.187 140.599 162.187 140.599C162.187 140.599 160.327 105.804 157.96 104.446C155.593 103.088 154.071 105.427 154.071 105.427L135.473 109.029Z" fill="#2F2E41"/>
<path d="M141.56 160.627V163.342C141.56 163.342 138.517 170.724 141.56 170.724C144.603 170.724 146.97 171.489 146.97 170.471V161.306L141.56 160.627Z" fill="#2F2E41"/>
<path d="M161.51 160.622V163.337C161.51 163.337 164.554 170.72 161.51 170.72C158.467 170.72 156.1 171.485 156.1 170.466V161.301L161.51 160.622Z" fill="#2F2E41"/>
<path d="M144.096 66.7664C147.458 66.7664 150.183 64.0307 150.183 60.6561C150.183 57.2815 147.458 54.5459 144.096 54.5459C140.735 54.5459 138.01 57.2815 138.01 60.6561C138.01 64.0307 140.735 66.7664 144.096 66.7664Z" fill="#EFB7B9"/>
<path d="M142.236 72.0281C142.236 72.0281 143.927 77.1199 146.632 76.1016L149.337 75.0832L154.071 107.671C154.071 107.671 150.352 113.103 144.942 109.708C139.531 106.313 142.236 72.0281 142.236 72.0281Z" fill="#2CB674"/>
<path d="M146.97 71.0096L148.492 67.7848C148.492 67.7848 157.453 72.028 158.805 73.3858C160.158 74.7437 160.158 76.7804 160.158 76.7804L157.791 85.2669C157.791 85.2669 158.467 103.937 158.467 104.616C158.467 105.295 160.834 109.029 159.143 107.671C157.453 106.313 157.115 104.955 155.762 106.992C154.409 109.029 151.366 111.405 151.366 111.405L146.97 71.0096Z" fill="#2CB674"/>
<path d="M158.805 95.4507L157.791 104.956C157.791 104.956 151.704 110.387 153.057 110.726C154.409 111.066 155.086 109.708 155.086 109.708C155.086 109.708 157.453 112.084 158.805 110.726C160.158 109.368 163.539 96.4691 163.539 96.4691L158.805 95.4507Z" fill="#EFB7B9"/>
<path d="M144.226 52.0207C142.876 51.9722 141.432 51.9483 140.295 52.6782C139.771 53.0446 139.312 53.4958 138.936 54.0133C137.828 55.4195 136.871 57.1888 137.282 58.9334L137.76 58.7463C137.76 59.212 137.657 59.6719 137.458 60.0927C137.526 59.8962 137.751 60.2138 137.691 60.4126L137.164 62.1468C138.03 61.8283 139.107 62.4733 139.239 63.3893C139.299 61.375 139.507 59.0651 141.135 57.8856C141.955 57.2908 142.994 57.1093 143.994 56.948C144.916 56.7993 145.883 56.6574 146.766 56.9621C147.649 57.2669 148.401 58.1737 148.201 59.0894C148.608 58.9486 149.064 59.2335 149.265 59.6158C149.466 59.9981 149.477 60.4491 149.483 60.8814C149.917 61.1894 150.411 60.5778 150.588 60.0746C151.003 58.8934 151.372 57.6361 151.149 56.4038C150.925 55.1715 149.925 53.9938 148.677 53.9896C148.828 53.8226 148.909 53.6031 148.902 53.3773L147.874 53.2901C148.135 53.253 148.375 53.1259 148.553 52.9306C148.14 53.3867 144.894 52.0446 144.226 52.0207Z" fill="#2F2E41"/>
<path d="M143.927 69.9913C143.927 69.9913 141.174 67.2833 140.183 67.4492C139.193 67.6151 137.84 69.9913 137.84 69.9913C137.84 69.9913 129.725 72.707 130.063 75.4226C130.401 78.1383 134.121 91.3771 134.121 91.3771C134.121 91.3771 137.164 107.332 134.459 109.029C131.753 110.726 147.308 115.139 147.646 113.102C147.984 111.066 148.661 90.6982 147.646 87.6431C146.632 84.588 143.927 69.9913 143.927 69.9913Z" fill="#2CB674"/>
<path d="M155.762 75.4226H159.943C159.943 75.4226 162.863 88.322 163.201 89.6798C163.539 91.0377 164.216 97.4874 163.878 97.4874C163.539 97.4874 156.776 96.1296 156.776 97.1479L155.762 75.4226Z" fill="#2CB674"/>
<path d="M155.621 107.366H139.614C138.052 100.152 137.921 93.1828 139.614 86.524H155.621C153.038 93.063 152.876 99.9848 155.621 107.366Z" fill="#F2F2F2"/>
<path d="M133.106 98.5058L137.84 100.543C137.84 100.543 146.97 101.9 146.97 98.1664C146.97 94.4323 137.84 96.4691 137.84 96.4691L134.797 95.4922L133.106 98.5058Z" fill="#EFB7B9"/>
<path d="M134.121 73.3859L130.063 74.4042L127.02 92.3955C127.02 92.3955 126.005 97.1479 127.696 97.4874C129.387 97.8268 134.121 100.543 134.121 100.543C134.121 100.543 134.797 95.4506 136.15 95.4506L132.768 92.735L134.797 80.8539L134.121 73.3859Z" fill="#2CB674"/>
<path d="M76.7358 108.147H54.5483V108.465H76.7358V108.147Z" fill="#F2F2F2"/>
<path d="M60.8875 105.283H60.5706V108.226H60.8875V105.283Z" fill="#F2F2F2"/>
<path d="M70.555 105.283H70.238V108.226H70.555V105.283Z" fill="#F2F2F2"/>
<path d="M84.5015 61.0538H62.314V61.372H84.5015V61.0538Z" fill="#F2F2F2"/>
<path d="M78.4791 61.2925H78.1621V64.2358H78.4791V61.2925Z" fill="#F2F2F2"/>
<path d="M68.8116 61.2925H68.4946V64.2358H68.8116V61.2925Z" fill="#F2F2F2"/>
<path d="M106.847 92.396H84.6599V92.7142H106.847V92.396Z" fill="#F2F2F2"/>
<path d="M100.825 92.6346H100.508V95.5779H100.825V92.6346Z" fill="#F2F2F2"/>
<path d="M91.1578 92.6346H90.8408V95.5779H91.1578V92.6346Z" fill="#F2F2F2"/>
<path d="M69.1287 92.2369H46.9412V92.5551H69.1287V92.2369Z" fill="#F2F2F2"/>
<path d="M63.1063 92.4756H62.7893V95.4189H63.1063V92.4756Z" fill="#F2F2F2"/>
<path d="M53.439 92.4756H53.1221V95.4189H53.439V92.4756Z" fill="#F2F2F2"/>
<path d="M95.7537 76.3271H73.5662V76.6453H95.7537V76.3271Z" fill="#F2F2F2"/>
<path d="M79.9053 73.4634H79.5884V76.4067H79.9053V73.4634Z" fill="#F2F2F2"/>
<path d="M89.5728 73.4634H89.2559V76.4067H89.5728V73.4634Z" fill="#F2F2F2"/>
</g>
<defs>
<clipPath id="clip0">
<rect width="142" height="119" fill="white" transform="translate(45 52)"/>
</clipPath>
</defs>
</svg>
