<svg width="196" height="196" viewBox="0 0 196 196" fill="none" xmlns="http://www.w3.org/2000/svg">
<ellipse rx="22.8667" ry="22.8667" transform="matrix(-1 0 0 1 173.133 22.8667)" fill="#F3ECAA"/>
<circle cx="98" cy="98" r="98" fill="#F2FCF5"/>
<path d="M0.750065 173.133C0.750065 185.348 10.652 195.25 22.8667 195.25C35.0814 195.25 44.9834 185.348 44.9834 173.133C44.9834 160.919 35.0814 151.017 22.8667 151.017C10.652 151.017 0.750065 160.919 0.750065 173.133Z" stroke="#F3ECAA" stroke-width="1.5"/>
<g clip-path="url(#clip0)">
<path d="M142.625 141.858C140.474 140.03 139.167 137.143 139.51 134.333C139.853 131.522 141.975 128.938 144.727 128.342C147.48 127.745 150.618 129.397 151.454 132.101C151.914 126.888 152.444 121.456 155.2 117.017C157.696 112.997 162.019 110.121 166.703 109.606C171.388 109.092 176.32 111.035 179.242 114.753C182.164 118.472 182.879 123.877 180.833 128.146C179.325 131.29 176.548 133.631 173.638 135.535C164.236 141.635 152.959 144.116 141.882 142.521L142.625 141.858Z" fill="#2CB674"/>
<path d="M174.609 111.143C170.744 114.309 167.198 117.85 164.022 121.715C159.053 127.742 155.031 134.5 152.098 141.753C151.883 142.282 152.738 142.512 152.95 141.989C157.749 130.202 165.411 119.812 175.234 111.771C175.675 111.41 175.047 110.785 174.609 111.143Z" fill="white"/>
<path d="M68.0819 141.361C71.0361 138.851 72.8305 134.886 72.3599 131.026C71.8894 127.165 68.9747 123.616 65.1939 122.797C61.4132 121.977 57.1034 124.246 55.9551 127.96C55.3231 120.8 54.5948 113.34 50.8092 107.242C47.3813 101.721 41.4443 97.7707 35.0099 97.064C28.5755 96.3572 21.8008 99.0265 17.7879 104.133C13.775 109.24 12.7925 116.665 15.603 122.528C17.6734 126.847 21.4879 130.061 25.4845 132.676C38.235 141.019 54.052 144.499 69.1022 142.272" fill="#2CB674"/>
<path d="M24.1509 99.1745C29.4601 103.523 34.3307 108.386 38.6923 113.694C43.0546 118.997 46.8952 124.713 50.16 130.761C51.9849 134.154 53.6242 137.644 55.0707 141.217C55.3656 141.944 54.1921 142.26 53.9004 141.541C51.3384 135.243 48.1686 129.212 44.4366 123.536C40.7227 117.88 36.472 112.599 31.7442 107.769C29.0701 105.038 26.2487 102.457 23.2927 100.037C22.6869 99.5413 23.55 98.6824 24.1509 99.1745L24.1509 99.1745Z" fill="white"/>
<path d="M134.593 142.779H64.1104V70.0589C64.1104 54.5871 76.6278 42 92.0137 42H106.69C122.076 42 134.593 54.5871 134.593 70.0589V142.779Z" fill="#2CB674" fill-opacity="0.1"/>
<path d="M119.917 142.779H64.1104V70.0588C64.095 64.1304 65.9619 58.3518 69.4393 53.5644C69.5675 53.3887 69.6953 53.2153 69.8272 53.0438C71.5091 50.8255 73.5107 48.8719 75.7659 47.2475C75.8933 47.1543 76.0212 47.0627 76.151 46.9711C78.038 45.6579 80.0793 44.5844 82.2284 43.7751C82.356 43.7264 82.4859 43.6777 82.6159 43.631C84.5595 42.9335 86.5743 42.4557 88.623 42.2065C88.75 42.189 88.8804 42.1754 89.0108 42.1617C91.0073 41.9471 93.0209 41.9471 95.0174 42.1617C95.1474 42.1754 95.2778 42.189 95.4063 42.2067C97.4545 42.4559 99.4688 42.9336 101.412 43.631C101.542 43.6777 101.672 43.7264 101.8 43.7752C103.922 44.5743 105.94 45.6318 107.807 46.924C107.936 47.0136 108.066 47.1051 108.194 47.1967C109.458 48.1041 110.645 49.1149 111.744 50.2189C112.625 51.1045 113.446 52.0484 114.201 53.0444C114.332 53.2153 114.46 53.3888 114.588 53.5642C118.066 58.3516 119.933 64.1303 119.917 70.0588V142.779Z" fill="#CCCCCC"/>
<path d="M115.379 110.254C117.086 110.254 118.469 108.863 118.469 107.147C118.469 105.431 117.086 104.04 115.379 104.04C113.673 104.04 112.29 105.431 112.29 107.147C112.29 108.863 113.673 110.254 115.379 110.254Z" fill="#2CB674"/>
<path d="M128.819 140.601H126.452L125.325 131.418L128.819 131.419L128.819 140.601Z" fill="#FFB8B8"/>
<path d="M124.76 139.921H129.326V142.811H121.886C121.886 142.432 121.96 142.056 122.105 141.705C122.249 141.354 122.461 141.036 122.728 140.767C122.995 140.499 123.312 140.286 123.66 140.141C124.009 139.995 124.383 139.921 124.76 139.921Z" fill="#2F2E41"/>
<path d="M140.598 140.601H138.231L137.104 131.418L140.599 131.419L140.598 140.601Z" fill="#FFB8B8"/>
<path d="M136.54 139.921H141.105V142.811H133.665C133.665 142.432 133.739 142.056 133.884 141.705C134.028 141.354 134.24 141.036 134.507 140.767C134.774 140.499 135.091 140.286 135.44 140.141C135.788 139.995 136.162 139.921 136.54 139.921Z" fill="#2F2E41"/>
<path d="M116.943 107.763C116.773 107.51 116.659 107.223 116.611 106.922C116.563 106.621 116.581 106.313 116.664 106.02C116.747 105.727 116.893 105.455 117.092 105.225C117.291 104.994 117.537 104.81 117.814 104.686L125.862 82.3815L129.822 84.5546L120.633 105.87C120.81 106.351 120.805 106.882 120.619 107.36C120.433 107.838 120.079 108.231 119.624 108.464C119.169 108.698 118.645 108.755 118.151 108.626C117.657 108.496 117.227 108.189 116.943 107.763Z" fill="#FFB8B8"/>
<path d="M139.389 111.954C139.126 111.802 138.899 111.594 138.725 111.345C138.55 111.095 138.432 110.811 138.379 110.51C138.326 110.21 138.338 109.902 138.416 109.607C138.494 109.312 138.636 109.039 138.831 108.805L136.337 85.2102L140.844 85.4172L141.88 108.626C142.249 108.981 142.476 109.459 142.517 109.971C142.558 110.483 142.412 110.992 142.105 111.402C141.798 111.812 141.352 112.095 140.851 112.197C140.351 112.298 139.83 112.212 139.389 111.954Z" fill="#FFB8B8"/>
<path d="M132.2 78.25C134.819 78.25 136.943 76.1148 136.943 73.4808C136.943 70.8468 134.819 68.7115 132.2 68.7115C129.58 68.7115 127.457 70.8468 127.457 73.4808C127.457 76.1148 129.58 78.25 132.2 78.25Z" fill="#FFB8B8"/>
<path d="M139.359 106.588H125.06L125.077 106.476C125.103 106.308 127.626 89.691 125.765 84.2546C125.578 83.7203 125.595 83.1355 125.811 82.6127C126.028 82.0899 126.429 81.6661 126.937 81.4228H126.937C129.596 80.1634 134.701 78.6128 139.01 82.376C139.644 82.9389 140.139 83.6424 140.456 84.4309C140.773 85.2194 140.903 86.0712 140.837 86.919L139.359 106.588Z" fill="#2CB674"/>
<path d="M127.807 92.1469L121.369 90.8336L124.387 83.6432C124.567 82.9468 125.015 82.3508 125.632 81.986C126.249 81.6212 126.985 81.5173 127.678 81.6972C128.371 81.8772 128.964 82.3261 129.329 82.9456C129.693 83.5652 129.798 84.3047 129.621 85.002L127.807 92.1469Z" fill="#2CB674"/>
<path d="M136.051 94.5853L135.664 85.6644C135.37 83.9875 136.325 82.4022 137.793 82.1431C139.262 81.8849 140.696 83.048 140.991 84.7373L142.445 93.0729L136.051 94.5853Z" fill="#2CB674"/>
<path d="M138.883 105.52C141.184 114.331 141.435 125.533 140.814 137.753L137.725 137.365L132.125 114.063L129.035 137.753L125.559 137.559C124.521 124.737 123.51 113.73 125.173 106.49L138.883 105.52Z" fill="#2F2E41"/>
<path d="M135.325 77.1666C134.44 78.1143 132.797 77.6055 132.681 76.3108C132.672 76.2103 132.673 76.1091 132.683 76.0087C132.743 75.4352 133.072 74.9145 132.993 74.3089C132.976 74.1582 132.92 74.0146 132.831 73.8917C132.126 72.9423 130.471 74.3163 129.806 73.4568C129.398 72.9298 129.877 72.1001 129.564 71.5111C129.151 70.7336 127.927 71.1171 127.159 70.6914C126.305 70.2177 126.356 68.9001 126.918 68.0986C127.604 67.1212 128.806 66.5996 129.993 66.5245C131.18 66.4493 132.359 66.772 133.468 67.2063C134.727 67.6998 135.976 68.3818 136.751 69.4952C137.693 70.8492 137.784 72.6696 137.312 74.2529C137.026 75.2161 136.047 76.3926 135.325 77.1666Z" fill="#2F2E41"/>
<path d="M104.566 121.711H79.4622C79.1316 121.712 78.8138 121.582 78.5785 121.349C78.3432 121.115 78.2096 120.797 78.207 120.465V64.12C78.2096 63.7876 78.3432 63.4697 78.5785 63.2362C78.8138 63.0026 79.1316 62.8725 79.4622 62.8743H104.566C104.896 62.8725 105.214 63.0026 105.449 63.2362C105.685 63.4697 105.818 63.7876 105.821 64.12V120.465C105.818 120.797 105.685 121.115 105.449 121.349C105.214 121.582 104.896 121.712 104.566 121.711Z" fill="white"/>
<path d="M105.821 81.1056H78.207V81.4939H105.821V81.1056Z" fill="#CCCCCC"/>
<path d="M105.917 103.263H78.3032V103.652H105.917V103.263Z" fill="#CCCCCC"/>
<path d="M87.2827 62.8743H86.8965V121.905H87.2827V62.8743Z" fill="#CCCCCC"/>
<path d="M96.938 62.8743H96.5518V121.905H96.938V62.8743Z" fill="#CCCCCC"/>
</g>
<defs>
<clipPath id="clip0">
<rect width="168" height="101" fill="white" transform="translate(14 42)"/>
</clipPath>
</defs>
</svg>
