<svg width="232" height="232" viewBox="0 0 232 232" fill="none" xmlns="http://www.w3.org/2000/svg">
<ellipse rx="27.0667" ry="27.0667" transform="matrix(-1 0 0 1 204.933 27.0667)" fill="#F3ECAA"/>
<circle cx="116" cy="116" r="116" fill="#F2FCF5"/>
<path d="M0.749966 204.933C0.749966 219.468 12.5323 231.25 27.0666 231.25C41.6009 231.25 53.3833 219.468 53.3833 204.933C53.3833 190.399 41.6009 178.617 27.0666 178.617C12.5323 178.617 0.749966 190.399 0.749966 204.933Z" stroke="#F3ECAA" stroke-width="1.5"/>
<path opacity="0.1" d="M89.6856 174.385C106.352 174.385 119.863 171.833 119.863 168.684C119.863 165.535 106.352 162.983 89.6856 162.983C73.0191 162.983 59.5082 165.535 59.5082 168.684C59.5082 171.833 73.0191 174.385 89.6856 174.385Z" fill="#2CB674"/>
<path d="M120.701 103.822L115.452 100.293L118.1 96.362L104.236 95.2597L99.2547 99.1016L93.0187 95.6152L87.8178 96.239L87.7561 94.8718C87.6917 93.4465 87.5481 92.0258 87.3259 90.6163C87.3482 90.1891 87.3636 89.6986 87.3619 89.1654C87.3619 86.918 87.0569 83.9392 85.7168 81.9533L86.0253 79.1882L83.5233 76.2401C83.9251 75.4419 84.3833 74.6732 84.8943 73.9398C84.9799 73.8167 85.0656 73.6971 85.1582 73.5809C88.4055 73.3468 90.9674 70.6841 90.9674 67.4285C90.9674 67.2781 90.9674 67.1277 90.9503 66.979C90.9503 66.9192 90.9383 66.8576 90.9315 66.7978C91.2485 66.9687 91.5689 67.1396 91.8894 67.3105C91.9494 67.396 92.0179 67.4814 92.0933 67.5823L92.1087 67.6011L92.2047 67.719L92.2355 67.7549C92.2698 67.7959 92.3058 67.8352 92.3418 67.8762L92.3658 67.9036C92.4566 68.0044 92.5526 68.1069 92.6554 68.2078C92.6676 68.2177 92.6791 68.2286 92.6897 68.2402L92.8182 68.3599L92.8542 68.3923C92.9639 68.4898 93.0804 68.5837 93.1969 68.6726L93.2346 68.7L93.382 68.8008L93.43 68.8316C93.4865 68.8657 93.5448 68.9016 93.6013 68.9341L93.6219 68.9461C93.6887 68.9819 93.7573 69.0161 93.8258 69.0486L93.8601 69.0623C93.9184 69.0873 93.9755 69.1113 94.0315 69.134L94.0846 69.1528C94.1446 69.1734 94.2028 69.1922 94.2645 69.2092L94.3022 69.2195C94.3776 69.2383 94.453 69.2537 94.5301 69.2656H94.5387C94.6113 69.2774 94.6846 69.2848 94.758 69.2879H94.8077C94.8734 69.2913 94.9392 69.2913 95.0048 69.2879H95.0477C95.1299 69.2831 95.2117 69.2734 95.2927 69.2588C95.6761 69.2085 96.0443 69.0768 96.3723 68.8726C96.4558 68.8169 96.5299 68.7482 96.5917 68.6692C96.9344 68.2214 96.5574 67.7309 96.5574 67.7309C96.4237 67.4131 95.5566 67.1892 95.5566 67.1892C95.5566 67.1892 92.8148 66.0476 92.8148 65.1384C92.8148 64.2292 92.1293 59.5123 85.0536 58.4339C85.0536 58.4339 80.4508 58.1759 79.157 60.6334L79.1295 60.9205C78.7491 61.1581 78.4338 61.6349 78.0585 61.775C77.8964 61.8098 77.74 61.8673 77.5941 61.9459V61.9135C77.5508 61.9513 77.5153 61.9971 77.4896 62.0485C77.409 62.2084 77.3606 62.3826 77.3473 62.5612C77.3087 62.7793 77.2328 62.9891 77.1229 63.1816C77.0922 63.2362 77.0579 63.2888 77.02 63.3388L76.9909 63.3849C77.1899 63.4004 77.3896 63.3682 77.5735 63.2909C77.5446 63.5249 77.487 63.7545 77.4022 63.9745C77.5111 63.9781 77.6188 63.9503 77.7123 63.8945C77.8059 63.8388 77.8815 63.7574 77.93 63.6601V63.6464L77.9523 63.6156C77.9954 63.5365 78.0309 63.4536 78.0585 63.3678L78.0397 63.3883C78.0739 63.2773 78.1048 63.1645 78.1425 63.0551C78.1598 62.9935 78.1882 62.9356 78.2264 62.8842C78.2722 62.8382 78.3281 62.8036 78.3897 62.7831C78.4513 62.7626 78.5169 62.7568 78.5812 62.7663L78.5109 64.248H78.5418C78.5005 64.3558 78.45 64.4598 78.391 64.559C78.1476 64.9521 77.7055 65.2204 77.5427 65.6511C77.4725 65.8588 77.4457 66.0786 77.4639 66.2971C77.4639 66.4253 77.4793 66.5551 77.4896 66.6833V66.6731C77.5136 67.0149 77.5204 67.3396 77.3354 67.6147C77.2085 67.8027 77.0046 67.9446 76.9344 68.1582C76.9149 68.2177 76.9062 68.2802 76.9086 68.3428C76.9224 68.5301 76.9616 68.7146 77.0252 68.8914C77.0259 68.888 77.0259 68.8845 77.0252 68.8811C77.0679 69.0111 77.0779 69.1496 77.0543 69.2844C76.9772 69.6262 76.5608 69.9116 76.5813 70.2381C76.5802 70.281 76.5865 70.3238 76.6002 70.3645C76.6803 70.524 76.8191 70.6464 76.9875 70.7063C77.2517 70.8562 77.5551 70.9229 77.858 70.8977C77.9715 70.8773 78.0813 70.8398 78.1836 70.7867C78.0637 71.0618 77.9403 71.3335 77.8152 71.5916C77.7963 71.6326 77.7758 71.6736 77.7552 71.7147C77.7552 71.7147 76.6962 71.0088 76.0947 72.4478C75.9191 72.7469 75.7935 73.0724 75.7228 73.4117C75.6927 73.5474 75.6502 73.6801 75.596 73.8082C75.329 74.259 74.9293 74.617 74.4513 74.8336C73.2243 75.3942 68.2684 81.5586 68.181 83.1548C68.1381 83.7779 68.0325 84.3951 67.8657 84.9971C67.4756 86.4148 67.3753 87.8963 67.571 89.3534C67.6322 89.8243 67.7337 90.2891 67.8743 90.7428C68.4004 92.3373 68.7517 95.3127 68.7517 95.3127L69.3206 100.477C69.2995 101.19 69.3304 101.904 69.4131 102.612C68.8322 103.273 66.4999 106.03 67.391 106.78C68.0765 107.371 69.276 107.274 69.9495 107.153C69.3823 108.552 68.4895 110.986 68.3712 112.657C68.1999 115.13 68.6643 118.407 69.3994 119.664C70.1346 120.922 72.5851 124.149 72.5851 124.149C72.5851 124.149 72.4703 128.575 73.346 130.183C74.2216 131.792 74.5747 135.128 74.5747 135.128C74.5747 135.128 75.3921 137.944 74.9825 138.98C74.5729 140.015 75.7417 140.877 74.5147 141.565C73.2877 142.254 71.718 157.777 71.718 157.777C71.718 157.777 71.0857 167.951 71.718 168.469C71.7518 168.493 71.788 168.514 71.826 168.532V171.95C71.826 171.95 71.3873 172.668 73.1712 172.813C74.393 172.91 77.8563 173.131 79.911 173.259L81.5029 173.358C81.5029 173.358 85.273 174.107 86.9387 173.358C88.6043 172.61 91.5569 172.627 91.1182 170.649C91.0601 170.38 90.9822 170.116 90.8852 169.858C90.4037 168.631 89.5862 168.491 88.0799 168.149C87.9925 168.13 87.9086 168.113 87.8315 168.1C86.2446 167.824 85.7237 168.561 84.8343 167.602C84.0614 166.773 81.6006 165.845 80.7627 165.551C80.7832 165.49 80.8089 165.43 80.8295 165.367C80.5922 165.327 80.3715 165.219 80.1937 165.057L82.4643 165.201L83.8164 165.285C83.8164 165.285 87.0209 165.922 88.4432 165.285C89.8656 164.647 92.3675 164.664 91.9939 162.984C91.9447 162.756 91.8789 162.53 91.7969 162.311C91.3873 161.269 90.6916 161.154 89.4115 160.865C89.3378 160.85 89.2692 160.835 89.2007 160.823C87.852 160.588 87.4099 161.214 86.6542 160.4C86.0064 159.707 83.962 158.929 83.2269 158.664C83.2269 158.285 82.7128 157.745 82.3889 157.203C82.0085 156.571 82.7111 154.357 82.7111 154.357L83.1121 145.175C83.2648 145.107 83.4263 145.061 83.5919 145.038C83.5919 145.038 85.4049 143.312 84.9954 141.473C84.9119 140.917 84.8684 140.356 84.8651 139.793C85.4615 139.241 86.2823 138.426 86.5154 137.924C86.8958 137.105 86.5154 133.138 86.5154 133.138V117.971L89.5485 118.277L92.3007 118.559L93.1386 118.644L95.8908 118.921L102.216 119.558L107.915 118.482L110.381 118.017L115.452 117.06V104.687L120.701 103.822ZM78.9547 62.821L78.6017 62.7834C78.7183 62.7885 78.8416 62.8107 78.9547 62.821Z" fill="url(#paint0_linear)"/>
<path d="M108.399 111.856C106.685 114.301 100.524 113.006 100.524 113.006L95.75 108.551L95.1074 107.947L96.1853 105.664C96.1853 105.664 96.528 105.758 97.1158 105.926C100.202 106.819 109.845 109.8 108.399 111.856Z" fill="#EFB7B9"/>
<path opacity="0.1" d="M97.1124 105.926C96.9016 106.657 96.3241 107.752 95.75 108.551L95.1074 107.947L96.1853 105.664C96.1853 105.664 96.5315 105.758 97.1124 105.926Z" fill="black"/>
<path d="M80.7386 80.1776C80.7386 80.1776 76.3379 82.1242 76.5538 86.9043C76.7092 89.9839 77.0456 93.0517 77.5615 96.092C77.5615 96.092 76.6618 103.285 80.4078 105.139C84.1539 106.994 87.6206 108.518 87.6206 108.518C87.6206 108.518 93.4813 109.147 94.2096 109.407C94.9379 109.667 97.2136 105.695 96.7938 105.076C96.3739 104.458 90.9948 103.16 90.3093 102.128C89.6239 101.096 88.0387 100.458 88.0387 100.458C88.0387 100.458 86.4022 99.4707 86.2908 98.5786C86.1794 97.6865 86.6113 97.0217 86.7209 96.6303C86.8306 96.2389 87.1082 92.4603 87.1082 92.4603C87.1082 92.4603 88.9555 79.0104 80.7386 80.1776Z" fill="#DCE6F2"/>
<path opacity="0.1" d="M83.6433 95.8954C83.6433 95.8954 77.6061 96.9037 78.1905 99.0109C78.1905 99.0109 80.3822 96.7362 83.6433 95.8954Z" fill="black"/>
<path opacity="0.1" d="M83.6894 96.7482C83.6894 96.7482 80.3701 99.4501 81.0195 99.5885C81.669 99.727 83.6894 96.7482 83.6894 96.7482Z" fill="black"/>
<path opacity="0.1" d="M85.2848 97.6898C85.2848 97.6898 84.3954 99.5065 84.9421 99.3834C85.4887 99.2604 85.2848 97.6898 85.2848 97.6898Z" fill="black"/>
<path opacity="0.1" d="M97.3353 106.119L96.9686 106.014C97.0731 105.673 97.1022 105.396 97.0166 105.268C96.5967 104.649 91.221 103.354 90.5372 102.32C89.8535 101.286 88.2667 100.65 88.2667 100.65C88.2667 100.65 86.6301 99.6621 86.5187 98.77C86.4073 97.8779 86.8392 97.2131 86.9489 96.8217C87.0585 96.4304 87.3361 92.65 87.3361 92.65C87.3361 92.65 89.1783 79.2018 80.9614 80.3691C80.9614 80.3691 76.5607 82.3173 76.7749 87.0974C76.9303 90.1771 77.2674 93.2449 77.7843 96.2851C77.7843 96.2851 76.8846 103.478 80.6306 105.333C84.3767 107.187 87.8434 108.711 87.8434 108.711C87.8434 108.711 93.7024 109.339 94.4324 109.6C94.7083 109.699 95.2069 109.188 95.6953 108.486L95.9729 108.744L100.747 113.197C100.747 113.197 106.908 114.495 108.621 112.049C110.069 109.991 100.428 107.011 97.3353 106.119Z" fill="black"/>
<path d="M78.2057 62.2364C78.0379 62.2692 77.8773 62.3311 77.731 62.4193C77.5596 62.5612 77.5596 62.8038 77.5168 63.0158C77.4665 63.3105 77.3492 63.59 77.1741 63.8327C77.3691 63.8469 77.5647 63.8147 77.7447 63.7387C77.7154 63.9726 77.6578 64.2021 77.5734 64.4223C77.6801 64.425 77.7854 64.3969 77.8766 64.3414C77.9678 64.286 78.041 64.2054 78.0874 64.1095C78.1781 63.9169 78.2499 63.716 78.3017 63.5097C78.3178 63.4479 78.3457 63.3899 78.3839 63.3388C78.5416 63.1525 78.8346 63.2362 79.0779 63.2601C79.2805 63.2772 79.4838 63.2399 79.667 63.1521C79.8502 63.0644 80.0066 62.9294 80.1198 62.7611C80.3786 62.3697 80.394 61.3683 79.7771 61.2623C79.1328 61.1564 78.7318 62.0416 78.2057 62.2364Z" fill="#965D7B"/>
<g opacity="0.1">
<path opacity="0.1" d="M77.7141 62.6295C77.7295 62.5458 77.7398 62.4586 77.7587 62.3749C77.5959 62.5167 77.5873 62.7577 77.5445 62.9713C77.5229 63.0946 77.489 63.2154 77.4434 63.3319C77.5783 63.1174 77.6702 62.8789 77.7141 62.6295Z" fill="black"/>
<path opacity="0.1" d="M77.7689 64.0411C77.8542 63.8213 77.9118 63.5916 77.9403 63.3575C77.7687 63.4296 77.5829 63.4617 77.397 63.4515C77.3429 63.5717 77.2769 63.6862 77.2 63.7933C77.3943 63.8083 77.5894 63.7767 77.7689 63.7011C77.7404 63.9351 77.6829 64.1648 77.5975 64.3847C77.7043 64.3872 77.8095 64.359 77.9006 64.3036C77.9918 64.2481 78.065 64.1677 78.1116 64.0719C78.1543 63.9942 78.1888 63.9123 78.2144 63.8275C78.1642 63.8976 78.097 63.9539 78.0191 63.9912C77.9412 64.0286 77.8552 64.0457 77.7689 64.0411Z" fill="black"/>
<path opacity="0.1" d="M79.2735 62.879C79.0301 62.8551 78.7354 62.7714 78.5777 62.9576C78.5402 63.0092 78.5123 63.0671 78.4955 63.1285C78.48 63.173 78.4663 63.2191 78.4543 63.2653C78.6171 63.1371 78.881 63.2055 79.1021 63.2277C79.3046 63.2442 79.5078 63.2066 79.6909 63.1189C79.8739 63.0312 80.0303 62.8965 80.144 62.7286C80.1959 62.6457 80.2347 62.5551 80.2588 62.4603C80.1415 62.6052 79.9903 62.7191 79.8185 62.7921C79.6467 62.8651 79.4595 62.895 79.2735 62.879Z" fill="black"/>
</g>
<path d="M83.3637 76.3512L85.9771 79.4855L85.636 82.6489L82.4778 77.7184L83.3637 76.3512Z" fill="#DCE6F2"/>
<path opacity="0.1" d="M85.9753 79.4855L85.6549 82.4609L85.6343 82.6489L82.7845 78.1986L82.4778 77.7184L82.5669 77.58L83.362 76.3512L83.5385 76.5631L85.9753 79.4855Z" fill="black"/>
<path d="M87.3328 72.1076C86.4486 72.3606 85.6037 73.2287 84.8686 74.2832C84.3717 75.0107 83.9273 75.7726 83.5388 76.563C83.2971 77.045 83.0847 77.5081 82.9081 77.9114L82.7848 78.1985C82.4866 78.9009 82.3204 79.3709 82.3204 79.3709C82.3204 79.3709 75.5514 74.2952 76.6225 73.9534C76.9823 73.8388 77.4553 73.0698 77.9231 72.1008L77.9814 71.9777C78.2779 71.3557 78.5692 70.6618 78.8279 70.009C79.3575 68.6674 79.7499 67.5018 79.7499 67.5018C79.7499 67.5018 90.0318 71.3386 87.3328 72.1076Z" fill="#EFB7B9"/>
<path d="M91.3821 67.2164C91.3821 67.2164 92.9449 70.0363 95.0441 69.6518C97.1434 69.2672 96.2797 68.1376 96.2797 68.1376L91.3821 67.2164Z" fill="#444053"/>
<path d="M88.3541 164.827C86.9694 165.457 83.8386 164.827 83.8386 164.827L82.5191 164.745C80.8054 164.635 77.9368 164.451 76.9223 164.369C75.4417 164.247 75.805 163.642 75.805 163.642V159.987L82.9886 158.172C82.9886 158.172 85.8281 159.141 86.6061 159.987C87.3447 160.793 87.7766 160.173 89.0944 160.406C89.1595 160.418 89.228 160.431 89.3 160.448C90.551 160.734 91.2296 160.846 91.6306 161.88C91.7112 162.098 91.7759 162.32 91.8242 162.547C92.1944 164.212 89.737 164.2 88.3541 164.827Z" fill="#A36468"/>
<path opacity="0.1" d="M91.6306 161.88C91.3732 162.041 91.1026 162.179 90.8217 162.294C89.8792 162.723 88.983 163.246 88.0302 163.651C87.0774 164.056 86.0509 164.345 85.0193 164.268C84.4795 164.229 83.9277 164.097 83.4119 164.251C83.0929 164.374 82.7925 164.54 82.5191 164.745C80.8054 164.635 77.9368 164.451 76.9223 164.369C75.4417 164.247 75.805 163.642 75.805 163.642V163.215C75.8581 163.215 75.9181 163.2 75.9866 163.195C76.3413 163.189 76.6944 163.242 77.032 163.35C77.7757 163.552 78.516 163.75 79.2597 163.948C79.3209 163.718 79.4284 163.503 79.5757 163.315C79.723 163.128 79.907 162.972 80.1165 162.858C80.541 162.633 81.0175 162.524 81.4977 162.542C82.651 162.557 83.7426 163.102 84.8942 163.157C85.2162 163.187 85.5403 163.132 85.835 163C85.9927 162.921 86.1315 162.807 86.2857 162.72C86.5325 162.6 86.7933 162.513 87.062 162.458C87.8171 162.271 88.5586 162.032 89.2812 161.744C89.4868 161.663 89.7267 161.518 89.6993 161.299C89.6633 161.009 89.2058 160.975 89.0858 160.708C89.0646 160.66 89.0549 160.608 89.0572 160.555C89.0596 160.503 89.0741 160.452 89.0995 160.406C89.1646 160.417 89.2332 160.431 89.3051 160.448C90.551 160.734 91.2296 160.846 91.6306 161.88Z" fill="black"/>
<path d="M86.8907 172.825C85.2627 173.567 81.5784 172.825 81.5784 172.825L80.0275 172.734C78.0191 172.606 74.6364 172.393 73.442 172.292C71.6992 172.148 72.1276 171.437 72.1276 171.437V167.129L80.581 164.993C80.581 164.993 83.9227 166.132 84.8377 167.129C85.7066 168.077 86.2087 167.348 87.7664 167.621C87.8435 167.635 87.924 167.652 88.008 167.671C89.48 168.012 90.2786 168.141 90.7498 169.357C90.8453 169.613 90.9214 169.875 90.9778 170.142C91.4027 172.1 88.5187 172.085 86.8907 172.825Z" fill="#A36468"/>
<path opacity="0.1" d="M90.7464 169.357C90.4436 169.546 90.1255 169.709 89.7953 169.844C88.6866 170.349 87.631 170.964 86.5103 171.441C85.3895 171.917 84.1814 172.256 82.9664 172.167C82.3324 172.121 81.6829 171.962 81.0814 172.146C80.7045 172.293 80.3499 172.491 80.0275 172.734C78.0191 172.606 74.6364 172.393 73.442 172.292C71.6992 172.148 72.1276 171.437 72.1276 171.437V170.935C72.1985 170.923 72.27 170.915 72.3418 170.911C72.7593 170.903 73.1751 170.965 73.5722 171.094L76.1924 171.798C76.2654 171.526 76.3931 171.272 76.5679 171.052C76.7426 170.831 76.9606 170.648 77.2086 170.514C77.708 170.249 78.2692 170.12 78.8348 170.142C80.192 170.161 81.4756 170.801 82.8311 170.866C83.2086 170.901 83.5886 170.838 83.9347 170.684C84.1214 170.59 84.2774 170.455 84.4659 170.354C84.7557 170.212 85.0627 170.109 85.3793 170.046C86.263 169.824 87.1309 169.543 87.9772 169.205C88.2188 169.11 88.5015 168.939 88.469 168.682C88.4261 168.34 87.8881 168.299 87.7458 167.985C87.7218 167.928 87.7109 167.867 87.7139 167.805C87.7169 167.744 87.7336 167.684 87.763 167.63C87.8401 167.643 87.9206 167.66 88.0046 167.679C89.4766 168.007 90.2752 168.141 90.7464 169.357Z" fill="black"/>
<path d="M83.2062 143.261L82.7487 153.998C82.7487 153.998 82.0632 156.191 82.4351 156.818C82.8069 157.446 83.4341 158.071 83.2062 158.442C82.9783 158.813 80.2364 162.822 79.3505 161.284C78.4645 159.746 77.5906 153.081 77.5906 153.081L78.408 144.848L83.2062 143.261Z" fill="#444053"/>
<path d="M85.1906 116.508L86.4621 118.203V132.949C86.4621 132.949 86.834 136.879 86.4621 137.691C86.0903 138.503 84.2053 140.126 84.2053 140.126L82.6201 132.009L82.9628 123.421L85.1906 116.508Z" fill="#444053"/>
<path opacity="0.1" d="M83.2062 143.261L82.7487 153.998C82.7487 153.998 82.0632 156.191 82.4351 156.818C82.8069 157.446 83.4341 158.071 83.2062 158.442C82.9783 158.813 80.2364 162.822 79.3505 161.284C78.4645 159.746 77.5906 153.081 77.5906 153.081L78.408 144.848L83.2062 143.261Z" fill="black"/>
<path opacity="0.1" d="M85.1906 116.508L86.4621 118.203V132.949C86.4621 132.949 86.834 136.879 86.4621 137.691C86.0903 138.503 84.2053 140.126 84.2053 140.126L82.6201 132.009L82.9628 123.421L85.1906 116.508Z" fill="black"/>
<path d="M86.4621 110.219V118.195L85.0346 124.403C85.0346 124.403 84.5771 139.386 84.9764 141.208C85.3756 143.03 83.6054 144.741 83.6054 144.741C83.6054 144.741 82.5773 144.855 82.5773 145.652C82.5773 146.448 80.8636 148.728 80.8636 148.728L80.9201 153.171C80.9201 153.171 81.6639 161.489 80.5209 163.083C79.3779 164.678 80.9201 164.907 80.9201 164.907C79.4927 169.578 72.6381 168.496 72.0194 167.983C71.4008 167.47 72.0194 157.387 72.0194 157.387C72.0194 157.387 73.5514 142.006 74.751 141.323C75.9506 140.639 74.8093 139.784 75.2085 138.759C75.6078 137.734 74.8093 134.943 74.8093 134.943C74.8093 134.943 74.4665 131.638 73.6097 130.043C72.7529 128.449 72.866 124.062 72.866 124.062C72.866 124.062 70.4669 120.871 69.754 119.618C69.0411 118.365 68.5819 115.118 68.7532 112.668C68.8697 111.012 69.742 108.6 70.2955 107.212C70.5611 106.548 70.7531 106.117 70.7531 106.117L70.9158 106.16L80.2758 108.604L86.4621 110.219Z" fill="#444053"/>
<path opacity="0.1" d="M87.3327 72.1076C86.4485 72.3605 85.6037 73.2287 84.8685 74.2832H84.6766C83.599 74.2839 82.5403 74.001 81.6076 73.463C80.6748 72.9249 79.9009 72.1508 79.3643 71.2189C79.14 70.8328 78.9595 70.423 78.8262 69.997C79.3557 68.6554 79.7481 67.4899 79.7481 67.4899C79.7481 67.4899 90.0317 71.3386 87.3327 72.1076Z" fill="black"/>
<path d="M90.8029 67.8351C90.8044 68.7702 90.5907 69.6932 90.1782 70.533C89.7657 71.3727 89.1654 72.1068 88.4236 72.6788C87.6817 73.2507 86.8182 73.6452 85.8994 73.8318C84.9806 74.0185 84.0312 73.9923 83.1241 73.7553C82.2171 73.5184 81.3767 73.0769 80.6677 72.465C79.9587 71.8531 79.3999 71.087 79.0346 70.2259C78.6692 69.3647 78.5069 68.4313 78.5602 67.4977C78.6135 66.5642 78.881 65.6552 79.342 64.841C79.5277 64.5101 79.7446 64.1977 79.9898 63.9078C80.3939 63.4277 80.8688 63.0116 81.3984 62.6739C82.2928 62.1071 83.3194 61.7813 84.3778 61.7285C85.4363 61.6756 86.4904 61.8975 87.4371 62.3724C88.3838 62.8474 89.1908 63.5591 89.7793 64.4381C90.3677 65.3171 90.7175 66.3333 90.7943 67.3874C90.7978 67.5378 90.8029 67.6865 90.8029 67.8351Z" fill="#EFB7B9"/>
<path opacity="0.1" d="M85.6551 82.4609L85.6346 82.6489L82.7848 78.2054C82.4866 78.9078 82.3204 79.3778 82.3204 79.3778C82.3204 79.3778 75.5514 74.2952 76.6225 73.9534C76.9823 73.8389 77.4553 73.0698 77.9231 72.1008L77.9814 71.9778C78.4784 73.4544 81.3659 76.4058 82.5671 77.5885C82.7059 77.7252 82.8207 77.838 82.9099 77.92L83.0932 78.0909L83.1892 78.1866C83.6262 78.6361 85.4701 80.6186 85.6551 82.4609Z" fill="black"/>
<path d="M87.785 97.5377L87.4731 107.547L87.4183 109.33C87.4183 109.33 83.7237 108.988 80.2758 108.612C77.4997 108.31 74.8829 107.983 74.4802 107.792C73.9661 107.551 72.8643 107.365 71.9954 107.247C71.3237 107.156 70.7959 107.108 70.7959 107.108C70.7959 107.108 70.5988 107.166 70.2955 107.221C69.634 107.341 68.4722 107.438 67.7953 106.852C66.9299 106.102 69.2039 103.376 69.7711 102.721L69.8962 102.579L69.682 100.605L69.1251 95.4869C69.1251 95.4869 68.7823 92.5389 68.2682 90.958C68.1308 90.5086 68.0316 90.0484 67.9718 89.5823C67.7808 88.1385 67.8786 86.6712 68.2597 85.2653C68.4225 84.6679 68.5258 84.056 68.5681 83.4384C68.6538 81.8576 73.4949 75.7478 74.6944 75.1924C75.2341 74.9414 75.6683 74.5096 75.9214 73.9722C76.005 73.8032 76.0677 73.6247 76.1082 73.4407C76.6223 71.219 77.923 72.1008 77.923 72.1008C78.2366 73.8389 83.0913 78.4395 83.0913 78.4395L83.1873 78.5352C83.6688 79.0274 85.8143 81.338 85.6618 83.3102C85.6313 84.0443 85.7412 84.7774 85.9857 85.4704C86.9732 88.5714 87.5409 91.79 87.6736 95.0409L87.785 97.5377Z" fill="#DCE6F2"/>
<path opacity="0.1" d="M80.9067 85.6516C80.9067 85.6516 79.7071 88.5569 78.8074 89.0269C77.9078 89.4969 81.3351 90.0181 80.9067 85.6516Z" fill="black"/>
<path opacity="0.1" d="M81.8063 91.0778C81.8063 91.0778 79.0645 91.4196 79.0645 91.9323C79.0645 92.445 81.8063 91.0778 81.8063 91.0778Z" fill="black"/>
<path opacity="0.1" d="M84.6764 94.4103C84.6764 94.4103 80.6922 102.87 79.5783 103.126C78.4644 103.383 84.6764 94.4103 84.6764 94.4103Z" fill="black"/>
<path opacity="0.1" d="M83.0159 78.8685L79.7205 80.2972L75.7432 74.3054C75.8267 74.1364 75.8895 73.958 75.93 73.7739C76.444 71.5522 77.7447 72.4341 77.7447 72.4341C78.0583 74.1721 82.9131 78.7728 82.9131 78.7728L83.0159 78.8685Z" fill="black"/>
<path d="M83.1873 78.5267L79.8919 79.9554L75.9146 73.9636C75.9981 73.7946 76.0608 73.6162 76.1013 73.4321C76.6154 71.2104 77.9161 72.0923 77.9161 72.0923C78.2297 73.8303 83.0845 78.431 83.0845 78.431L83.1873 78.5267Z" fill="#DCE6F2"/>
<path opacity="0.1" d="M87.4184 109.33C87.4184 109.33 83.7238 108.988 80.276 108.612L86.4622 110.227V112.107C86.1915 112.352 85.9567 112.478 85.8042 112.413C85.0913 112.114 79.2735 111.174 79.2735 111.174C79.2735 111.174 75.8941 109.465 72.2475 107.414C72.159 107.365 72.0732 107.312 71.9904 107.254C71.5652 106.966 71.1989 106.6 70.9108 106.175C70.2374 105.203 69.9084 103.953 69.7661 102.728C69.6862 102.026 69.6564 101.319 69.677 100.612C69.6947 99.8112 69.768 99.0124 69.8964 98.2214C69.5437 95.1579 69.372 92.0763 69.3823 88.9927C69.4251 84.2075 73.9234 82.4985 73.9234 82.4985C82.1918 81.7722 79.6282 95.1025 79.6282 95.1025C79.6282 95.1025 79.1501 98.8623 79.0198 99.2468C78.8896 99.6313 78.4218 100.272 78.4852 101.169C78.5486 102.067 80.1286 103.14 80.1286 103.14C80.1286 103.14 81.6709 103.861 82.3066 104.929C82.7693 105.717 85.7751 106.785 87.4733 107.547L87.4184 109.33Z" fill="black"/>
<path opacity="0.1" d="M90.1876 64.0411C90.1908 64.3226 90.1323 64.6013 90.0163 64.858C89.9284 65.0674 89.8265 65.2706 89.7112 65.4664C89.5309 65.8264 89.2749 66.1435 88.9607 66.3961C88.5648 66.6781 88.0644 66.7567 87.5897 66.8712C87.115 66.9857 86.6215 67.1686 86.3508 67.5719C86.204 67.8312 86.1059 68.1149 86.0612 68.4093C86.0158 68.7034 85.898 68.9817 85.7184 69.2194C85.6249 69.3354 85.4954 69.4172 85.3502 69.4518C85.2051 69.4865 85.0525 69.472 84.9164 69.4108C84.7731 69.3144 84.6644 69.1749 84.6063 69.0126C84.4109 68.5734 84.3612 68.0863 84.2824 67.6129C84.2035 67.1395 84.0922 66.6524 83.8008 66.2713C83.5095 65.8902 82.9937 65.639 82.5362 65.7877C82.383 65.8465 82.2434 65.9355 82.1256 66.0495C82.0078 66.1634 81.9143 66.2999 81.8507 66.4508C81.7241 66.7528 81.6371 67.0699 81.5919 67.3941C81.3795 68.554 81.1287 69.707 80.8396 70.8532C80.8308 70.9002 80.8115 70.9446 80.7831 70.9831C80.7375 71.0284 80.6761 71.0541 80.6117 71.0549C80.2279 71.1061 79.8594 70.8378 79.4722 70.8669C79.4322 70.8695 79.3927 70.8758 79.3539 70.8857C78.7277 69.8004 78.4513 68.5493 78.5619 67.3021C78.6726 66.0548 79.165 64.8717 79.9725 63.9129L80.0034 63.9043C80.261 63.8131 80.4951 63.666 80.6888 63.4737C80.9362 63.2268 81.1653 62.9623 81.3743 62.6824L81.5114 62.5115C81.9053 62.0383 82.354 61.6132 82.848 61.2451C82.9829 61.1349 83.1376 61.0514 83.3039 60.999C83.4462 60.9714 83.592 60.9668 83.7357 60.9854C84.3275 61.0562 84.9242 61.0785 85.5196 61.052C85.9346 60.987 86.3527 60.9447 86.7723 60.9255C87.8571 60.9563 88.7824 61.7202 89.4679 62.5576C89.8363 62.9866 90.1654 63.4805 90.1876 64.0411Z" fill="black"/>
<path d="M78.5418 65.0034C78.3036 65.393 77.8735 65.6579 77.7124 66.0852C77.4759 66.7055 77.8752 67.478 77.5084 68.0317C77.3868 68.218 77.1863 68.3564 77.1177 68.5701C77.0012 68.9307 77.3199 69.3152 77.2377 69.6861C77.1554 70.0569 76.6653 70.3697 76.7956 70.732C76.8725 70.89 77.0075 71.0124 77.1726 71.0738C77.4322 71.2223 77.7311 71.2885 78.0294 71.2635C78.4972 71.1866 78.8451 70.7286 79.3198 70.6944C79.7053 70.667 80.0738 70.9336 80.4576 70.8841C80.522 70.8818 80.5831 70.8556 80.629 70.8106C80.6581 70.7725 80.6775 70.7279 80.6856 70.6807C80.9734 69.5357 81.2248 68.3827 81.4396 67.2217C81.4833 66.8973 81.5697 66.5801 81.6966 66.2783C81.7607 66.1277 81.8544 65.9915 81.9721 65.8776C82.0898 65.7637 82.2292 65.6745 82.3821 65.6152C82.8396 65.4682 83.3537 65.7177 83.6467 66.0988C83.9398 66.48 84.0512 66.967 84.13 67.4404C84.2088 67.9138 84.2585 68.4009 84.4522 68.8401C84.511 69.003 84.6202 69.143 84.764 69.24C85.0211 69.3887 85.3673 69.2708 85.5643 69.0486C85.7449 68.8109 85.8627 68.5317 85.9071 68.2368C85.9518 67.943 86.0499 67.6598 86.1967 67.4011C86.4674 66.9978 86.9627 66.8149 87.4356 66.7004C87.9086 66.5859 88.4073 66.5056 88.8066 66.2236C89.1204 65.9713 89.3763 65.6549 89.5571 65.2956C89.8108 64.8547 90.0472 64.3762 90.0267 63.8686C90.0044 63.3149 89.6754 62.821 89.3241 62.3903C88.6386 61.5529 87.7115 60.7889 86.6268 60.7599C86.2071 60.7774 85.7888 60.8196 85.3741 60.8864C84.7786 60.9131 84.1819 60.8902 83.5902 60.818C83.4463 60.8008 83.3006 60.806 83.1584 60.8334C82.9919 60.8841 82.8374 60.9678 82.7042 61.0795C82.2097 61.4469 81.7604 61.8714 81.3659 62.3441C81.1115 62.6805 80.8356 63.0002 80.5399 63.3012C80.3461 63.4939 80.112 63.6415 79.8544 63.7336C79.6831 63.7814 79.5117 63.7472 79.3489 63.8002C78.8434 63.9592 78.7765 64.6171 78.5418 65.0034Z" fill="#965D7B"/>
<path opacity="0.1" d="M95.0442 69.6501C93.6732 69.9013 92.5371 68.7956 91.9082 67.9889C91.715 67.7439 91.5392 67.4858 91.3821 67.2164L96.0878 68.1017L96.278 68.1376C96.278 68.1376 97.1434 69.2672 95.0442 69.6501Z" fill="black"/>
<g opacity="0.1">
<path opacity="0.1" d="M77.2376 69.1971C77.2568 68.9736 77.2227 68.7488 77.1382 68.5409C77.1382 68.558 77.1228 68.5751 77.1176 68.5922C77.0439 68.8212 77.1433 69.0587 77.2067 69.2963C77.2204 69.2644 77.2307 69.2311 77.2376 69.1971Z" fill="black"/>
<path opacity="0.1" d="M77.6453 66.3995C77.6276 66.6359 77.6322 66.8733 77.659 67.1088C77.6765 66.8725 77.6719 66.635 77.6453 66.3995Z" fill="black"/>
<path opacity="0.1" d="M89.5467 64.8017C89.3663 65.1617 89.1103 65.4788 88.7961 65.7314C88.4002 66.0133 87.9016 66.092 87.4252 66.2065C86.9488 66.321 86.4569 66.5038 86.1862 66.9072C86.0397 67.1665 85.9416 67.4503 85.8966 67.7446C85.8519 68.0394 85.7341 68.3185 85.5538 68.5564C85.3568 68.7785 85.0106 68.8982 84.7536 68.7478C84.6097 68.6508 84.5005 68.5108 84.4417 68.3479C84.248 67.9086 84.1966 67.4233 84.1195 66.9482C84.0424 66.4731 83.9276 65.9877 83.6363 65.6066C83.3449 65.2255 82.8291 64.9743 82.3716 65.1229C82.2186 65.182 82.0791 65.2711 81.9613 65.3851C81.8436 65.499 81.75 65.6353 81.6861 65.786C81.5593 66.0879 81.4728 66.4051 81.4291 66.7294C81.2154 67.8904 80.9641 69.0434 80.6751 70.1885C80.667 70.2357 80.6476 70.2803 80.6185 70.3183C80.5726 70.3634 80.5115 70.3896 80.4472 70.3918C80.0633 70.4414 79.6949 70.1748 79.3093 70.2021C78.8346 70.2363 78.4867 70.6943 78.0189 70.7695C77.7205 70.7962 77.4211 70.7299 77.1621 70.5798C77.043 70.5287 76.9361 70.453 76.8485 70.3577C76.8084 70.4149 76.7818 70.4805 76.7709 70.5495C76.7599 70.6185 76.7647 70.689 76.7851 70.7559C76.8606 70.915 76.9961 71.0378 77.1621 71.0977C77.4211 71.2478 77.7205 71.314 78.0189 71.2874C78.4867 71.2122 78.8346 70.7541 79.3093 70.72C79.6949 70.6926 80.0633 70.9592 80.4472 70.9097C80.5115 70.9074 80.5726 70.8812 80.6185 70.8362C80.6476 70.7981 80.667 70.7535 80.6751 70.7063C80.963 69.5669 81.2143 68.4139 81.4291 67.2472C81.4728 66.9229 81.5593 66.6057 81.6861 66.3039C81.75 66.1532 81.8436 66.0168 81.9613 65.9029C82.0791 65.789 82.2186 65.6998 82.3716 65.6408C82.8291 65.4921 83.3432 65.7433 83.6363 66.1244C83.9293 66.5055 84.0407 66.9926 84.1195 67.466C84.1983 67.9394 84.248 68.4265 84.4417 68.8657C84.5005 69.0286 84.6097 69.1686 84.7536 69.2656C85.0106 69.4143 85.3568 69.2964 85.5538 69.0742C85.7341 68.8363 85.8519 68.5573 85.8966 68.2624C85.9416 67.9681 86.0397 67.6844 86.1862 67.425C86.4569 67.0217 86.9522 66.8405 87.4252 66.7243C87.8981 66.6081 88.3968 66.5312 88.7961 66.2492C89.1103 65.9966 89.3663 65.6795 89.5467 65.3195C89.8003 64.8803 90.0368 64.4017 90.0162 63.8942C90.0128 63.8289 90.006 63.7639 89.9956 63.6993C89.913 64.0905 89.7609 64.4638 89.5467 64.8017Z" fill="black"/>
</g>
<path opacity="0.1" d="M90.0233 64.853C90.4627 65.6322 90.7232 66.499 90.7858 67.3909C89.259 66.5364 87.8229 65.5981 87.098 65.2717C85.8351 64.7026 81.1123 64.788 79.3369 64.841C79.5226 64.5102 79.7395 64.1977 79.9847 63.9079C80.3903 63.4274 80.8671 63.0113 81.3984 62.674C82.1021 62.2286 82.8895 61.931 83.7125 61.7994C84.5354 61.6678 85.3766 61.7049 86.1847 61.9086C86.9927 62.1122 87.7507 62.478 88.4121 62.9837C89.0736 63.4894 89.6247 64.1243 90.0318 64.8496L90.0233 64.853Z" fill="black"/>
<path opacity="0.1" d="M95.4726 68.9254C94.6483 69.1784 93.3031 68.6896 91.9082 67.9889C91.715 67.7439 91.5392 67.4858 91.3821 67.2164L96.0878 68.1017C96.3997 68.3136 96.4785 68.6161 95.4726 68.9254Z" fill="black"/>
<path d="M85.0415 58.9278C85.0415 58.9278 80.5432 58.6714 79.2785 61.1068L79.0746 63.2653L78.7319 63.2277L78.6633 64.6957C78.6633 64.6957 85.5385 64.3966 87.1031 65.1007C88.6676 65.8049 93.5292 69.3528 95.4777 68.7546C97.4261 68.1565 95.3063 67.601 95.3063 67.601C95.3063 67.601 92.6244 66.468 92.6244 65.5793C92.6244 64.6906 91.9595 59.9959 85.0415 58.9278Z" fill="#444053"/>
<path opacity="0.1" d="M76.3655 138.944C76.3655 138.944 79.2358 141.721 80.4782 141.507C80.4782 141.507 76.9653 141.208 76.3655 138.944Z" fill="black"/>
<path opacity="0.1" d="M75.7656 140.231C75.7656 140.231 76.0227 141.659 76.7081 141.519C77.3936 141.379 75.7656 140.231 75.7656 140.231Z" fill="black"/>
<path opacity="0.1" d="M80.2638 164.109C80.2638 164.109 76.1887 167.271 76.8759 167.356C77.5631 167.441 80.2638 164.109 80.2638 164.109Z" fill="black"/>
<path d="M85.7151 101.359L98.9102 99.2178V111.676L86.3731 111.022L85.7151 101.359Z" fill="#2CB674"/>
<path opacity="0.05" d="M85.7151 101.359L98.9102 99.2178V111.676L86.3731 111.022L85.7151 101.359Z" fill="black"/>
<path d="M98.9102 99.2178L114.734 100.399L113.858 111.241L98.9102 111.676V99.2178Z" fill="#2CB674"/>
<path opacity="0.1" d="M98.9102 99.2178L114.734 100.399L113.858 111.241L98.9102 111.676V99.2178Z" fill="black"/>
<path d="M103.775 95.4152L98.9102 99.2177L114.734 100.399L117.32 96.5072L103.775 95.4152Z" fill="#2CB674"/>
<path d="M80.9373 97.2062L92.8163 95.7638L98.91 99.2177L85.7149 101.359L80.9373 97.2062Z" fill="#2CB674"/>
<path d="M101.803 102.453V119.487L95.6217 118.854L92.933 118.581L92.1139 118.495L89.4269 118.22L85.7151 117.841V101.359L98.9085 102.255L101.803 102.453Z" fill="#2CB674"/>
<path d="M114.734 100.399V117.01L109.78 117.959L107.37 118.42L101.803 119.487V102.453L114.734 100.399Z" fill="#2CB674"/>
<path opacity="0.05" d="M114.734 100.399V117.01L109.78 117.959L107.37 118.42L101.803 119.487V102.453L114.734 100.399Z" fill="black"/>
<path d="M80.9373 104.945L85.7149 101.359L101.803 102.453L99.4344 106.431L80.9373 104.945Z" fill="#2CB674"/>
<path opacity="0.1" d="M80.9373 104.945L85.7149 101.359L101.803 102.453L99.4344 106.431L80.9373 104.945Z" fill="white"/>
<path d="M114.734 100.399L101.803 102.453L106.011 106.213L119.863 103.895L114.734 100.399Z" fill="#2CB674"/>
<path opacity="0.1" d="M114.734 100.399L101.803 102.453L106.011 106.213L119.863 103.895L114.734 100.399Z" fill="white"/>
<path opacity="0.1" d="M109.78 117.959L107.37 118.42V114.871L109.627 114.303L109.78 117.959Z" fill="white"/>
<path opacity="0.1" d="M95.6216 116.506V118.854L92.9329 118.581V116.506H95.6216Z" fill="white"/>
<path opacity="0.1" d="M92.1138 117.246V118.495L89.4268 118.22V117.246H92.1138Z" fill="white"/>
<path opacity="0.1" d="M100.185 115.26C98.3431 117.61 92.2596 115.987 92.2596 115.987L87.739 111.283L87.1255 110.646L88.325 108.424C88.325 108.424 88.6678 108.537 89.2401 108.735C92.2699 109.791 101.736 113.283 100.185 115.26Z" fill="black"/>
<path d="M100.014 114.918C98.1717 117.268 92.0882 115.645 92.0882 115.645L87.5676 110.942L86.9541 110.304L88.1537 108.082C88.1537 108.082 88.4964 108.195 89.0687 108.393C92.0985 109.45 101.565 112.941 100.014 114.918Z" fill="#EFB7B9"/>
<path opacity="0.1" d="M89.0617 108.393C88.8115 109.111 88.1757 110.174 87.5605 110.942L86.947 110.304L88.1466 108.082C88.1466 108.082 88.491 108.195 89.0617 108.393Z" fill="black"/>
<path d="M74.0948 81.8148C74.0948 81.8148 69.5965 83.5238 69.5537 88.3091C69.5434 91.3927 69.7151 94.4742 70.0678 97.5377C70.0678 97.5377 68.7825 104.673 72.424 106.724C76.0655 108.774 79.45 110.483 79.45 110.483C79.45 110.483 85.2678 111.423 85.9824 111.723C86.697 112.022 89.1801 108.176 88.7945 107.535C88.409 106.895 83.1121 105.314 82.4831 104.246C81.8542 103.177 80.3051 102.458 80.3051 102.458C80.3051 102.458 78.7251 101.383 78.6617 100.486C78.5983 99.5885 79.0644 98.9477 79.1964 98.5631C79.3283 98.1786 79.8064 94.4188 79.8064 94.4188C79.8064 94.4188 82.3632 81.0799 74.0948 81.8148Z" fill="#DCE6F2"/>
<path opacity="0.1" d="M76.1512 97.6575C76.1512 97.6575 70.0677 98.3411 70.539 100.477C70.539 100.477 72.8507 98.3223 76.1512 97.6575Z" fill="black"/>
<path opacity="0.1" d="M76.1511 98.5118C76.1511 98.5118 72.6981 101.033 73.3321 101.204C73.9662 101.374 76.1511 98.5118 76.1511 98.5118Z" fill="black"/>
<path opacity="0.1" d="M77.6934 99.5374C77.6934 99.5374 76.7081 101.304 77.265 101.212C77.822 101.12 77.6934 99.5374 77.6934 99.5374Z" fill="black"/>
<path d="M141.033 61.2076C141.033 61.2076 134.521 60.8163 135.282 65.3725C135.282 65.3725 135.13 66.1774 135.862 66.5432C135.862 66.5432 135.874 66.2014 136.53 66.3193C136.764 66.3585 137.001 66.37 137.238 66.3535C137.558 66.3322 137.863 66.2067 138.105 65.9963C138.105 65.9963 139.937 65.2426 140.649 62.2553C140.649 62.2553 141.177 61.6024 141.164 61.4349L140.063 61.9049C140.063 61.9049 140.439 62.6962 140.142 63.3541C140.142 63.3541 140.108 61.934 139.895 61.9664C139.853 61.9664 139.325 62.2416 139.325 62.2416C139.325 62.2416 139.971 63.619 139.482 64.6222C139.482 64.6222 139.668 62.9235 139.123 62.3407L138.348 62.7919C138.348 62.7919 139.104 64.2155 138.591 65.3776C138.591 65.3776 138.723 63.5951 138.185 62.9013L137.483 63.4464C137.483 63.4464 138.194 64.8512 137.76 65.8151C137.76 65.8151 137.704 63.7404 137.33 63.5832C137.33 63.5832 136.717 64.1232 136.624 64.3454C136.624 64.3454 137.109 65.3708 136.807 65.9023C136.807 65.9023 136.622 64.5197 136.465 64.5129C136.465 64.5129 135.853 65.4289 135.79 66.051C135.819 65.471 136.001 64.9089 136.316 64.4206C135.963 64.4871 135.638 64.6553 135.38 64.9042C135.38 64.9042 135.474 64.2565 136.466 64.2001C136.466 64.2001 136.981 63.5045 137.107 63.4618C137.107 63.4618 136.12 63.3798 135.522 63.6447C135.522 63.6447 136.048 63.0346 137.289 63.3029L137.974 62.7389C137.974 62.7389 136.675 62.568 136.124 62.7577C136.124 62.7577 136.758 62.2177 138.161 62.6107L138.915 62.1613C138.915 62.1613 137.808 61.922 137.148 62.0092C137.148 62.0092 137.844 61.6349 139.136 62.0399L139.676 61.799C139.676 61.799 138.864 61.64 138.627 61.6144C138.391 61.5887 138.377 61.5238 138.377 61.5238C138.891 61.4385 139.419 61.4977 139.901 61.6947C139.901 61.6947 141.057 61.2794 141.033 61.2076Z" fill="#2CB674"/>
<path opacity="0.1" d="M160.819 83.9956C160.819 83.9956 154.308 83.6042 155.068 88.1605C155.068 88.1605 154.916 88.9654 155.648 89.3311C155.648 89.3311 155.66 88.9893 156.318 89.1072C156.551 89.1465 156.789 89.1579 157.025 89.1414C157.342 89.1185 157.643 88.9938 157.882 88.7859C157.882 88.7859 159.716 88.0306 160.429 85.0432C160.429 85.0432 160.955 84.3921 160.934 84.2246L159.834 84.6929C159.834 84.6929 160.209 85.4841 159.915 86.1421C159.915 86.1421 159.879 84.7219 159.668 84.7544C159.625 84.7544 159.095 85.0295 159.095 85.0295C159.095 85.0295 159.743 86.4087 159.255 87.4102C159.255 87.4102 159.44 85.7114 158.893 85.1287L158.127 85.5747C158.127 85.5747 158.883 86.9983 158.371 88.1605C158.371 88.1605 158.503 86.378 157.964 85.6841L157.264 86.231C157.264 86.231 157.973 87.6341 157.541 88.598C157.541 88.598 157.485 86.5232 157.111 86.366C157.111 86.366 156.498 86.906 156.403 87.1282C156.403 87.1282 156.89 88.1536 156.588 88.6851C156.588 88.6851 156.403 87.3025 156.246 87.2957C156.246 87.2957 155.634 88.2117 155.571 88.8338C155.601 88.2538 155.783 87.6918 156.098 87.2034C155.745 87.2701 155.419 87.4382 155.161 87.6871C155.161 87.6871 155.257 87.0393 156.249 86.9829C156.249 86.9829 156.755 86.2874 156.89 86.2447C156.89 86.2447 155.903 86.1626 155.305 86.4275C155.305 86.4275 155.831 85.8174 157.07 86.0943L157.755 85.5303C157.755 85.5303 156.455 85.3594 155.905 85.5491C155.905 85.5491 156.539 85.009 157.942 85.4021L158.696 84.9526C158.696 84.9526 157.587 84.7151 156.928 84.8005C156.928 84.8005 157.625 84.4263 158.917 84.8313L159.457 84.5903C159.457 84.5903 158.645 84.4314 158.407 84.4058C158.168 84.3801 158.156 84.3152 158.156 84.3152C158.671 84.2298 159.199 84.289 159.682 84.4861C159.682 84.4861 160.84 84.0674 160.819 83.9956Z" fill="#2CB674"/>
<path opacity="0.1" d="M121.26 79.9503C121.26 79.9503 122.759 73.6116 118.125 73.5894C118.125 73.5894 117.356 73.3023 116.871 73.9585C116.871 73.9585 117.202 74.0286 116.977 74.6541C116.899 74.8753 116.848 75.1047 116.823 75.3377C116.79 75.6554 116.861 75.9752 117.027 76.2486C117.027 76.2486 117.46 78.1798 120.283 79.3898C120.283 79.3898 120.838 80.0187 121.006 80.0255L120.732 78.8651C120.732 78.8651 119.885 79.0992 119.285 78.6942C119.285 78.6942 120.696 78.901 120.697 78.6942C120.697 78.6515 120.526 78.0858 120.526 78.0858C120.526 78.0858 119.054 78.4857 118.146 77.8346C118.146 77.8346 119.793 78.3063 120.463 77.8705L120.154 77.0296C120.154 77.0296 118.612 77.5304 117.556 76.828C117.556 76.828 119.296 77.2621 120.074 76.8519L119.654 76.0692C119.654 76.0692 118.146 76.5272 117.267 75.9376C117.267 75.9376 119.323 76.2349 119.546 75.8966C119.546 75.8966 119.117 75.201 118.914 75.0711C118.914 75.0711 117.824 75.3753 117.344 74.9874C117.344 74.9874 118.74 75.0403 118.773 74.8934C118.773 74.8934 117.973 74.1363 117.363 73.9654C117.931 74.0945 118.456 74.3689 118.886 74.7618C118.88 74.4036 118.769 74.055 118.567 73.7586C118.567 73.7586 119.191 73.9637 119.081 74.9549C119.081 74.9549 119.681 75.5701 119.7 75.7103C119.7 75.7103 119.949 74.7549 119.789 74.1209C119.789 74.1209 120.303 74.743 119.818 75.9136L120.257 76.6912C120.257 76.6912 120.655 75.4437 120.554 74.8694C120.554 74.8694 120.98 75.5838 120.351 76.8963L120.668 77.7149C120.668 77.7149 121.092 76.6656 121.119 76.0059C121.119 76.0059 121.371 76.7545 120.749 77.9559L120.896 78.5267C120.896 78.5267 121.191 77.756 121.256 77.527C121.321 77.2979 121.388 77.2962 121.388 77.2962C121.385 77.8162 121.238 78.3251 120.961 78.766C120.961 78.766 121.186 79.9589 121.26 79.9503Z" fill="#2CB674"/>
<path opacity="0.1" d="M106.999 82.1105C106.999 82.1105 101.768 78.2088 99.8989 82.4352C99.8989 82.4352 99.3282 83.0248 99.7378 83.7306C99.7378 83.7306 99.9332 83.4555 100.423 83.9118C100.597 84.0728 100.789 84.2128 100.996 84.3288C101.276 84.4842 101.599 84.5442 101.916 84.4997C101.916 84.4997 103.863 84.8739 106.104 82.7702C106.104 82.7702 106.904 82.5138 106.98 82.3634L105.799 82.1566C105.799 82.1566 105.676 83.0231 105.067 83.411C105.067 83.411 105.82 82.2045 105.624 82.1173C105.585 82.0985 104.995 82.0319 104.995 82.0319C104.995 82.0319 104.776 83.5392 103.816 84.1083C103.816 84.1083 104.908 82.7907 104.773 82.0045L103.876 81.9567C103.876 81.9567 103.724 83.5614 102.654 84.2519C102.654 84.2519 103.746 82.8351 103.683 81.9601L102.795 82.0319C102.795 82.0319 102.615 83.5922 101.722 84.1596C101.722 84.1596 102.817 82.3959 102.593 82.0609C102.593 82.0609 101.782 82.1754 101.582 82.3087C101.582 82.3087 101.426 83.4264 100.877 83.7101C100.877 83.7101 101.486 82.454 101.362 82.3668C101.362 82.3668 100.346 82.7958 99.9469 83.2846C100.292 82.8166 100.754 82.4466 101.287 82.2113C100.955 82.0739 100.591 82.0359 100.238 82.1019C100.238 82.1019 100.673 81.6132 101.534 82.1105C101.534 82.1105 102.339 81.808 102.476 81.8456C102.476 81.8456 101.697 81.2355 101.05 81.1295C101.05 81.1295 101.828 80.9073 102.711 81.8131L103.6 81.7225C103.6 81.7225 102.612 80.868 102.044 80.7245C102.044 80.7245 102.872 80.6202 103.827 81.7174L104.704 81.7567C104.704 81.7567 103.911 80.9501 103.312 80.6595C103.312 80.6595 104.099 80.7279 104.956 81.7755L105.54 81.8695C105.54 81.8695 104.949 81.2919 104.764 81.1415C104.579 80.9911 104.605 80.9278 104.605 80.9278C105.081 81.1384 105.49 81.4768 105.785 81.9054C105.785 81.9054 106.976 82.1805 106.999 82.1105Z" fill="#2CB674"/>
<path opacity="0.1" d="M124.411 45.8607C124.411 45.8607 119.181 41.9574 117.311 46.1855C117.311 46.1855 116.741 46.7751 117.15 47.4809C117.15 47.4809 117.346 47.2057 117.836 47.662C118.01 47.8223 118.203 47.9616 118.41 48.0773C118.69 48.2329 119.013 48.2929 119.33 48.2482C119.33 48.2482 121.277 48.6225 123.518 46.517C123.518 46.517 124.318 46.2624 124.392 46.1103L123.211 45.9069C123.211 45.9069 123.09 46.7734 122.48 47.1613C122.48 47.1613 123.234 45.9547 123.038 45.8676C122.999 45.8488 122.409 45.7821 122.409 45.7821C122.409 45.7821 122.183 47.2929 121.224 47.8586C121.224 47.8586 122.313 46.5409 122.18 45.7548L121.283 45.7069C121.283 45.7069 121.129 47.3117 120.062 48.0004C120.062 48.0004 121.153 46.5837 121.09 45.7086L120.204 45.7804C120.204 45.7804 120.022 47.3425 119.129 47.9099C119.129 47.9099 120.226 46.1462 120.002 45.8112C120.002 45.8112 119.191 45.9257 118.991 46.059C118.991 46.059 118.835 47.1767 118.286 47.4604C118.286 47.4604 118.895 46.2043 118.771 46.1154C118.771 46.1154 117.755 46.5461 117.356 47.0348C117.701 46.5663 118.163 46.1963 118.696 45.9616C118.364 45.8232 117.999 45.7851 117.645 45.8522C117.645 45.8522 118.082 45.3634 118.943 45.8607C118.943 45.8607 119.748 45.5565 119.885 45.5958C119.885 45.5958 119.105 44.9857 118.459 44.8781C118.459 44.8781 119.236 44.6576 120.118 45.5617L121.008 45.4711C121.008 45.4711 120.021 44.6166 119.452 44.4713C119.452 44.4713 120.279 44.3688 121.236 45.466L122.113 45.5036C122.113 45.5036 121.319 44.6969 120.72 44.4081C120.72 44.4081 121.508 44.4764 122.365 45.5241L122.947 45.6181C122.947 45.6181 122.355 45.0473 122.169 44.9003C121.984 44.7533 122.01 44.6884 122.01 44.6884C122.487 44.8987 122.896 45.2371 123.191 45.6659C123.191 45.6659 124.382 45.9257 124.411 45.8607Z" fill="#2CB674"/>
<path opacity="0.1" d="M144.396 50.8048C144.396 50.8048 142.305 44.6336 138.362 47.0587C138.362 47.0587 137.556 47.2296 137.493 48.0345C137.493 48.0345 137.81 47.9183 137.95 48.5677C138.003 48.7987 138.081 49.023 138.185 49.236C138.327 49.5226 138.558 49.7558 138.843 49.9008C138.843 49.9008 140.235 51.3107 143.278 50.8441C143.278 50.8441 144.082 51.0868 144.229 51.0031L143.372 50.164C143.372 50.164 142.78 50.8083 142.056 50.7826C142.056 50.7826 143.364 50.2152 143.256 50.0324C143.234 49.9965 142.786 49.6085 142.786 49.6085C142.786 49.6085 141.748 50.7245 140.634 50.651C140.634 50.651 142.281 50.1828 142.617 49.4547L141.907 48.9095C141.907 48.9095 140.869 50.1434 139.596 50.1058C139.596 50.1058 141.309 49.5573 141.743 48.7985L140.972 48.3558C140.972 48.3558 139.943 49.5402 138.878 49.5026C138.878 49.5026 140.783 48.6703 140.788 48.267C140.788 48.267 140.057 47.9029 139.815 47.8995C139.815 47.8995 139.051 48.7318 138.444 48.6566C138.444 48.6566 139.657 47.9645 139.606 47.8226C139.606 47.8226 138.526 47.6021 137.918 47.7799C138.468 47.5888 139.059 47.5446 139.632 47.6517C139.436 47.3507 139.157 47.1132 138.828 46.9681C138.828 46.9681 139.465 46.8126 139.892 47.7081C139.892 47.7081 140.728 47.9149 140.817 48.0226C140.817 48.0226 140.523 47.0809 140.051 46.6263C140.051 46.6263 140.817 46.8844 141.026 48.1336L141.811 48.5609C141.811 48.5609 141.487 47.2945 141.097 46.8519C141.097 46.8519 141.839 47.2347 142 48.6788L142.702 49.2069C142.702 49.2069 142.507 48.0926 142.178 47.515C142.178 47.515 142.788 48.0174 142.898 49.3658L143.324 49.7726C143.324 49.7726 143.167 48.9625 143.102 48.7335C143.037 48.5045 143.09 48.4891 143.09 48.4891C143.362 48.9325 143.506 49.4423 143.506 49.9623C143.506 49.9623 144.336 50.8493 144.396 50.8048Z" fill="#2CB674"/>
<path opacity="0.1" d="M130.752 51.109C130.752 51.109 124.257 50.3878 124.793 54.9834C124.793 54.9834 124.6 55.7798 125.307 56.1797C125.307 56.1797 125.336 55.8379 125.993 55.9917C126.225 56.0414 126.462 56.065 126.699 56.0617C127.019 56.056 127.329 55.9462 127.581 55.749C127.581 55.749 129.451 55.0876 130.323 52.1396C130.323 52.1396 130.882 51.5158 130.87 51.3466L129.747 51.7602C129.747 51.7602 130.09 52.5685 129.747 53.2111C129.747 53.2111 129.783 51.7909 129.576 51.8131C129.533 51.8131 128.992 52.0592 128.992 52.0592C128.992 52.0592 129.567 53.4692 129.029 54.4519C129.029 54.4519 129.3 52.7634 128.784 52.1549L127.987 52.5651C127.987 52.5651 128.673 54.0263 128.099 55.1611C128.099 55.1611 128.322 53.3871 127.82 52.6676L127.091 53.1804C127.091 53.1804 127.729 54.6176 127.247 55.5593C127.247 55.5593 127.297 53.4846 126.932 53.3085C126.932 53.3085 126.291 53.8212 126.186 54.0331C126.186 54.0331 126.62 55.0756 126.293 55.5969C126.293 55.5969 126.178 54.2075 126.027 54.1938C126.027 54.1938 125.369 55.0774 125.273 55.7011C125.332 55.1228 125.543 54.5701 125.883 54.0981C125.527 54.1471 125.194 54.2986 124.923 54.5339C124.923 54.5339 125.05 53.893 126.044 53.8862C126.044 53.8862 126.584 53.2179 126.73 53.1821C126.73 53.1821 125.748 53.0505 125.136 53.2846C125.136 53.2846 125.693 52.7001 126.916 53.0402L127.638 52.5121C127.638 52.5121 126.334 52.2489 125.782 52.4198C125.782 52.4198 126.443 51.9071 127.825 52.3771L128.601 51.9652C128.601 51.9652 127.506 51.6713 126.843 51.7243C126.843 51.7243 127.557 51.3825 128.827 51.8559L129.379 51.6422C129.379 51.6422 128.575 51.4423 128.339 51.4047C128.102 51.3671 128.094 51.3021 128.094 51.3021C128.612 51.2429 129.136 51.3281 129.609 51.5482C129.609 51.5482 130.764 51.1808 130.752 51.109Z" fill="#2CB674"/>
<path opacity="0.1" d="M187.576 101.383C187.576 101.383 181.085 100.662 181.621 105.252C181.621 105.252 181.428 106.049 182.135 106.449C182.135 106.449 182.165 106.107 182.821 106.259C183.053 106.31 183.29 106.334 183.527 106.329C183.848 106.324 184.158 106.214 184.409 106.016C184.409 106.016 186.279 105.355 187.143 102.408C187.143 102.408 187.701 101.783 187.689 101.615L186.567 102.027C186.567 102.027 186.91 102.837 186.567 103.48C186.567 103.48 186.603 102.058 186.396 102.082C186.353 102.082 185.811 102.326 185.811 102.326C185.811 102.326 186.387 103.736 185.849 104.719C185.849 104.719 186.12 103.032 185.604 102.422L184.807 102.834C184.807 102.834 185.492 104.295 184.92 105.43C184.92 105.43 185.141 103.656 184.639 102.935L183.911 103.448C183.911 103.448 184.548 104.885 184.067 105.825C184.067 105.825 184.116 103.75 183.751 103.576C183.751 103.576 183.112 104.088 183.006 104.3C183.006 104.3 183.441 105.343 183.112 105.864C183.112 105.864 182.997 104.475 182.847 104.461C182.847 104.461 182.189 105.345 182.093 105.968C182.152 105.39 182.362 104.837 182.703 104.365C182.347 104.413 182.013 104.565 181.743 104.801C181.743 104.801 181.87 104.158 182.864 104.152C182.864 104.152 183.405 103.483 183.549 103.449C183.549 103.449 182.567 103.316 181.956 103.55C181.956 103.55 182.512 102.967 183.738 103.307L184.457 102.779C184.457 102.779 183.169 102.537 182.608 102.704C182.608 102.704 183.27 102.191 184.651 102.66L185.427 102.249C185.427 102.249 184.332 101.956 183.669 102.009C183.669 102.009 184.384 101.667 185.654 102.14L186.205 101.925C186.205 101.925 185.402 101.725 185.165 101.689C184.929 101.653 184.92 101.586 184.92 101.586C185.438 101.526 185.963 101.611 186.435 101.831C186.435 101.831 187.593 101.457 187.576 101.383Z" fill="#2CB674"/>
<path opacity="0.1" d="M197.5 107.43C197.5 107.43 191.009 106.71 191.545 111.299C191.545 111.299 191.353 112.095 192.059 112.495C192.059 112.495 192.088 112.153 192.744 112.307C192.976 112.357 193.212 112.38 193.449 112.375C193.768 112.369 194.076 112.26 194.328 112.064C194.328 112.064 196.196 111.403 197.059 108.455C197.059 108.455 197.62 107.831 197.606 107.662L196.484 108.074C196.484 108.074 196.826 108.884 196.484 109.527C196.484 109.527 196.52 108.106 196.312 108.129C196.269 108.129 195.728 108.373 195.728 108.373C195.728 108.373 196.304 109.783 195.766 110.766C195.766 110.766 196.036 109.079 195.521 108.47L194.724 108.881C194.724 108.881 195.409 110.342 194.837 111.477C194.837 111.477 195.058 109.703 194.556 108.983L193.827 109.496C193.827 109.496 194.465 110.933 193.985 111.875C193.985 111.875 194.033 109.798 193.668 109.624C193.668 109.624 193.029 110.137 192.923 110.349C192.923 110.349 193.358 111.391 193.029 111.912C193.029 111.912 192.914 110.523 192.763 110.509C192.763 110.509 192.105 111.393 192.011 112.017C192.07 111.438 192.28 110.886 192.619 110.413C192.264 110.463 191.93 110.614 191.66 110.849C191.66 110.849 191.788 110.207 192.782 110.202C192.782 110.202 193.322 109.533 193.468 109.497C193.468 109.497 192.486 109.366 191.874 109.6C191.874 109.6 192.431 109.016 193.656 109.356L194.376 108.828C194.376 108.828 193.087 108.585 192.527 108.752C192.527 108.752 193.188 108.24 194.57 108.71L195.346 108.298C195.346 108.298 194.251 108.004 193.588 108.057C193.588 108.057 194.302 107.715 195.572 108.188L196.124 107.975C196.124 107.975 195.32 107.775 195.085 107.737C194.851 107.7 194.839 107.635 194.839 107.635C195.357 107.575 195.881 107.661 196.353 107.881C196.353 107.881 197.517 107.503 197.5 107.43Z" fill="#2CB674"/>
<path opacity="0.1" d="M175.468 56.4993C175.468 56.4993 170.237 52.5976 168.368 56.824C168.368 56.824 167.797 57.4136 168.207 58.1194C168.207 58.1194 168.402 57.8443 168.892 58.3006C169.066 58.4616 169.258 58.6016 169.465 58.7176C169.745 58.8729 170.068 58.9329 170.385 58.8885C170.385 58.8885 172.332 59.2627 174.575 57.1589C174.575 57.1589 175.373 56.9026 175.449 56.7522L174.271 56.5403C174.271 56.5403 174.148 57.4068 173.54 57.7947C173.54 57.7947 174.292 56.5881 174.097 56.501C174.057 56.4822 173.469 56.4155 173.469 56.4155C173.469 56.4155 173.248 57.9229 172.289 58.492C172.289 58.492 173.38 57.1743 173.245 56.3882L172.349 56.3403C172.349 56.3403 172.196 57.9451 171.127 58.6355C171.127 58.6355 172.22 57.2188 172.155 56.3438L171.267 56.4155C171.267 56.4155 171.096 57.9759 170.195 58.5432C170.195 58.5432 171.291 56.7795 171.065 56.4446C171.065 56.4446 170.255 56.5591 170.054 56.6924C170.054 56.6924 169.9 57.8101 169.352 58.0938C169.352 58.0938 169.958 56.8377 169.835 56.7505C169.835 56.7505 168.819 57.1795 168.419 57.6682C168.765 57.2002 169.227 56.8303 169.759 56.595C169.428 56.4576 169.063 56.4196 168.711 56.4856C168.711 56.4856 169.148 55.9968 170.008 56.4941C170.008 56.4941 170.812 56.1916 170.949 56.2292C170.949 56.2292 170.169 55.6191 169.523 55.5132C169.523 55.5132 170.301 55.291 171.183 56.1968L172.073 56.1062C172.073 56.1062 171.086 55.2517 170.517 55.1081C170.517 55.1081 171.344 55.0039 172.299 56.1011L173.178 56.1404C173.178 56.1404 172.383 55.3337 171.785 55.0432C171.785 55.0432 172.573 55.1116 173.428 56.1592L174.013 56.2532C174.013 56.2532 173.421 55.6755 173.236 55.5251C173.051 55.3747 173.079 55.3252 173.079 55.3252C173.555 55.5361 173.963 55.8744 174.258 56.3027C174.258 56.3027 175.445 56.5693 175.468 56.4993Z" fill="#2CB674"/>
<path opacity="0.1" d="M179.508 84.6672C179.508 84.6672 177.706 78.4071 173.651 80.6545C173.651 80.6545 172.839 80.7792 172.738 81.5893C172.738 81.5893 173.06 81.4885 173.171 82.143C173.213 82.3782 173.282 82.6076 173.377 82.8266C173.504 83.1211 173.724 83.366 174.004 83.5239C174.004 83.5239 175.331 84.9936 178.391 84.6655C178.391 84.6655 179.183 84.9424 179.334 84.8672L178.523 83.9887C178.523 83.9887 177.901 84.6074 177.181 84.5493C177.181 84.5493 178.511 84.0366 178.408 83.8537C178.388 83.8161 177.959 83.4077 177.959 83.4077C177.959 83.4077 176.873 84.4775 175.762 84.3528C175.762 84.3528 177.43 83.9597 177.797 83.2522L177.111 82.6745C177.111 82.6745 176.018 83.8606 174.748 83.7683C174.748 83.7683 176.475 83.2949 176.952 82.5583L176.201 82.0815C176.201 82.0815 175.113 83.218 174.057 83.1325C174.057 83.1325 175.999 82.3857 176.023 81.9841C176.023 81.9841 175.307 81.5876 175.065 81.5739C175.065 81.5739 174.265 82.3703 173.656 82.2678C173.656 82.2678 174.9 81.6303 174.856 81.4868C174.856 81.4868 173.787 81.2184 173.171 81.3671C173.729 81.2023 174.319 81.1853 174.885 81.3176C174.704 81.0083 174.436 80.7588 174.114 80.5998C174.114 80.5998 174.758 80.4716 175.142 81.3859C175.142 81.3859 175.966 81.6286 176.052 81.7414C176.052 81.7414 175.8 80.7861 175.349 80.3127C175.349 80.3127 176.103 80.6032 176.256 81.861L177.02 82.3242C177.02 82.3242 176.753 81.0424 176.383 80.5912C176.383 80.5912 177.106 81.0065 177.204 82.4558L177.889 83.0146C177.889 83.0146 177.743 81.8935 177.442 81.3056C177.442 81.3056 178.03 81.8354 178.078 83.1855L178.485 83.6128C178.485 83.6128 178.365 82.7959 178.314 82.5634C178.263 82.331 178.314 82.2985 178.314 82.2985C178.568 82.7531 178.689 83.2691 178.665 83.7888C178.665 83.7888 179.447 84.7082 179.508 84.6672Z" fill="#2CB674"/>
<path opacity="0.1" d="M139.337 98.7733C139.337 98.7733 135.836 93.2737 132.585 96.5653C132.585 96.5653 131.841 96.9071 131.972 97.7189C131.972 97.7189 132.254 97.5309 132.546 98.129C132.65 98.341 132.78 98.5395 132.933 98.7203C133.137 98.9671 133.417 99.14 133.73 99.2125C133.73 99.2125 135.418 100.252 138.262 99.0758C138.262 99.0758 139.1 99.1202 139.224 99.0057L138.196 98.3905C138.196 98.3905 137.772 99.1595 137.065 99.3048C137.065 99.3048 138.199 98.4503 138.047 98.2931C138.017 98.2623 137.49 97.9923 137.49 97.9923C137.49 97.9923 136.748 99.3219 135.647 99.515C135.647 99.515 137.137 98.6691 137.291 97.8863L136.47 97.5257C136.47 97.5257 135.755 98.9698 134.511 99.2347C134.511 99.2347 136.036 98.2965 136.285 97.4557L135.428 97.2096C135.428 97.2096 134.705 98.6058 133.668 98.8195C133.668 98.8195 135.32 97.5582 135.229 97.1651C135.229 97.1651 134.431 96.9857 134.201 97.0404C134.201 97.0404 133.658 98.0299 133.044 98.1017C133.044 98.1017 134.059 97.1412 133.975 97.0147C133.975 97.0147 132.873 97.0575 132.325 97.3736C132.814 97.0576 133.377 96.8749 133.959 96.8438C133.699 96.5979 133.372 96.4333 133.019 96.3704C133.019 96.3704 133.6 96.068 134.218 96.837C134.218 96.837 135.075 96.837 135.193 96.9225C135.193 96.9225 134.679 96.068 134.115 95.7484C134.115 95.7484 134.921 95.8167 135.421 96.9806L136.287 97.2096C136.287 97.2096 135.668 96.056 135.186 95.7261C135.186 95.7261 135.997 95.921 136.499 97.2865L137.308 97.6283C137.308 97.6283 136.852 96.5943 136.395 96.1107C136.395 96.1107 137.107 96.4525 137.534 97.7359L138.048 98.0316C138.048 98.0316 137.706 97.2813 137.584 97.0746C137.462 96.8678 137.51 96.8199 137.51 96.8199C137.881 97.1852 138.143 97.6462 138.266 98.1512C138.266 98.1512 139.291 98.8314 139.337 98.7733Z" fill="#2CB674"/>
<path d="M162.346 70.6738C162.346 70.6738 159.017 65.0699 155.663 68.2589C155.663 68.2589 154.909 68.5837 155.015 69.3937C155.015 69.3937 155.301 69.2126 155.575 69.8193C155.674 70.0349 155.797 70.2381 155.944 70.4243C156.141 70.6763 156.415 70.8565 156.725 70.937C156.725 70.937 158.379 72.0273 161.26 70.937C161.26 70.937 162.096 71.007 162.223 70.896L161.217 70.25C161.217 70.25 160.771 71.0036 160.058 71.1284C160.058 71.1284 161.219 70.3029 161.073 70.1474C161.042 70.1149 160.525 69.8278 160.525 69.8278C160.525 69.8278 159.741 71.1352 158.64 71.2942C158.64 71.2942 160.154 70.4943 160.331 69.7184L159.522 69.339C159.522 69.339 158.763 70.7627 157.51 70.99C157.51 70.99 159.064 70.0996 159.339 69.2673L158.492 68.9938C158.492 68.9938 157.724 70.361 156.683 70.549C156.683 70.549 158.372 69.339 158.293 68.9443C158.293 68.9443 157.502 68.7392 157.265 68.787C157.265 68.787 156.691 69.7595 156.076 69.8124C156.076 69.8124 157.119 68.8862 157.041 68.7563C157.041 68.7563 155.937 68.7648 155.38 69.0639C155.879 68.7638 156.448 68.5988 157.03 68.5854C156.777 68.3313 156.455 68.1567 156.103 68.0829C156.103 68.0829 156.695 67.7975 157.303 68.5854C157.303 68.5854 158.16 68.6144 158.275 68.7016C158.275 68.7016 157.79 67.8471 157.234 67.495C157.234 67.495 158.036 67.5873 158.501 68.7665L159.358 69.0229C159.358 69.0229 158.777 67.8505 158.304 67.5053C158.304 67.5053 159.109 67.7257 159.568 69.1049L160.365 69.4758C160.365 69.4758 159.942 68.4281 159.508 67.9377C159.508 67.9377 160.209 68.3017 160.598 69.5971L161.1 69.9081C161.1 69.9081 160.778 69.1476 160.665 68.9374C160.552 68.7272 160.6 68.6811 160.6 68.6811C160.959 69.0576 161.207 69.5262 161.315 70.0346C161.315 70.0346 162.296 70.7302 162.346 70.6738Z" fill="#2CB674"/>
<path d="M141.28 82.4575C141.28 82.4575 141.452 75.9462 136.915 76.8639C136.915 76.8639 136.103 76.7392 135.76 77.4809C135.76 77.4809 136.103 77.4809 136.007 78.1388C135.976 78.3734 135.972 78.6109 135.997 78.8464C136.028 79.1657 136.163 79.466 136.383 79.7009C136.383 79.7009 137.2 81.5022 140.218 82.114C140.218 82.114 140.888 82.6181 141.056 82.5908L140.542 81.5107C140.542 81.5107 139.762 81.9106 139.092 81.6389C139.092 81.6389 140.514 81.5551 140.475 81.3466C140.475 81.3039 140.18 80.7844 140.18 80.7844C140.18 80.7844 138.819 81.4765 137.8 81.0219C137.8 81.0219 139.513 81.1501 140.074 80.5878L139.596 79.8307C139.596 79.8307 138.194 80.6306 137.011 80.1589C137.011 80.1589 138.802 80.2307 139.481 79.6718L138.91 78.9882C138.91 78.9882 137.527 79.7436 136.547 79.3437C136.547 79.3437 138.624 79.2189 138.775 78.8412C138.775 78.8412 138.213 78.2482 137.987 78.1576C137.987 78.1576 136.982 78.6703 136.434 78.3935C136.434 78.3935 137.805 78.1645 137.813 78.0124C137.813 78.0124 136.876 77.433 136.244 77.3903C136.827 77.4007 137.397 77.5633 137.897 77.862C137.819 77.5126 137.641 77.1937 137.383 76.9442C137.383 76.9442 138.036 77.0177 138.125 78.0038C138.125 78.0038 138.84 78.4858 138.886 78.6191C138.886 78.6191 138.936 77.633 138.65 77.0451C138.65 77.0451 139.28 77.5492 139.044 78.7934L139.632 79.4667C139.632 79.4667 139.765 78.1645 139.551 77.6227C139.551 77.6227 140.113 78.2362 139.767 79.6479L140.242 80.3845C140.242 80.3845 140.444 79.2719 140.336 78.6174C140.336 78.6174 140.734 79.301 140.37 80.6015L140.631 81.1313C140.631 81.1313 140.763 80.3161 140.78 80.0786C140.797 79.841 140.862 79.8256 140.862 79.8256C140.965 80.3354 140.924 80.8638 140.744 81.3518C140.744 81.3518 141.205 82.4797 141.28 82.4575Z" fill="#2CB674"/>
<path opacity="0.1" d="M148.779 165.194C151.328 165.194 153.394 164.846 153.394 164.417C153.394 163.987 151.328 163.639 148.779 163.639C146.23 163.639 144.164 163.987 144.164 164.417C144.164 164.846 146.23 165.194 148.779 165.194Z" fill="#2CB674"/>
<path opacity="0.1" d="M131.956 177C134.505 177 136.571 176.652 136.571 176.222C136.571 175.793 134.505 175.445 131.956 175.445C129.407 175.445 127.341 175.793 127.341 176.222C127.341 176.652 129.407 177 131.956 177Z" fill="#2CB674"/>
<path opacity="0.1" d="M44.9609 170.952C47.5097 170.952 49.5758 170.604 49.5758 170.174C49.5758 169.745 47.5097 169.397 44.9609 169.397C42.4122 169.397 40.3461 169.745 40.3461 170.174C40.3461 170.604 42.4122 170.952 44.9609 170.952Z" fill="#2CB674"/>
<path opacity="0.1" d="M166.959 176.222C169.508 176.222 171.574 175.874 171.574 175.445C171.574 175.015 169.508 174.667 166.959 174.667C164.411 174.667 162.344 175.015 162.344 175.445C162.344 175.874 164.411 176.222 166.959 176.222Z" fill="#2CB674"/>
<path d="M171.764 166.741C175.57 166.741 178.655 166.22 178.655 165.579C178.655 164.937 175.57 164.417 171.764 164.417C167.959 164.417 164.874 164.937 164.874 165.579C164.874 166.22 167.959 166.741 171.764 166.741Z" fill="#2CB674"/>
<path d="M174.621 163.677C174.936 163.422 175.165 163.077 175.277 162.689C175.363 162.296 175.195 161.826 174.82 161.682C174.398 161.522 173.948 161.812 173.605 162.106C173.262 162.4 172.873 162.737 172.426 162.675C172.655 162.467 172.827 162.203 172.925 161.91C173.022 161.616 173.041 161.302 172.981 160.999C172.962 160.873 172.908 160.755 172.827 160.657C172.592 160.407 172.169 160.515 171.888 160.711C170.997 161.337 170.748 162.544 170.743 163.63C170.654 163.239 170.729 162.831 170.728 162.434C170.726 162.038 170.615 161.58 170.273 161.371C170.064 161.255 169.828 161.196 169.588 161.2C169.187 161.187 168.74 161.226 168.467 161.518C168.125 161.88 168.215 162.491 168.51 162.885C168.805 163.28 169.256 163.535 169.67 163.812C170.002 164.009 170.286 164.278 170.5 164.599C170.524 164.644 170.544 164.691 170.56 164.74H173.072C173.634 164.457 174.155 164.099 174.621 163.677Z" fill="#2CB674"/>
<path d="M41.8627 166.56C41.8627 166.56 44.4931 166.479 45.29 165.915C46.0868 165.351 49.3393 164.68 49.5364 165.584C49.7335 166.488 53.4915 170.077 50.52 170.101C47.5486 170.125 43.6157 169.639 42.824 169.157C42.0323 168.675 41.8627 166.56 41.8627 166.56Z" fill="#A8A8A8"/>
<path opacity="0.2" d="M50.5697 169.786C47.5983 169.81 43.6654 169.325 42.8737 168.843C42.2705 168.477 42.0306 167.163 41.9501 166.556H41.8627C41.8627 166.556 42.034 168.674 42.8206 169.154C43.6072 169.634 47.5451 170.121 50.5166 170.097C51.3734 170.097 51.6699 169.786 51.6545 169.335C51.5345 169.61 51.2072 169.781 50.5697 169.786Z" fill="black"/>
<defs>
<linearGradient id="paint0_linear" x1="67.2128" y1="116.072" x2="120.701" y2="116.072" gradientUnits="userSpaceOnUse">
<stop stop-color="#808080" stop-opacity="0.25"/>
<stop offset="0.54" stop-color="#808080" stop-opacity="0.12"/>
<stop offset="1" stop-color="#808080" stop-opacity="0.1"/>
</linearGradient>
</defs>
</svg>
