<svg width="300" height="300" viewBox="0 0 300 300" fill="none" xmlns="http://www.w3.org/2000/svg">
<circle r="35" transform="matrix(-1 0 0 1 265 35)" fill="#F3ECAA"/>
<circle cx="150" cy="150" r="150" fill="#F2FCF5"/>
<circle r="34.25" transform="matrix(-1 0 0 1 35 265)" stroke="#F3ECAA" stroke-width="1.5"/>
<path d="M123.9 101.655L113.674 114.324L121.824 100.199C120.58 99.4337 119.257 98.8044 117.878 98.3216C118.153 95.544 117.853 92.7395 116.997 90.083C116.14 87.4265 114.746 84.9749 112.901 82.8809C111.056 80.7869 108.799 79.0955 106.272 77.912C103.745 76.7285 101.001 76.0783 98.2112 76.002C95.4217 75.9256 92.6463 76.4248 90.0581 77.4683C87.4699 78.5117 85.1243 80.0772 83.1674 82.0672C81.2106 84.0571 79.6845 86.4288 78.6842 89.0345C77.6839 91.6402 77.2308 94.424 77.3533 97.2125L95.8243 98.4279L77.6781 100.058C78.1895 102.782 79.2515 105.372 80.7988 107.67C82.3462 109.969 84.3464 111.927 86.677 113.425L96.7887 106.863L88.3793 114.404C89.2136 114.833 90.0765 115.205 90.9619 115.515C90.5162 120.05 91.6071 124.603 94.0595 128.443C96.5118 132.283 100.183 135.187 104.484 136.689C104.142 140.152 104.694 143.645 106.087 146.833C107.481 150.021 109.67 152.798 112.444 154.898C115.218 156.998 118.485 158.35 121.931 158.825C125.377 159.3 128.888 158.882 132.127 157.611C132.307 158.407 132.625 159.165 133.067 159.851C133.697 160.861 134.585 161.685 135.64 162.236C135.707 163.423 136.079 164.573 136.718 165.575C137.357 166.577 138.243 167.398 139.291 167.96C139.36 169.146 139.732 170.295 140.371 171.296C141.01 172.298 141.895 173.119 142.942 173.682C143.01 174.868 143.381 176.018 144.02 177.02C144.659 178.023 145.544 178.845 146.591 179.407C146.648 180.596 147.021 181.748 147.67 182.745C149.32 185.33 152.26 186.405 154.235 185.151C156.21 183.898 156.472 180.773 154.822 178.186C154.193 177.176 153.307 176.352 152.254 175.797C152.185 174.609 151.813 173.458 151.173 172.455C150.532 171.452 149.645 170.63 148.596 170.068C148.527 168.881 148.155 167.732 147.516 166.73C146.876 165.729 145.99 164.908 144.943 164.346C144.875 163.159 144.504 162.01 143.864 161.008C143.225 160.006 142.339 159.185 141.292 158.624C141.235 157.435 140.861 156.283 140.211 155.287C139.783 154.606 139.241 154.005 138.607 153.51C141.154 151.119 143.042 148.112 144.089 144.778C145.135 141.445 145.305 137.898 144.581 134.48C143.857 131.062 142.265 127.888 139.957 125.265C137.649 122.642 134.704 120.659 131.407 119.506C131.738 116.141 131.225 112.747 129.914 109.631C128.604 106.514 126.537 103.774 123.902 101.657L123.9 101.655Z" fill="#D7F1E5"/>
<path d="M165.854 91.4847L164.03 92.6419L165.139 90.6263C164.825 90.373 164.436 90.2319 164.034 90.2252H164.006C163.879 90.227 163.752 90.2176 163.627 90.1971L163.007 90.5982L163.274 90.1149C162.836 89.9622 162.457 89.6752 162.191 89.2946L161.084 89.9966L161.784 88.7251C161.489 88.345 161.114 88.0351 160.685 87.818C160.256 87.6008 159.784 87.4818 159.304 87.4696C158.151 87.4696 157.126 88.1555 156.464 89.2224C156.268 89.5402 155.991 89.8004 155.661 89.9765C155.331 90.1526 154.961 90.2384 154.588 90.2252H154.526C153.254 90.2252 152.224 91.6672 152.224 93.4341C152.224 95.2009 153.254 96.6529 154.526 96.6529C154.805 96.652 155.08 96.5832 155.328 96.4524C155.76 96.2422 156.233 96.1284 156.714 96.1191C157.195 96.1097 157.672 96.205 158.113 96.3982C158.485 96.5642 158.889 96.6499 159.297 96.6499C159.705 96.6499 160.108 96.5642 160.481 96.3982C160.918 96.2088 161.391 96.1157 161.867 96.125C162.343 96.1343 162.812 96.246 163.242 96.4524C163.489 96.5832 163.764 96.6521 164.044 96.6529C165.315 96.6529 166.346 95.213 166.346 93.4341C166.347 92.7534 166.179 92.0831 165.854 91.4847Z" fill="#D7F1E5"/>
<path opacity="0.03" d="M162.416 96.1958C161.752 96.0704 161.066 96.1451 160.445 96.4104C160.072 96.5763 159.668 96.662 159.261 96.662C158.853 96.662 158.449 96.5763 158.077 96.4104C157.636 96.2171 157.158 96.1218 156.677 96.1311C156.196 96.1405 155.722 96.2542 155.289 96.4645C155.042 96.5958 154.767 96.6647 154.487 96.6651C153.357 96.6651 152.418 95.5279 152.222 94.0278C152.447 93.8649 152.638 93.6607 152.787 93.4261C153.449 92.3592 154.475 91.6753 155.626 91.6753C156.777 91.6753 157.79 92.3512 158.451 93.4061C158.649 93.7252 158.925 93.9878 159.254 94.1684C159.583 94.349 159.953 94.4415 160.328 94.4369H160.358C161.259 94.4229 162.031 95.1449 162.416 96.1958Z" fill="black"/>
<path d="M233.426 83.6632L231.601 84.8203L232.71 82.8048C232.397 82.5515 232.008 82.4103 231.605 82.4037H231.577C231.45 82.4055 231.324 82.3961 231.198 82.3756L230.579 82.7767L230.846 82.2934C230.407 82.1407 230.028 81.8536 229.763 81.4731L228.656 82.175L229.356 80.9035C229.061 80.5234 228.686 80.2136 228.257 79.9964C227.828 79.7793 227.356 79.6603 226.875 79.6481C225.723 79.6481 224.698 80.334 224.036 81.4009C223.84 81.7187 223.562 81.9788 223.233 82.1549C222.903 82.331 222.533 82.4169 222.159 82.4037H222.097C220.826 82.4037 219.795 83.8457 219.795 85.6125C219.795 87.3794 220.826 88.8314 222.097 88.8314C222.377 88.8304 222.652 88.7616 222.899 88.6309C223.332 88.4206 223.805 88.3069 224.286 88.2975C224.767 88.2882 225.244 88.3834 225.684 88.5767C226.057 88.7427 226.46 88.8284 226.868 88.8284C227.276 88.8284 227.68 88.7427 228.052 88.5767C228.49 88.3873 228.962 88.2941 229.439 88.3035C229.915 88.3128 230.384 88.4245 230.813 88.6309C231.061 88.7617 231.336 88.8305 231.615 88.8314C232.887 88.8314 233.917 87.3914 233.917 85.6125C233.919 84.9319 233.75 84.2616 233.426 83.6632Z" fill="#D7F1E5"/>
<path opacity="0.03" d="M229.987 88.3741C229.324 88.2487 228.638 88.3234 228.016 88.5887C227.644 88.7546 227.24 88.8404 226.832 88.8404C226.424 88.8404 226.021 88.7546 225.648 88.5887C225.208 88.3954 224.73 88.3001 224.249 88.3095C223.768 88.3188 223.294 88.4326 222.861 88.6429C222.614 88.7741 222.339 88.843 222.059 88.8434C220.928 88.8434 219.99 87.7063 219.793 86.2061C220.018 86.0432 220.21 85.839 220.359 85.6045C221.021 84.5375 222.047 83.8536 223.198 83.8536C224.349 83.8536 225.362 84.5295 226.023 85.5844C226.221 85.9035 226.497 86.1661 226.826 86.3468C227.155 86.5274 227.525 86.6199 227.9 86.6153H227.93C228.83 86.6012 229.602 87.3232 229.987 88.3741Z" fill="black"/>
<path d="M188.366 102.595L191.305 104.465L189.524 101.226C190.029 100.824 190.654 100.601 191.299 100.594H191.345C191.547 100.597 191.748 100.582 191.947 100.55L192.939 101.18L192.508 100.405C193.211 100.158 193.819 99.6966 194.246 99.0858L196.025 100.213L194.914 98.1692C195.955 96.9218 197.356 96.1637 198.898 96.1637C200.749 96.1637 202.395 97.2627 203.46 98.9714C203.774 99.4835 204.217 99.9035 204.745 100.189C205.273 100.475 205.867 100.616 206.468 100.598H206.568C208.609 100.598 210.263 102.912 210.263 105.768C210.263 108.624 208.609 110.94 206.568 110.94C206.118 110.939 205.676 110.828 205.279 110.618C204.584 110.28 203.824 110.097 203.051 110.082C202.279 110.068 201.513 110.221 200.805 110.531C200.206 110.799 199.557 110.938 198.9 110.938C198.244 110.938 197.595 110.799 196.995 110.531C196.293 110.227 195.534 110.077 194.768 110.092C194.003 110.107 193.25 110.286 192.56 110.618C192.167 110.822 191.73 110.93 191.287 110.932C189.244 110.932 187.59 108.618 187.59 105.76C187.579 104.657 187.845 103.569 188.366 102.595Z" fill="#D7F1E5"/>
<path opacity="0.03" d="M193.89 110.17C194.956 109.969 196.059 110.089 197.058 110.515C197.657 110.783 198.306 110.922 198.962 110.922C199.619 110.922 200.268 110.783 200.867 110.515C201.575 110.205 202.342 110.051 203.114 110.066C203.887 110.081 204.647 110.264 205.343 110.602C205.739 110.812 206.181 110.923 206.63 110.924C208.445 110.924 209.952 109.097 210.267 106.687C209.905 106.422 209.597 106.089 209.361 105.708C208.296 103.995 206.65 102.9 204.799 102.9C202.949 102.9 201.324 103.987 200.26 105.684C199.943 106.195 199.5 106.616 198.973 106.906C198.446 107.196 197.853 107.345 197.252 107.339H197.206C195.75 107.324 194.499 108.484 193.89 110.17Z" fill="black"/>
<path d="M150 205C215.17 205 268 203.114 268 200.788C268 198.462 215.17 196.577 150 196.577C84.8304 196.577 32 198.462 32 200.788C32 203.114 84.8304 205 150 205Z" fill="#3F3D56"/>
<path d="M229.518 107.28H70.4818C68.2206 107.28 66.3874 109.114 66.3874 111.376V194.637C66.3874 196.899 68.2206 198.733 70.4818 198.733H229.518C231.779 198.733 233.613 196.899 233.613 194.637V111.376C233.613 109.114 231.779 107.28 229.518 107.28Z" fill="white"/>
<path d="M233.613 111.376V113.698H66.3874V111.376C66.3874 110.289 66.8188 109.248 67.5866 108.48C68.3545 107.712 69.3959 107.28 70.4818 107.28H229.518C230.604 107.28 231.646 107.712 232.413 108.48C233.181 109.248 233.613 110.289 233.613 111.376Z" fill="#3F3D56"/>
<path d="M70.6984 111.793C71.3628 111.793 71.9015 111.254 71.9015 110.589C71.9015 109.925 71.3628 109.386 70.6984 109.386C70.034 109.386 69.4953 109.925 69.4953 110.589C69.4953 111.254 70.034 111.793 70.6984 111.793Z" fill="#2CB674"/>
<path d="M73.706 111.793C74.3705 111.793 74.9091 111.254 74.9091 110.589C74.9091 109.925 74.3705 109.386 73.706 109.386C73.0416 109.386 72.503 109.925 72.503 110.589C72.503 111.254 73.0416 111.793 73.706 111.793Z" fill="#2CB674"/>
<path d="M76.7137 111.793C77.3781 111.793 77.9167 111.254 77.9167 110.589C77.9167 109.925 77.3781 109.386 76.7137 109.386C76.0492 109.386 75.5106 109.925 75.5106 110.589C75.5106 111.254 76.0492 111.793 76.7137 111.793Z" fill="#2CB674"/>
<path d="M109.238 124.327H93.7149C92.6861 124.327 91.8522 125.162 91.8522 126.191V138.107C91.8522 139.136 92.6861 139.971 93.7149 139.971H109.238C110.267 139.971 111.101 139.136 111.101 138.107V126.191C111.101 125.162 110.267 124.327 109.238 124.327Z" fill="#F2F2F2"/>
<path d="M131.695 124.327H116.172C115.143 124.327 114.309 125.162 114.309 126.191V138.107C114.309 139.136 115.143 139.971 116.172 139.971H131.695C132.724 139.971 133.558 139.136 133.558 138.107V126.191C133.558 125.162 132.724 124.327 131.695 124.327Z" fill="#2CB674"/>
<path d="M154.153 124.327H138.629C137.6 124.327 136.766 125.162 136.766 126.191V138.107C136.766 139.136 137.6 139.971 138.629 139.971H154.153C155.181 139.971 156.015 139.136 156.015 138.107V126.191C156.015 125.162 155.181 124.327 154.153 124.327Z" fill="#F2F2F2"/>
<path d="M176.61 124.327H161.086C160.057 124.327 159.223 125.162 159.223 126.191V138.107C159.223 139.136 160.057 139.971 161.086 139.971H176.61C177.638 139.971 178.472 139.136 178.472 138.107V126.191C178.472 125.162 177.638 124.327 176.61 124.327Z" fill="#F2F2F2"/>
<path d="M199.067 124.327H183.543C182.515 124.327 181.681 125.162 181.681 126.191V138.107C181.681 139.136 182.515 139.971 183.543 139.971H199.067C200.096 139.971 200.929 139.136 200.929 138.107V126.191C200.929 125.162 200.096 124.327 199.067 124.327Z" fill="#2CB674"/>
<path d="M109.238 150.6H93.7149C92.6861 150.6 91.8522 151.434 91.8522 152.463V164.38C91.8522 165.409 92.6861 166.243 93.7149 166.243H109.238C110.267 166.243 111.101 165.409 111.101 164.38V152.463C111.101 151.434 110.267 150.6 109.238 150.6Z" fill="#F2F2F2"/>
<path d="M131.695 150.6H116.172C115.143 150.6 114.309 151.434 114.309 152.463V164.38C114.309 165.409 115.143 166.243 116.172 166.243H131.695C132.724 166.243 133.558 165.409 133.558 164.38V152.463C133.558 151.434 132.724 150.6 131.695 150.6Z" fill="#F2F2F2"/>
<path d="M154.153 150.6H138.629C137.6 150.6 136.766 151.434 136.766 152.463V164.38C136.766 165.409 137.6 166.243 138.629 166.243H154.153C155.181 166.243 156.015 165.409 156.015 164.38V152.463C156.015 151.434 155.181 150.6 154.153 150.6Z" fill="#2CB674"/>
<path d="M176.61 150.6H161.086C160.057 150.6 159.223 151.434 159.223 152.463V164.38C159.223 165.409 160.057 166.243 161.086 166.243H176.61C177.638 166.243 178.472 165.409 178.472 164.38V152.463C178.472 151.434 177.638 150.6 176.61 150.6Z" fill="#F2F2F2"/>
<path d="M199.067 150.6H183.543C182.515 150.6 181.681 151.434 181.681 152.463V164.38C181.681 165.409 182.515 166.243 183.543 166.243H199.067C200.096 166.243 200.929 165.409 200.929 164.38V152.463C200.929 151.434 200.096 150.6 199.067 150.6Z" fill="#F2F2F2"/>
<path d="M109.238 176.872H93.7149C92.6861 176.872 91.8522 177.707 91.8522 178.736V190.652C91.8522 191.681 92.6861 192.516 93.7149 192.516H109.238C110.267 192.516 111.101 191.681 111.101 190.652V178.736C111.101 177.707 110.267 176.872 109.238 176.872Z" fill="#F2F2F2"/>
<path d="M131.695 176.872H116.172C115.143 176.872 114.309 177.707 114.309 178.736V190.652C114.309 191.681 115.143 192.516 116.172 192.516H131.695C132.724 192.516 133.558 191.681 133.558 190.652V178.736C133.558 177.707 132.724 176.872 131.695 176.872Z" fill="#F2F2F2"/>
<path d="M154.153 176.872H138.629C137.6 176.872 136.766 177.707 136.766 178.736V190.652C136.766 191.681 137.6 192.516 138.629 192.516H154.153C155.181 192.516 156.015 191.681 156.015 190.652V178.736C156.015 177.707 155.181 176.872 154.153 176.872Z" fill="#F2F2F2"/>
<path opacity="0.3" d="M176.61 176.872H161.086C160.057 176.872 159.223 177.707 159.223 178.736V190.652C159.223 191.681 160.057 192.516 161.086 192.516H176.61C177.638 192.516 178.472 191.681 178.472 190.652V178.736C178.472 177.707 177.638 176.872 176.61 176.872Z" fill="#2CB674"/>
<path d="M199.067 176.872H183.543C182.515 176.872 181.681 177.707 181.681 178.736V190.652C181.681 191.681 182.515 192.516 183.543 192.516H199.067C200.096 192.516 200.929 191.681 200.929 190.652V178.736C200.929 177.707 200.096 176.872 199.067 176.872Z" fill="#F2F2F2"/>
<path d="M138.014 121.447L136.999 120.427C136.949 120.376 136.889 120.336 136.824 120.309C136.758 120.281 136.688 120.267 136.617 120.267C136.546 120.267 136.476 120.281 136.41 120.309C136.344 120.336 136.285 120.376 136.235 120.427L129.867 126.742L127.174 124.027C127.124 123.976 127.065 123.937 127 123.91C126.935 123.882 126.865 123.868 126.795 123.868C126.725 123.868 126.655 123.882 126.59 123.91C126.525 123.937 126.466 123.976 126.416 124.027L125.391 125.039C125.291 125.141 125.234 125.279 125.234 125.422C125.234 125.566 125.291 125.703 125.391 125.805L129.48 129.927C129.582 130.028 129.719 130.084 129.863 130.084C130.006 130.084 130.144 130.028 130.246 129.927L138.014 122.214C138.064 122.164 138.105 122.104 138.132 122.038C138.16 121.972 138.174 121.902 138.174 121.831C138.174 121.759 138.16 121.689 138.132 121.623C138.105 121.557 138.064 121.497 138.014 121.447Z" fill="#3ACC6C"/>
<path d="M206.187 121.447L205.172 120.427C205.122 120.376 205.063 120.336 204.997 120.309C204.932 120.281 204.861 120.267 204.79 120.267C204.719 120.267 204.649 120.281 204.583 120.309C204.518 120.336 204.458 120.376 204.408 120.427L198.04 126.742L195.347 124.027C195.298 123.976 195.239 123.937 195.174 123.91C195.109 123.882 195.039 123.868 194.968 123.868C194.898 123.868 194.828 123.882 194.763 123.91C194.698 123.937 194.639 123.976 194.589 124.027L193.565 125.039C193.464 125.141 193.408 125.279 193.408 125.422C193.408 125.566 193.464 125.703 193.565 125.805L197.653 129.927C197.755 130.028 197.893 130.084 198.036 130.084C198.179 130.084 198.317 130.028 198.419 129.927L206.187 122.214C206.238 122.164 206.278 122.104 206.306 122.038C206.333 121.972 206.347 121.902 206.347 121.831C206.347 121.759 206.333 121.689 206.306 121.623C206.278 121.557 206.238 121.497 206.187 121.447Z" fill="#3ACC6C"/>
<path d="M160.471 147.519L159.456 146.499C159.406 146.448 159.347 146.408 159.281 146.381C159.215 146.353 159.145 146.339 159.074 146.339C159.003 146.339 158.933 146.353 158.867 146.381C158.802 146.408 158.742 146.448 158.692 146.499L152.324 152.814L149.631 150.098C149.581 150.048 149.522 150.009 149.457 149.981C149.392 149.954 149.323 149.94 149.252 149.94C149.182 149.94 149.112 149.954 149.047 149.981C148.982 150.009 148.923 150.048 148.873 150.098L147.849 151.111C147.748 151.213 147.691 151.351 147.691 151.494C147.691 151.638 147.748 151.775 147.849 151.877L151.937 155.999C152.039 156.099 152.177 156.156 152.32 156.156C152.463 156.156 152.601 156.099 152.703 155.999L160.471 148.285C160.521 148.235 160.562 148.176 160.589 148.11C160.617 148.044 160.631 147.974 160.631 147.902C160.631 147.831 160.617 147.761 160.589 147.695C160.562 147.629 160.521 147.569 160.471 147.519Z" fill="#3ACC6C"/>
<path d="M182.727 174.795L181.713 173.774C181.663 173.723 181.603 173.683 181.538 173.656C181.472 173.628 181.402 173.614 181.331 173.614C181.26 173.614 181.189 173.628 181.124 173.656C181.058 173.683 180.999 173.723 180.949 173.774L174.58 180.089L171.888 177.374C171.838 177.324 171.779 177.284 171.714 177.257C171.649 177.23 171.579 177.216 171.509 177.216C171.438 177.216 171.368 177.23 171.303 177.257C171.238 177.284 171.179 177.324 171.13 177.374L170.105 178.377C170.004 178.479 169.948 178.616 169.948 178.76C169.948 178.903 170.004 179.041 170.105 179.143L174.194 183.264C174.296 183.365 174.433 183.421 174.576 183.421C174.72 183.421 174.857 183.365 174.959 183.264L182.727 175.551C182.827 175.45 182.883 175.314 182.883 175.173C182.883 175.031 182.827 174.895 182.727 174.795Z" fill="#3ACC6C"/>
<path d="M234.996 200.02C234.395 198.915 235.076 197.56 235.856 196.575C236.636 195.59 237.583 194.569 237.563 193.308C237.533 191.503 235.618 190.436 234.088 189.479C232.952 188.77 231.904 187.928 230.968 186.97C230.575 186.602 230.251 186.168 230.009 185.687C229.693 184.981 229.701 184.179 229.721 183.406C229.789 180.831 229.917 178.258 230.104 175.687" stroke="#3F3D56" stroke-width="4" stroke-miterlimit="10"/>
<path d="M227.196 175.547C227.218 175.075 227.357 174.617 227.603 174.214C227.848 173.811 228.191 173.476 228.6 173.24L229.229 174.488L229.209 172.978C229.511 172.889 229.824 172.851 230.138 172.865C230.692 172.892 231.225 173.083 231.671 173.413C232.117 173.743 232.455 174.198 232.642 174.72C232.83 175.242 232.859 175.808 232.725 176.346C232.592 176.885 232.301 177.371 231.892 177.745C231.482 178.119 230.97 178.362 230.422 178.446C229.874 178.529 229.313 178.448 228.811 178.213C228.308 177.978 227.887 177.599 227.6 177.124C227.312 176.65 227.172 176.101 227.196 175.547Z" fill="#57B894"/>
<path d="M232.209 194.597C232.504 195.17 232.987 195.623 233.577 195.881C234.166 196.14 234.827 196.188 235.448 196.017C236.068 195.847 236.612 195.468 236.986 194.944C237.361 194.421 237.544 193.784 237.506 193.141C237.467 192.499 237.209 191.889 236.774 191.414C236.339 190.939 235.754 190.628 235.118 190.533C234.481 190.438 233.831 190.565 233.276 190.892C232.722 191.22 232.297 191.728 232.073 192.331L233.831 193.761L231.896 193.314C231.897 193.76 232.004 194.2 232.209 194.597Z" fill="#57B894"/>
<path d="M233.613 189.132C234.304 189.168 234.985 188.947 235.523 188.511C236.062 188.075 236.42 187.456 236.53 186.772C236.639 186.088 236.492 185.388 236.116 184.806C235.741 184.224 235.163 183.801 234.495 183.619L234.511 184.778L233.873 183.517C233.504 183.499 233.135 183.554 232.787 183.679C232.439 183.804 232.119 183.996 231.846 184.245C231.573 184.494 231.351 184.795 231.194 185.13C231.037 185.464 230.948 185.827 230.932 186.196C230.915 186.521 230.956 186.846 231.052 187.157C231.223 187.71 231.561 188.197 232.019 188.55C232.478 188.904 233.034 189.107 233.613 189.132Z" fill="#57B894"/>
<path d="M226.771 184.586C227.203 184.602 227.633 184.517 228.027 184.34C228.421 184.162 228.769 183.896 229.043 183.562C229.318 183.228 229.511 182.835 229.609 182.414C229.707 181.993 229.706 181.555 229.606 181.134C229.507 180.713 229.311 180.321 229.036 179.988C228.76 179.655 228.411 179.391 228.016 179.215C227.621 179.039 227.191 178.957 226.759 178.974C226.327 178.992 225.905 179.109 225.526 179.317L226.023 180.681L225.001 179.698C224.453 180.2 224.126 180.899 224.092 181.642C224.079 181.902 224.103 182.164 224.163 182.418C224.301 183.014 224.632 183.549 225.103 183.94C225.573 184.332 226.159 184.558 226.771 184.586Z" fill="#57B894"/>
<path opacity="0.1" d="M227.573 176.297C228.223 176.367 228.854 176.57 229.506 176.61C230.158 176.65 230.874 176.495 231.287 175.988C231.507 175.715 231.62 175.37 231.806 175.071C231.984 174.794 232.228 174.564 232.516 174.404C232.686 174.759 232.779 175.145 232.79 175.539C232.8 175.932 232.728 176.323 232.578 176.687C232.428 177.051 232.203 177.379 231.918 177.65C231.633 177.921 231.294 178.129 230.923 178.261C230.552 178.393 230.158 178.445 229.766 178.415C229.374 178.384 228.992 178.271 228.646 178.084C228.3 177.896 227.998 177.638 227.758 177.326C227.518 177.014 227.347 176.655 227.254 176.273C227.361 176.277 227.468 176.285 227.573 176.297Z" fill="black"/>
<path opacity="0.1" d="M226.771 184.586C227.257 184.61 227.74 184.508 228.174 184.29C228.608 184.072 228.978 183.745 229.248 183.34C229.518 182.936 229.678 182.469 229.713 181.984C229.748 181.499 229.657 181.013 229.448 180.575C229.225 180.725 229.033 180.917 228.883 181.14C228.682 181.443 228.56 181.794 228.325 182.071C227.886 182.586 227.138 182.755 226.458 182.725C225.779 182.694 225.123 182.5 224.453 182.438C224.359 182.438 224.265 182.424 224.169 182.422C224.308 183.016 224.637 183.55 225.107 183.94C225.577 184.331 226.161 184.557 226.771 184.586Z" fill="black"/>
<path opacity="0.1" d="M233.613 189.132C234.093 189.157 234.572 189.057 235.004 188.843C235.435 188.628 235.804 188.307 236.075 187.909C236.346 187.511 236.51 187.05 236.551 186.57C236.593 186.09 236.51 185.608 236.311 185.169C236.078 185.322 235.874 185.516 235.71 185.741C235.491 186.05 235.355 186.405 235.108 186.69C234.633 187.219 233.835 187.405 233.117 187.389C232.399 187.373 231.748 187.203 231.056 187.149C231.226 187.703 231.562 188.191 232.02 188.546C232.478 188.901 233.034 189.106 233.613 189.132Z" fill="black"/>
<path opacity="0.1" d="M232.209 194.597C232.513 195.278 233.076 195.81 233.772 196.075C234.469 196.341 235.242 196.32 235.922 196.015C236.603 195.711 237.134 195.148 237.4 194.452C237.666 193.755 237.645 192.981 237.34 192.301C237.107 192.452 236.899 192.638 236.723 192.852C236.454 193.177 236.277 193.548 235.969 193.855C235.393 194.421 234.465 194.657 233.637 194.675C233.16 194.678 232.683 194.652 232.209 194.597Z" fill="black"/>
<path d="M239.241 198.747C239.241 198.747 237.019 198.679 236.35 198.201C235.68 197.724 232.941 197.156 232.768 197.92C232.596 198.685 229.43 201.731 231.936 201.743C234.443 201.755 237.763 201.342 238.433 200.941C239.103 200.54 239.241 198.747 239.241 198.747Z" fill="#656380"/>
<path opacity="0.2" d="M231.892 201.478C234.401 201.498 237.719 201.087 238.387 200.676C238.896 200.365 239.098 199.254 239.167 198.741H239.241C239.241 198.741 239.1 200.534 238.439 200.947C237.777 201.36 234.451 201.765 231.942 201.749C231.218 201.749 230.97 201.486 230.984 201.105C231.078 201.33 231.353 201.468 231.892 201.478Z" fill="black"/>
<path d="M68.9519 199.034C68.0717 197.405 69.0703 195.408 70.2172 193.954C71.3641 192.5 72.7636 190.989 72.7356 189.14C72.6915 186.479 69.8683 184.909 67.6105 183.497C65.9366 182.45 64.3926 181.209 63.0108 179.799C62.436 179.254 61.961 178.614 61.6073 177.905C61.1401 176.864 61.1541 175.681 61.1842 174.54C61.2804 170.743 61.4676 166.949 61.7456 163.159" stroke="#3F3D56" stroke-width="4" stroke-miterlimit="10"/>
<path d="M57.4467 162.948C57.4776 162.251 57.6835 161.574 58.0456 160.978C58.4076 160.382 58.914 159.887 59.518 159.539L60.4483 161.378L60.4203 159.152C61.2643 158.903 62.1655 158.929 62.9937 159.226C63.8219 159.523 64.5344 160.076 65.0281 160.804C65.5219 161.533 65.7714 162.399 65.7407 163.279C65.7101 164.158 65.4007 165.005 64.8574 165.697C64.3141 166.39 63.5649 166.891 62.7179 167.13C61.871 167.368 60.9702 167.332 60.1456 167.025C59.3209 166.718 58.6151 166.157 58.13 165.423C57.6449 164.688 57.4056 163.819 57.4467 162.94V162.948Z" fill="#57B894"/>
<path d="M64.8475 191.04C65.2829 191.886 65.9961 192.557 66.8674 192.94C67.7388 193.323 68.7153 193.395 69.6332 193.143C70.5512 192.892 71.3547 192.332 71.909 191.558C72.4633 190.784 72.7347 189.843 72.6777 188.893C72.6206 187.942 72.2387 187.041 71.5958 186.339C70.9529 185.637 70.0882 185.177 69.1468 185.037C68.2054 184.897 67.2444 185.085 66.4251 185.57C65.6058 186.054 64.978 186.806 64.647 187.698L67.2376 189.806L64.3823 189.146C64.3842 189.805 64.5437 190.455 64.8475 191.04Z" fill="#57B894"/>
<path d="M66.8967 182.981C67.914 183.027 68.9127 182.698 69.7028 182.055C70.4929 181.412 71.0192 180.502 71.1816 179.496C71.3441 178.491 71.1313 177.461 70.5837 176.602C70.0362 175.743 69.1921 175.116 68.2121 174.839L68.2341 176.547L67.2937 174.688H67.2837C66.7343 174.654 66.1836 174.73 65.6636 174.91C65.1436 175.091 64.6648 175.373 64.2549 175.741C63.8451 176.109 63.5124 176.554 63.2764 177.051C63.0403 177.549 62.9055 178.088 62.8798 178.638C62.8542 179.188 62.9382 179.738 63.1269 180.255C63.3156 180.772 63.6053 181.247 63.9791 181.651C64.353 182.055 64.8034 182.381 65.3043 182.609C65.8052 182.838 66.3465 182.964 66.8967 182.981Z" fill="#57B894"/>
<path d="M56.8231 176.277C57.9224 176.327 58.9968 175.939 59.8104 175.198C60.624 174.457 61.1102 173.423 61.1621 172.324C61.1936 171.645 61.0558 170.969 60.7611 170.356C60.5185 169.841 60.1723 169.381 59.7442 169.006C59.3161 168.63 58.8153 168.347 58.2729 168.174C57.7305 168.001 57.1582 167.941 56.5917 167.999C56.0253 168.056 55.4768 168.23 54.9804 168.509L55.7123 170.515L54.2045 169.067C53.6008 169.621 53.1745 170.341 52.9793 171.137C52.7841 171.932 52.8286 172.768 53.1073 173.538C53.386 174.309 53.8864 174.98 54.5455 175.466C55.2046 175.953 55.9929 176.233 56.8111 176.273L56.8231 176.277Z" fill="#57B894"/>
<path opacity="0.1" d="M58.0061 164.053C58.9625 164.159 59.8949 164.454 60.8554 164.516C61.8158 164.578 62.8725 164.346 63.48 163.598C63.8069 163.197 63.9713 162.687 64.248 162.248C64.5102 161.839 64.8689 161.501 65.2926 161.263C65.5599 161.79 65.7118 162.367 65.7384 162.956C65.7651 163.546 65.6657 164.134 65.4469 164.682C65.2282 165.231 64.8951 165.726 64.4699 166.135C64.0447 166.544 63.5372 166.858 62.9811 167.056C62.4251 167.253 61.8333 167.33 61.2453 167.28C60.6573 167.231 60.0866 167.057 59.5712 166.77C59.0558 166.482 58.6076 166.088 58.2565 165.614C57.9053 165.14 57.6594 164.596 57.5349 164.019C57.6913 164.025 57.8497 164.037 58.0061 164.053Z" fill="black"/>
<path opacity="0.1" d="M56.8231 176.277C57.9224 176.327 58.9968 175.94 59.8104 175.198C60.624 174.457 61.1102 173.423 61.1621 172.324C61.1936 171.645 61.0558 170.969 60.7611 170.356C60.432 170.578 60.1488 170.862 59.927 171.191C59.6322 171.638 59.4518 172.153 59.1049 172.563C58.4593 173.323 57.3545 173.565 56.3539 173.525C55.3534 173.485 54.3849 173.196 53.3884 173.104C53.25 173.092 53.1097 173.082 52.9693 173.078C53.1755 173.958 53.6636 174.747 54.3592 175.325C55.0548 175.902 55.92 176.236 56.8231 176.277Z" fill="black"/>
<path opacity="0.1" d="M66.8967 182.981C67.605 183.015 68.31 182.866 68.9444 182.549C69.5789 182.233 70.1216 181.759 70.5207 181.172C70.9199 180.586 71.1623 179.908 71.2246 179.201C71.2869 178.495 71.1672 177.784 70.8768 177.137C70.5356 177.363 70.2387 177.649 70.0006 177.981C69.6778 178.437 69.4773 178.96 69.0983 179.385C68.3985 180.165 67.2215 180.44 66.1608 180.416C65.1342 180.392 64.1437 180.141 63.1231 180.063C63.3761 180.878 63.874 181.596 64.5493 182.118C65.2245 182.64 66.0442 182.942 66.8967 182.981Z" fill="black"/>
<path opacity="0.1" d="M64.8475 191.039C65.3336 191.983 66.1627 192.705 67.1644 193.056C68.1662 193.407 69.2643 193.361 70.2332 192.927C71.202 192.494 71.9678 191.705 72.3732 190.724C72.7786 189.743 72.7928 188.643 72.4127 187.652C72.0713 187.874 71.764 188.144 71.5004 188.454C71.0994 188.936 70.8468 189.481 70.3896 189.93C69.5414 190.763 68.172 191.106 66.9529 191.134C66.2498 191.144 65.5468 191.112 64.8475 191.039Z" fill="black"/>
<path d="M75.2099 197.158C75.2099 197.158 71.9355 197.058 70.947 196.356C69.9585 195.654 65.9102 194.814 65.6656 195.941C65.421 197.068 60.7431 201.557 64.4405 201.579C68.1379 201.601 73.0323 201.003 74.0168 200.401C75.0013 199.8 75.2099 197.158 75.2099 197.158Z" fill="#656380"/>
<path opacity="0.2" d="M64.3823 201.183C68.0797 201.213 72.9742 200.608 73.9587 200.008C74.7086 199.551 75.0093 197.91 75.1076 197.154H75.2179C75.2179 197.154 75.0174 199.796 74.0248 200.395C73.0323 200.995 68.1459 201.599 64.4485 201.572C63.3818 201.572 63.0128 201.183 63.0329 200.622C63.1793 200.965 63.5803 201.177 64.3823 201.183Z" fill="black"/>
<path d="M204.691 189.034C204.657 189.118 204.636 189.207 204.627 189.297C204.308 191.396 202.473 192.947 201.804 194.962C201.374 196.273 201.459 197.697 202.04 198.947C202.145 199.122 202.207 199.319 202.223 199.523C202.223 199.723 202.062 199.942 201.86 199.924C201.375 199.892 200.992 199.523 200.587 199.262C200.08 198.95 199.64 198.541 199.291 198.059C199.118 197.817 198.996 197.542 198.93 197.252C198.864 196.962 198.857 196.661 198.908 196.368C199.149 195.273 199.985 194.296 200.246 193.205L200.929 190.376C201.023 189.842 201.213 189.33 201.491 188.865C201.598 188.682 201.765 188.54 201.964 188.464C202.081 188.436 202.201 188.426 202.321 188.436C203.113 188.47 203.937 188.767 204.691 189.034Z" fill="#FFC1C7"/>
<path d="M201.882 198.614C201.954 198.599 202.029 198.604 202.098 198.63C202.19 198.693 202.26 198.783 202.299 198.887C202.515 199.288 202.843 199.618 203.243 199.836C203.405 199.908 203.56 199.995 203.705 200.096C203.777 200.148 203.835 200.217 203.874 200.297C203.912 200.377 203.931 200.465 203.927 200.554C203.895 200.816 203.608 200.955 203.356 201.033C202.813 201.192 202.245 201.241 201.683 201.179C201.473 201.167 201.268 201.11 201.082 201.011C200.9 200.885 200.742 200.726 200.619 200.542C200.179 199.934 199.683 199.371 199.135 198.859C198.856 198.639 198.596 198.397 198.357 198.135C198.238 198.003 198.148 197.848 198.092 197.68C198.035 197.511 198.014 197.333 198.03 197.156C198.108 196.635 198.602 196.294 198.912 195.867C199.412 196.509 199.915 197.16 200.22 197.914C200.32 198.218 200.445 198.512 200.593 198.795C200.735 199.03 200.94 199.3 201.194 199.148C201.449 198.995 201.511 198.679 201.882 198.614Z" fill="#FF6584"/>
<path d="M207.909 173.646C208.059 174.022 208.12 174.429 208.088 174.833L208.07 177.827C208.081 178.409 208.05 178.992 207.977 179.57C207.819 180.611 207.392 181.595 207.205 182.632C207.029 183.605 207.063 184.616 206.776 185.562C206.331 187.028 205.152 188.19 204.737 189.666C204.722 189.755 204.681 189.838 204.619 189.904C204.57 189.943 204.512 189.968 204.45 189.977C204.118 190.007 203.784 189.945 203.486 189.796L201.331 188.95C201.182 189.014 201.08 188.843 201.088 188.679C201.113 188.518 201.188 188.368 201.302 188.252C201.565 187.917 201.797 187.559 201.996 187.183C202.598 185.978 202.939 184.66 202.999 183.314C203.053 181.976 203.014 180.636 202.88 179.303C202.807 178.338 202.733 177.374 202.66 176.411C202.626 175.952 202.6 175.454 202.86 175.071C203.121 174.688 203.564 174.53 203.991 174.398C205.266 174.005 206.58 173.753 207.909 173.646Z" fill="#3C354C"/>
<path opacity="0.1" d="M207.909 173.646C208.059 174.022 208.12 174.429 208.088 174.833L208.07 177.827C208.081 178.409 208.05 178.992 207.977 179.57C207.819 180.611 207.392 181.595 207.205 182.632C207.029 183.605 207.063 184.616 206.776 185.562C206.331 187.028 205.152 188.19 204.737 189.666C204.722 189.755 204.681 189.838 204.619 189.904C204.57 189.943 204.512 189.968 204.45 189.977C204.118 190.007 203.784 189.945 203.486 189.796L201.331 188.95C201.182 189.014 201.08 188.843 201.088 188.679C201.113 188.518 201.188 188.368 201.302 188.252C201.565 187.917 201.797 187.559 201.996 187.183C202.598 185.978 202.939 184.66 202.999 183.314C203.053 181.976 203.014 180.636 202.88 179.303C202.807 178.338 202.733 177.374 202.66 176.411C202.626 175.952 202.6 175.454 202.86 175.071C203.121 174.688 203.564 174.53 203.991 174.398C205.266 174.005 206.58 173.753 207.909 173.646Z" fill="black"/>
<path d="M212.629 178.182C212.332 178.612 212.09 179.078 211.909 179.568C211.799 179.937 211.718 180.313 211.667 180.695C211.386 182.466 211.103 184.253 211.212 186.042C211.037 186.083 210.855 186.082 210.68 186.039C210.506 185.996 210.344 185.911 210.209 185.793C209.939 185.554 209.717 185.266 209.553 184.945C209.35 184.597 209.17 184.237 209.014 183.866C208.67 183.032 208.496 182.138 208.503 181.236C208.497 181.163 208.51 181.089 208.539 181.022C208.567 180.974 208.603 180.931 208.645 180.895C209.822 179.78 210.5 178.25 211.147 176.764C211.38 176.278 211.56 175.769 211.685 175.246C211.791 174.716 211.799 174.131 212.134 173.708C212.435 173.331 212.936 173.172 213.405 173.106C213.746 173.045 214.097 173.06 214.432 173.148C214.797 173.26 215.661 173.688 215.711 174.119C215.761 174.55 214.991 175.101 214.741 175.388C213.971 176.268 213.265 177.201 212.629 178.182Z" fill="#FFC1C7"/>
<path d="M211.913 186.026C212.17 186.457 212.529 186.938 212.347 187.403C212.164 187.869 211.496 187.973 211.095 187.686C210.98 187.598 210.875 187.497 210.783 187.385C209.675 186.149 208.669 184.825 207.775 183.426C207.442 182.907 207.117 182.354 207.061 181.74C207.051 181.672 207.06 181.602 207.089 181.539C207.128 181.482 207.182 181.436 207.246 181.407C207.793 181.097 208.376 180.855 208.982 180.685C208.967 181.372 209.145 182.049 209.495 182.64C209.751 183.069 209.973 183.516 210.157 183.98C210.293 184.317 210.434 184.343 210.785 184.347C211.067 184.347 211.27 184.313 211.406 184.6C211.623 185.049 211.639 185.564 211.913 186.026Z" fill="#FF6584"/>
<path d="M204.398 168.577C206.977 168.618 209.551 168.798 212.124 168.979L213.796 169.097C214.289 169.111 214.778 169.184 215.254 169.314C215.707 169.477 216.14 169.692 216.545 169.953C216.684 170.024 216.807 170.122 216.906 170.242C216.983 170.364 217.035 170.501 217.058 170.643C217.153 170.942 217.185 171.258 217.153 171.57C217.103 171.793 217.02 172.007 216.906 172.205L215.735 174.52C215.36 174.398 215.069 174.153 214.702 174.008C214.261 173.859 213.801 173.772 213.335 173.748L212.116 173.627C212.076 173.554 212.064 173.468 212.082 173.387C211.011 173.76 209.944 174.107 208.874 174.48C206.909 175.164 204.94 175.85 203.047 176.716C202.766 176.844 202.445 176.979 202.159 176.87C202.055 176.826 201.961 176.764 201.88 176.686C201.411 176.24 201.107 175.648 201.018 175.007C200.929 174.371 200.938 173.725 201.046 173.092C201.226 171.786 201.621 170.421 202.62 169.56C203.147 169.093 203.701 168.559 204.398 168.577Z" fill="#3C354C"/>
<path opacity="0.1" d="M214.656 170.832C214.08 171.112 213.526 171.436 213 171.802C212.921 171.854 212.848 171.914 212.782 171.981C212.733 172.037 212.688 172.096 212.647 172.157C212.388 172.493 212.196 172.876 212.082 173.285" stroke="black" stroke-miterlimit="10"/>
<path d="M188.117 167.705C187.756 168.008 187.543 168.445 187.289 168.842C186.677 169.805 185.799 170.579 185.195 171.548C184.937 171.965 184.722 172.426 184.353 172.751C183.912 173.152 183.303 173.291 182.713 173.337C182.182 173.375 181.62 173.349 181.151 173.603C180.75 173.824 180.469 174.223 180.213 174.606V174.618C180.159 174.698 180.133 174.793 180.137 174.89C180.141 174.986 180.176 175.078 180.237 175.154C180.297 175.229 180.38 175.283 180.473 175.308C180.566 175.332 180.664 175.327 180.754 175.292C181.185 175.125 181.63 174.996 182.084 174.905C182.484 174.844 182.879 174.754 183.267 174.636C183.639 174.487 183.994 174.298 184.325 174.073C184.617 173.899 184.895 173.704 185.157 173.489C185.48 173.214 185.759 172.887 186.064 172.597C186.51 172.229 186.979 171.888 187.467 171.578C188.751 170.679 189.821 169.509 190.603 168.15C190.697 168.017 190.747 167.858 190.746 167.695C190.717 167.545 190.648 167.407 190.545 167.294C190.19 166.843 189.867 166.474 189.374 166.893C188.985 167.216 188.498 167.374 188.117 167.705Z" fill="#FFC1C7"/>
<path d="M198.205 157.932C198.209 158.06 198.254 158.184 198.333 158.285C198.465 158.419 198.684 158.391 198.872 158.379C199.13 158.354 199.39 158.384 199.634 158.469C199.879 158.554 200.102 158.691 200.288 158.871C200.631 159.23 200.765 159.737 200.845 160.228C200.936 160.637 200.923 161.061 200.809 161.464C200.619 161.929 200.252 162.3 199.789 162.495C199.33 162.687 198.844 162.806 198.349 162.848C197.938 162.92 197.517 162.92 197.106 162.848C196.619 162.735 196.195 162.447 195.756 162.204C195.449 162.057 195.152 161.89 194.868 161.702C194.582 161.511 194.375 161.222 194.289 160.888C194.263 160.804 194.264 160.714 194.29 160.63C194.316 160.546 194.366 160.472 194.435 160.417C194.506 160.384 194.582 160.361 194.66 160.349C194.823 160.307 194.972 160.223 195.092 160.105C195.212 159.987 195.299 159.839 195.343 159.677C195.478 159.157 195.155 158.634 195.123 158.099C195.107 157.943 195.14 157.787 195.217 157.651C195.333 157.503 195.49 157.392 195.668 157.33L196.671 156.881C196.973 156.715 197.289 156.574 197.615 156.462C197.934 156.38 197.956 156.6 198.016 156.863C198.09 157.222 198.156 157.577 198.205 157.932Z" fill="#FFC1C7"/>
<path opacity="0.1" d="M198.205 157.932C198.209 158.06 198.254 158.184 198.333 158.285C198.465 158.419 198.684 158.391 198.872 158.379C199.13 158.354 199.39 158.384 199.634 158.469C199.879 158.554 200.102 158.691 200.288 158.871C200.631 159.23 200.765 159.737 200.845 160.228C200.936 160.637 200.923 161.061 200.809 161.464C200.619 161.929 200.252 162.3 199.789 162.495C199.33 162.687 198.844 162.806 198.349 162.848C197.938 162.92 197.517 162.92 197.106 162.848C196.619 162.735 196.195 162.447 195.756 162.204C195.449 162.057 195.152 161.89 194.868 161.702C194.582 161.511 194.375 161.222 194.289 160.888C194.263 160.804 194.264 160.714 194.29 160.63C194.316 160.546 194.366 160.472 194.435 160.417C194.506 160.384 194.582 160.361 194.66 160.349C194.823 160.307 194.972 160.223 195.092 160.105C195.212 159.987 195.299 159.839 195.343 159.677C195.478 159.157 195.155 158.634 195.123 158.099C195.107 157.943 195.14 157.787 195.217 157.651C195.333 157.503 195.49 157.392 195.668 157.33L196.671 156.881C196.973 156.715 197.289 156.574 197.615 156.462C197.934 156.38 197.956 156.6 198.016 156.863C198.09 157.222 198.156 157.577 198.205 157.932Z" fill="black"/>
<path d="M195.596 158.77C196.977 158.77 198.096 157.651 198.096 156.27C198.096 154.888 196.977 153.769 195.596 153.769C194.215 153.769 193.096 154.888 193.096 156.27C193.096 157.651 194.215 158.77 195.596 158.77Z" fill="#FFC1C7"/>
<path d="M198.501 158.55C198.872 158.382 199.27 158.282 199.676 158.253C199.879 158.241 200.083 158.273 200.272 158.348C200.461 158.423 200.631 158.538 200.771 158.686C201.006 158.961 201.084 159.332 201.27 159.639C201.639 160.241 202.359 160.515 202.935 160.926C203.07 161.015 203.187 161.13 203.279 161.263C203.48 161.568 203.426 161.959 203.422 162.32C203.441 163.214 203.695 164.087 204.158 164.851C204.621 165.613 205.151 166.332 205.742 166.999C205.881 167.152 205.997 167.324 206.087 167.511C206.227 167.848 206.187 168.255 206.395 168.553C205.894 168.491 205.384 168.56 204.918 168.754C204.194 169.053 204.16 170.112 203.819 170.818C203.189 172.123 202.315 173.293 201.483 174.48C201.264 174.763 201.078 175.071 200.929 175.396C200.781 175.081 200.883 174.706 200.865 174.359C200.825 173.583 200.376 172.887 200.25 172.121C200.207 171.738 200.185 171.352 200.184 170.966C200.15 170.382 200.023 169.806 199.809 169.261C199.561 168.68 199.263 168.121 198.918 167.591C198.757 167.276 198.528 167.002 198.247 166.789C197.914 166.572 197.455 166.51 197.244 166.173C197.193 166.056 197.126 165.946 197.044 165.848C196.974 165.795 196.895 165.755 196.811 165.73C196.401 165.537 196.005 165.317 195.624 165.072C195.223 164.853 194.768 164.691 194.325 164.789C193.503 165.743 192.573 166.596 191.552 167.332C191.235 167.565 190.894 167.803 190.738 168.164C190.238 167.925 189.791 167.591 189.42 167.18C189.361 167.122 189.314 167.054 189.28 166.979C189.178 166.686 189.48 166.424 189.721 166.239C190.622 165.56 191.312 164.64 191.714 163.586C191.973 162.906 192.143 162.124 192.733 161.697C192.919 161.589 193.096 161.465 193.26 161.326C193.405 161.125 193.539 160.916 193.661 160.7C193.789 160.534 193.962 160.41 194.16 160.343C194.358 160.276 194.572 160.269 194.774 160.323C195.003 160.412 195.225 160.519 195.438 160.642C195.993 160.892 196.631 160.842 197.242 160.774L199.59 160.535C199.629 160.404 199.633 160.265 199.603 160.132C199.573 159.998 199.509 159.875 199.418 159.773C199.321 159.682 199.217 159.6 199.107 159.527C198.799 159.28 198.586 158.935 198.501 158.55Z" fill="#FF6584"/>
<path d="M196.919 151.948C197.203 152.053 197.462 152.217 197.679 152.43C197.895 152.642 198.065 152.897 198.176 153.179C198.247 153.42 198.335 153.655 198.441 153.883C198.628 154.15 198.847 154.394 199.093 154.609C199.317 154.848 199.51 155.158 199.458 155.481C199.438 155.602 199.386 155.714 199.37 155.832C199.299 156.352 199.889 156.709 200.069 157.2C200.304 157.846 199.793 158.616 200.105 159.226C200.224 159.454 200.438 159.627 200.573 159.827C200.707 160.028 200.721 160.389 200.494 160.511C200.141 160.702 199.732 160.144 199.357 160.291C199.261 160.329 199.187 160.411 199.093 160.453C198.83 160.571 198.523 160.339 198.437 160.064C198.382 159.781 198.388 159.49 198.453 159.21C198.485 159.069 198.487 158.924 198.46 158.783C198.432 158.641 198.375 158.507 198.293 158.389C198.14 158.215 197.892 158.147 197.733 157.988C197.445 157.695 197.499 157.224 197.533 156.815C197.595 155.989 197.447 155.084 196.855 154.503C196.842 154.486 196.826 154.472 196.808 154.462C196.79 154.452 196.77 154.446 196.749 154.444C196.706 154.452 196.668 154.476 196.643 154.511C196.373 154.793 196.072 155.043 195.744 155.255C195.652 155.326 195.54 155.366 195.423 155.371C195.309 155.371 195.195 155.255 195.223 155.144C194.939 155.276 194.684 155.463 194.473 155.694C194.427 155.585 194.407 155.467 194.413 155.349C194.303 155.568 194.168 155.774 194.012 155.963C193.852 156.134 193.705 156.316 193.571 156.508C193.505 156.605 193.46 156.714 193.441 156.83C193.421 156.945 193.427 157.063 193.458 157.176C193.683 157.82 194.828 157.671 195.077 158.307C195.131 158.45 195.129 158.606 195.185 158.746C195.295 159.019 195.586 159.147 195.827 159.328C196.067 159.508 196.276 159.815 196.131 160.07C196.005 160.289 195.71 160.313 195.466 160.369C195.256 160.421 195.06 160.514 194.888 160.644C194.715 160.773 194.571 160.936 194.463 161.123C194.406 161.26 194.317 161.381 194.204 161.478C194.103 161.53 193.991 161.557 193.878 161.558C193.537 161.586 193.146 161.594 192.911 161.358C192.596 161.027 192.745 160.425 192.424 160.1C192.35 160.028 192.257 159.976 192.187 159.9C192.114 159.805 192.061 159.697 192.03 159.582C191.999 159.466 191.992 159.346 192.009 159.228C192.041 158.56 192.288 157.906 192.249 157.238C192.19 156.796 192.105 156.358 191.995 155.927C191.897 155.423 191.91 154.903 192.033 154.405C192.156 153.906 192.387 153.441 192.709 153.041C193.254 152.401 193.966 152.15 194.772 152.038C195.49 151.932 196.183 151.681 196.919 151.948Z" fill="#3C354C"/>
</svg>
