<svg width="300" height="300" viewBox="0 0 300 300" fill="none" xmlns="http://www.w3.org/2000/svg">
<circle r="35" transform="matrix(-1 0 0 1 265 35)" fill="#F3ECAA"/>
<circle cx="150" cy="150" r="150" fill="#F2FCF5"/>
<circle r="34.25" transform="matrix(-1 0 0 1 35 265)" stroke="#F3ECAA" stroke-width="1.5"/>
<g clip-path="url(#clip0)">
<path d="M78.5956 223.586C71.4666 227.435 68.4063 235.604 68.4063 235.604C68.4063 235.604 76.9043 237.533 84.0333 233.683C91.1623 229.834 94.2227 221.665 94.2227 221.665C94.2227 221.665 85.7246 219.736 78.5956 223.586Z" fill="#F2F2F2"/>
<path d="M80.941 226.231C76.7656 233.181 68.472 235.857 68.472 235.857C68.472 235.857 66.9482 227.266 71.1236 220.317C75.299 213.368 83.5925 210.691 83.5925 210.691C83.5925 210.691 85.1164 219.282 80.941 226.231Z" fill="#F2F2F2"/>
<path d="M212.886 68.3722H187.591V83.3689H212.886V68.3722Z" fill="#2F2E41"/>
<path d="M162.532 70.7903H149.491V66.2367C149.491 64.505 150.178 62.8442 151.401 61.6198C152.623 60.3953 154.282 59.7074 156.011 59.7074C157.741 59.7074 159.399 60.3953 160.622 61.6198C161.845 62.8442 162.532 64.505 162.532 66.2367V70.7903ZM149.779 70.5012H162.243V66.2367C162.243 64.5817 161.587 62.9945 160.418 61.8242C159.249 60.654 157.664 59.9965 156.011 59.9965C154.359 59.9965 152.773 60.654 151.605 61.8242C150.436 62.9945 149.779 64.5817 149.779 66.2367V70.5012Z" fill="#3F3D56"/>
<path d="M168.981 70.164V68.3844L135.815 69.2742L134.765 114.351L139.674 120.422L168.981 70.164Z" fill="#3F3D56"/>
<path d="M174.852 69.5375L138.904 70.3566L139.674 120.422L174.365 116.678L174.852 69.5375Z" fill="#2CB674"/>
<path d="M205.415 231.746H201.334L199.393 215.987H205.415L205.415 231.746Z" fill="#FFB6B6"/>
<path d="M206.455 235.707L193.298 235.706V235.539C193.299 234.18 193.838 232.875 194.798 231.914C195.759 230.952 197.061 230.412 198.419 230.412H198.42L206.455 230.412L206.455 235.707Z" fill="#2F2E41"/>
<path d="M190.438 231.746H186.357L184.416 215.987H190.438L190.438 231.746Z" fill="#FFB6B6"/>
<path d="M191.478 235.707L178.321 235.706V235.539C178.322 234.18 178.861 232.875 179.821 231.914C180.782 230.952 182.084 230.412 183.442 230.412H183.443L191.478 230.412L191.478 235.707Z" fill="#2F2E41"/>
<path d="M178.455 133.069C178.455 133.069 172.493 145.925 177.879 171.801C183.265 197.677 183.309 226.085 183.309 226.085L191.544 226.219L196.171 165.06L198.593 225.356H206.706L213.857 166.013C213.857 166.013 218.562 139.514 208.069 134.77L178.455 133.069Z" fill="#2F2E41"/>
<path d="M206.991 87.7012L188.959 86.0369C183.305 90.1638 180.131 97.576 180.783 105.224C181.666 115.593 181.367 129.863 174.278 136.063C174.278 136.063 193.599 151.331 210.761 136.846C210.761 136.846 204.892 121.103 208.921 114.817C212.951 108.53 214.404 90.8672 206.991 87.7012Z" fill="#F2F2F2"/>
<path d="M153.338 62.0791C153.283 62.5995 153.342 63.1258 153.512 63.6208C153.682 64.1158 153.958 64.5675 154.321 64.9441C154.684 65.3207 155.125 65.613 155.613 65.8004C156.101 65.9879 156.624 66.0659 157.145 66.029L180.953 88.2767L185.22 81.7682L160.476 61.946C160.356 61.073 159.921 60.2745 159.252 59.7016C158.583 59.1287 157.728 58.8214 156.848 58.8378C155.968 58.8542 155.125 59.1932 154.478 59.7906C153.831 60.388 153.425 61.2022 153.338 62.0791Z" fill="#FFB6B6"/>
<path d="M176.507 84.8397L182.155 79.0304C182.316 78.8651 182.51 78.7365 182.725 78.6532C182.94 78.5699 183.17 78.534 183.4 78.5478C183.63 78.5617 183.855 78.625 184.058 78.7335C184.261 78.8419 184.439 78.993 184.579 79.1764L189.475 85.6025C190.315 86.4306 190.792 87.5583 190.803 88.7385C190.814 89.9186 190.357 91.0549 189.532 91.8981C188.707 92.7413 187.583 93.2227 186.404 93.2368C185.225 93.2508 184.089 92.7964 183.245 91.9731L176.718 87.2613C176.531 87.1264 176.376 86.9527 176.262 86.7521C176.148 86.5515 176.079 86.3287 176.059 86.0989C176.039 85.8691 176.069 85.6376 176.146 85.4203C176.223 85.2031 176.347 85.005 176.507 84.8397V84.8397Z" fill="#F2F2F2"/>
<path d="M241.788 116.257C241.814 115.734 241.726 115.212 241.529 114.727C241.332 114.243 241.031 113.807 240.648 113.451C240.264 113.095 239.808 112.828 239.31 112.668C238.812 112.508 238.286 112.459 237.767 112.525L212.762 91.6362L208.862 98.3721L234.668 116.787C234.836 117.652 235.316 118.425 236.015 118.96C236.714 119.495 237.585 119.754 238.463 119.689C239.341 119.623 240.164 119.238 240.777 118.605C241.389 117.973 241.749 117.137 241.788 116.257Z" fill="#FFB6B6"/>
<path d="M217.391 94.8204L212.075 100.935C211.923 101.109 211.736 101.248 211.526 101.343C211.317 101.438 211.089 101.487 210.858 101.486C210.628 101.485 210.4 101.434 210.191 101.337C209.982 101.24 209.797 101.099 209.647 100.924L204.402 94.7803C203.517 94.0002 202.977 92.9007 202.901 91.7229C202.825 90.5451 203.218 89.3851 203.995 88.4973C204.771 87.6094 205.868 87.0661 207.044 86.9866C208.22 86.907 209.38 87.2977 210.268 88.0729L217.047 92.4143C217.241 92.5387 217.406 92.7035 217.53 92.8974C217.655 93.0914 217.737 93.31 217.769 93.5383C217.802 93.7667 217.785 93.9994 217.72 94.2206C217.655 94.4419 217.543 94.6465 217.391 94.8204Z" fill="#F2F2F2"/>
<path d="M244.329 125.09H234.45V121.641C234.45 120.329 234.97 119.071 235.897 118.143C236.823 117.216 238.079 116.695 239.389 116.695C240.699 116.695 241.956 117.216 242.882 118.143C243.808 119.071 244.329 120.329 244.329 121.641L244.329 125.09ZM234.669 124.871H244.11V121.641C244.11 120.387 243.612 119.185 242.727 118.298C241.842 117.412 240.641 116.914 239.389 116.914C238.137 116.914 236.937 117.412 236.051 118.298C235.166 119.185 234.669 120.387 234.669 121.641V124.871Z" fill="#3F3D56"/>
<path d="M249.213 124.615V123.267L224.091 123.942L223.296 158.086L227.014 162.685L249.213 124.615Z" fill="#3F3D56"/>
<path d="M253.66 124.141L226.431 124.761L227.014 162.685L253.292 159.849L253.66 124.141Z" fill="#2CB674"/>
<path d="M199.24 83.0356C205.122 83.0356 209.89 78.261 209.89 72.3712C209.89 66.4815 205.122 61.7069 199.24 61.7069C193.358 61.7069 188.59 66.4815 188.59 72.3712C188.59 78.261 193.358 83.0356 199.24 83.0356Z" fill="#FFB6B6"/>
<path d="M194.337 67.6184C198.021 71.2337 204.432 71.5802 208.484 68.383C209.609 72.2665 209.732 76.3721 208.842 80.3162C207.952 84.2603 206.078 87.9143 203.396 90.9367C205.65 91.7521 208.244 91.2156 210.259 89.916C212.273 88.6163 213.765 86.6319 214.891 84.5137C217.678 79.27 218.375 72.8672 216.404 67.2648C214.432 61.6625 209.708 57.017 203.97 55.5127C198.231 54.0085 191.651 55.8666 187.816 60.3992C183.807 65.1388 183.158 72.0837 184.915 78.0408C186.671 83.9978 190.525 89.1136 194.759 93.6532C192.725 88.4168 191.377 82.939 190.747 77.3562C190.531 75.4442 190.406 73.4733 190.945 71.6265C191.484 69.7798 192.812 68.0596 194.663 67.5407" fill="#2F2E41"/>
<path d="M258.667 236.335H131.862C131.774 236.335 131.689 236.3 131.627 236.238C131.564 236.175 131.529 236.09 131.529 236.002C131.529 235.914 131.564 235.829 131.627 235.766C131.689 235.704 131.774 235.669 131.862 235.669H258.667C258.755 235.669 258.84 235.704 258.903 235.766C258.965 235.829 259 235.914 259 236.002C259 236.09 258.965 236.175 258.903 236.238C258.84 236.3 258.755 236.335 258.667 236.335Z" fill="#CACACA"/>
<path d="M239.003 207.405H229.125V203.956C229.125 202.644 229.645 201.386 230.572 200.459C231.498 199.531 232.754 199.01 234.064 199.01C235.374 199.01 236.63 199.531 237.557 200.459C238.483 201.386 239.003 202.644 239.003 203.956L239.003 207.405ZM229.344 207.186H238.785V203.956C238.785 202.702 238.287 201.5 237.402 200.614C236.517 199.727 235.316 199.229 234.064 199.229C232.812 199.229 231.611 199.727 230.726 200.614C229.841 201.5 229.344 202.702 229.344 203.956V207.186Z" fill="#CACACA"/>
<path d="M243.888 206.931V205.583L218.766 206.257L217.971 240.401L221.689 245L243.888 206.931Z" fill="#CACACA"/>
<path d="M248.335 206.456L221.106 207.077L221.689 245L247.967 242.164L248.335 206.456Z" fill="#E4E4E4"/>
<g clip-path="url(#clip1)">
<g opacity="0.1">
<path opacity="0.1" d="M128.757 200.982C130.017 200.982 131.038 199.637 131.038 197.977C131.038 196.317 130.017 194.971 128.757 194.971C127.498 194.971 126.477 196.317 126.477 197.977C126.477 199.637 127.498 200.982 128.757 200.982Z" fill="#3F3D56"/>
<path opacity="0.1" d="M130.562 185.119C130.881 184.561 131.047 183.927 131.042 183.282C131.042 181.619 130.021 180.277 128.761 180.277C127.502 180.277 126.482 181.622 126.482 183.282C126.476 183.926 126.64 184.56 126.958 185.119C126.646 185.68 126.482 186.313 126.482 186.956C126.482 187.599 126.646 188.231 126.958 188.792C126.646 189.353 126.482 189.986 126.482 190.629C126.482 191.272 126.646 191.905 126.958 192.466C126.64 193.025 126.476 193.659 126.482 194.303C126.482 195.966 127.503 197.308 128.761 197.308C130.02 197.308 131.042 195.963 131.042 194.303C131.048 193.659 130.884 193.025 130.566 192.466C130.878 191.905 131.042 191.272 131.042 190.629C131.042 189.986 130.878 189.353 130.566 188.792C130.878 188.231 131.042 187.599 131.042 186.956C131.042 186.313 130.878 185.68 130.566 185.119H130.562Z" fill="#3F3D56"/>
<path opacity="0.1" d="M128.757 182.615C130.017 182.615 131.038 181.269 131.038 179.61C131.038 177.95 130.017 176.604 128.757 176.604C127.498 176.604 126.477 177.95 126.477 179.61C126.477 181.269 127.498 182.615 128.757 182.615Z" fill="#3F3D56"/>
<path opacity="0.1" d="M128.757 178.941C130.017 178.941 131.038 177.595 131.038 175.936C131.038 174.276 130.017 172.93 128.757 172.93C127.498 172.93 126.477 174.276 126.477 175.936C126.477 177.595 127.498 178.941 128.757 178.941Z" fill="#3F3D56"/>
<path opacity="0.1" d="M137.293 150.797C137.604 150.397 137.888 149.976 138.142 149.538L132.154 148.547L138.634 148.596C139.255 147.234 139.594 145.759 139.629 144.26C139.665 142.762 139.396 141.272 138.841 139.882L130.146 144.421L138.165 138.489C137.414 137.183 136.403 136.047 135.197 135.151C133.99 134.255 132.614 133.619 131.153 133.282C129.691 132.945 128.177 132.915 126.704 133.193C125.23 133.47 123.83 134.051 122.589 134.897C121.348 135.744 120.293 136.839 119.49 138.114C118.688 139.388 118.154 140.816 117.923 142.307C117.692 143.799 117.768 145.322 118.147 146.783C118.526 148.243 119.199 149.609 120.125 150.797C119.639 151.418 119.222 152.09 118.88 152.802L126.656 156.871L118.364 154.064C117.781 155.796 117.636 157.648 117.942 159.451C118.249 161.255 118.997 162.953 120.119 164.391C118.852 166.013 118.064 167.962 117.845 170.014C117.626 172.066 117.984 174.139 118.88 175.995C119.775 177.852 121.171 179.417 122.909 180.512C124.646 181.607 126.654 182.188 128.704 182.188C130.753 182.188 132.761 181.607 134.499 180.512C136.236 179.417 137.632 177.852 138.528 175.995C139.423 174.139 139.782 172.066 139.562 170.014C139.343 167.962 138.555 166.013 137.288 164.391C138.802 162.453 139.625 160.058 139.625 157.592C139.625 155.125 138.802 152.731 137.288 150.792L137.293 150.797Z" fill="#2CB674"/>
<path opacity="0.1" d="M117.787 157.596C117.784 160.063 118.607 162.459 120.125 164.395C118.858 166.017 118.069 167.966 117.85 170.018C117.631 172.07 117.989 174.143 118.885 175.999C119.78 177.856 121.176 179.421 122.914 180.516C124.651 181.611 126.659 182.192 128.709 182.192C130.758 182.192 132.767 181.611 134.504 180.516C136.241 179.421 137.637 177.856 138.533 175.999C139.428 174.143 139.787 172.07 139.568 170.018C139.348 167.966 138.56 166.017 137.293 164.395C138.757 162.524 117.787 156.361 117.787 157.596Z" fill="black"/>
</g>
<g opacity="0.1">
<path opacity="0.1" d="M64.7958 197.768C65.5621 197.768 66.1833 196.949 66.1833 195.938C66.1833 194.928 65.5621 194.109 64.7958 194.109C64.0295 194.109 63.4083 194.928 63.4083 195.938C63.4083 196.949 64.0295 197.768 64.7958 197.768Z" fill="#3F3D56"/>
<path opacity="0.1" d="M65.8994 188.111C66.0931 187.771 66.1932 187.385 66.1895 186.993C66.1895 185.982 65.5701 185.163 64.801 185.163C64.0318 185.163 63.4135 185.982 63.4135 186.993C63.4094 187.385 63.5092 187.771 63.7025 188.111C63.513 188.453 63.4135 188.838 63.4135 189.229C63.4135 189.621 63.513 190.006 63.7025 190.347C63.513 190.689 63.4135 191.074 63.4135 191.465C63.4135 191.857 63.513 192.242 63.7025 192.583C63.509 192.923 63.4093 193.309 63.4135 193.701C63.4135 194.713 64.0329 195.532 64.801 195.532C65.569 195.532 66.1895 194.713 66.1895 193.701C66.1934 193.309 66.0932 192.923 65.8994 192.583C66.0895 192.242 66.1893 191.857 66.1893 191.465C66.1893 191.074 66.0895 190.689 65.8994 190.347C66.0895 190.006 66.1893 189.621 66.1893 189.229C66.1893 188.838 66.0895 188.453 65.8994 188.111Z" fill="#3F3D56"/>
<path opacity="0.1" d="M64.7958 186.586C65.5621 186.586 66.1833 185.767 66.1833 184.757C66.1833 183.746 65.5621 182.927 64.7958 182.927C64.0295 182.927 63.4083 183.746 63.4083 184.757C63.4083 185.767 64.0295 186.586 64.7958 186.586Z" fill="#3F3D56"/>
<path opacity="0.1" d="M64.7958 184.35C65.5621 184.35 66.1833 183.531 66.1833 182.52C66.1833 181.51 65.5621 180.691 64.7958 180.691C64.0295 180.691 63.4083 181.51 63.4083 182.52C63.4083 183.531 64.0295 184.35 64.7958 184.35Z" fill="#3F3D56"/>
<path opacity="0.1" d="M59.6019 167.216C59.4124 166.973 59.24 166.717 59.0857 166.45L62.7331 165.847L58.7884 165.877C58.4108 165.048 58.2048 164.151 58.1829 163.239C58.1611 162.327 58.3239 161.421 58.6614 160.575L63.9503 163.341L59.0703 159.723C59.528 158.929 60.1432 158.238 60.8775 157.693C61.6119 157.148 62.4498 156.761 63.339 156.556C64.2282 156.352 65.1498 156.333 66.0463 156.503C66.9429 156.672 67.7952 157.025 68.5504 157.54C69.3056 158.056 69.9474 158.722 70.4359 159.497C70.9244 160.273 71.2491 161.142 71.3899 162.049C71.5307 162.957 71.4846 163.884 71.2543 164.773C71.0241 165.661 70.6147 166.493 70.0516 167.216C70.347 167.594 70.601 168.002 70.8094 168.435L66.0749 170.913L71.1232 169.208C71.4777 170.263 71.5654 171.39 71.3783 172.488C71.1912 173.586 70.7352 174.619 70.0516 175.495C70.8229 176.482 71.3027 177.669 71.4361 178.918C71.5695 180.167 71.3512 181.429 70.806 182.559C70.2609 183.689 69.411 184.642 68.3534 185.308C67.2959 185.975 66.0734 186.329 64.8257 186.329C63.5781 186.329 62.3556 185.975 61.298 185.308C60.2405 184.642 59.3906 183.689 58.8454 182.559C58.3003 181.429 58.082 180.167 58.2154 178.918C58.3488 177.669 58.8286 176.482 59.5999 175.495C58.6782 174.315 58.1772 172.857 58.1772 171.355C58.1772 169.854 58.6782 168.396 59.5999 167.216H59.6019Z" fill="#2CB674"/>
<path opacity="0.1" d="M71.4742 171.355C71.4764 172.857 70.9752 174.316 70.0516 175.495C70.8229 176.482 71.3027 177.669 71.4361 178.918C71.5695 180.167 71.3512 181.429 70.806 182.559C70.2609 183.689 69.411 184.642 68.3534 185.308C67.2959 185.975 66.0734 186.329 64.8257 186.329C63.5781 186.329 62.3556 185.975 61.2981 185.308C60.2405 184.642 59.3906 183.689 58.8455 182.559C58.3003 181.429 58.082 180.167 58.2154 178.918C58.3488 177.669 58.8286 176.482 59.5999 175.495C58.709 174.361 71.4742 170.604 71.4742 171.355Z" fill="black"/>
</g>
<g opacity="0.1">
<path opacity="0.1" d="M96.0767 199.361C97.1024 199.361 97.9339 198.264 97.9339 196.912C97.9339 195.56 97.1024 194.464 96.0767 194.464C95.0509 194.464 94.2194 195.56 94.2194 196.912C94.2194 198.264 95.0509 199.361 96.0767 199.361Z" fill="#3F3D56"/>
<path opacity="0.1" d="M97.5467 186.438C97.8056 185.982 97.9392 185.465 97.9339 184.941C97.9339 183.589 97.108 182.492 96.0756 182.492C95.0432 182.492 94.2173 183.589 94.2173 184.941C94.2119 185.465 94.3459 185.982 94.6055 186.438C94.351 186.895 94.2174 187.41 94.2174 187.934C94.2174 188.458 94.351 188.973 94.6055 189.43C94.351 189.887 94.2174 190.403 94.2174 190.926C94.2174 191.45 94.351 191.965 94.6055 192.422C94.3459 192.878 94.2119 193.394 94.2173 193.919C94.2173 195.271 95.0494 196.368 96.0756 196.368C97.1018 196.368 97.9339 195.271 97.9339 193.919C97.9392 193.395 97.8056 192.878 97.5467 192.422C97.8006 191.965 97.9339 191.45 97.9339 190.926C97.9339 190.403 97.8006 189.888 97.5467 189.43C97.8006 188.973 97.9339 188.458 97.9339 187.934C97.9339 187.41 97.8006 186.895 97.5467 186.438Z" fill="#3F3D56"/>
<path opacity="0.1" d="M96.0767 184.397C97.1024 184.397 97.9339 183.301 97.9339 181.949C97.9339 180.597 97.1024 179.5 96.0767 179.5C95.0509 179.5 94.2194 180.597 94.2194 181.949C94.2194 183.301 95.0509 184.397 96.0767 184.397Z" fill="#3F3D56"/>
<path opacity="0.1" d="M96.0767 181.404C97.1024 181.404 97.9339 180.308 97.9339 178.956C97.9339 177.604 97.1024 176.507 96.0767 176.507C95.0509 176.507 94.2194 177.604 94.2194 178.956C94.2194 180.308 95.0509 181.404 96.0767 181.404Z" fill="#3F3D56"/>
<path opacity="0.1" d="M89.1277 158.476C88.8739 158.151 88.6428 157.808 88.436 157.451L93.3161 156.644L88.0386 156.684C87.5322 155.574 87.2559 154.372 87.2266 153.152C87.1973 151.931 87.4157 150.717 87.8682 149.584L94.9503 153.283L88.4185 148.449C89.0287 147.381 89.8511 146.452 90.8343 145.718C91.8175 144.985 92.9403 144.464 94.1326 144.187C95.3249 143.91 96.561 143.884 97.7638 144.11C98.9665 144.336 100.11 144.81 101.123 145.501C102.136 146.192 102.996 147.086 103.65 148.128C104.304 149.169 104.738 150.335 104.925 151.552C105.111 152.77 105.046 154.013 104.734 155.205C104.422 156.396 103.869 157.51 103.11 158.476C103.505 158.983 103.845 159.53 104.124 160.11L97.7893 163.424L104.544 161.137C105.019 162.549 105.136 164.058 104.886 165.527C104.635 166.996 104.025 168.379 103.11 169.551C104.142 170.872 104.784 172.459 104.963 174.131C105.141 175.803 104.849 177.491 104.12 179.004C103.39 180.516 102.253 181.791 100.838 182.683C99.4224 183.575 97.7865 184.048 96.1169 184.048C94.4473 184.048 92.8114 183.575 91.3962 182.683C89.981 181.791 88.8436 180.516 88.1141 179.004C87.3846 177.491 87.0924 175.803 87.2709 174.131C87.4494 172.459 88.0915 170.872 89.1236 169.551C87.8904 167.971 87.22 166.02 87.22 164.011C87.22 162.002 87.8904 160.051 89.1236 158.472L89.1277 158.476Z" fill="#2CB674"/>
<path opacity="0.1" d="M105.014 164.016C105.017 166.025 104.346 167.977 103.11 169.555C104.142 170.876 104.784 172.464 104.963 174.135C105.141 175.807 104.849 177.495 104.12 179.008C103.39 180.52 102.253 181.795 100.838 182.687C99.4224 183.579 97.7865 184.052 96.1169 184.052C94.4473 184.052 92.8113 183.579 91.3962 182.687C89.981 181.795 88.8436 180.52 88.1141 179.008C87.3846 177.495 87.0924 175.807 87.2709 174.135C87.4494 172.464 88.0915 170.876 89.1236 169.555C87.9312 168.031 105.014 163.01 105.014 164.016Z" fill="black"/>
</g>
<path d="M160 199.14C160 199.854 154.815 200.507 146.244 201.011C144.685 201.102 143.014 201.188 141.243 201.269C139.712 201.339 138.108 201.404 136.43 201.466C134.804 201.524 133.116 201.578 131.366 201.628C125.839 201.787 119.728 201.901 113.237 201.958C111.661 201.973 110.065 201.984 108.448 201.992C106.763 201.999 105.059 202.003 103.335 202.002C72.0399 202.002 46.6715 200.722 46.6715 199.143C46.6715 197.564 72.0399 196.284 103.335 196.284C116.809 196.284 129.182 196.522 138.907 196.918L139.97 196.961H139.976C152.226 197.484 160 198.271 160 199.14Z" fill="#3F3D56"/>
<path opacity="0.15" d="M160 199.14C160 199.854 154.815 200.507 146.244 201.011C144.685 201.102 143.014 201.188 141.243 201.269C139.712 201.339 138.108 201.404 136.43 201.466C134.804 201.524 133.116 201.578 131.366 201.628C125.839 201.787 119.728 201.901 113.237 201.958C111.661 201.973 110.065 201.984 108.448 201.992C106.763 201.999 105.059 202.003 103.335 202.002C72.0399 202.002 46.6715 200.722 46.6715 199.143C46.6715 197.564 72.0399 196.284 103.335 196.284C116.809 196.284 129.182 196.522 138.907 196.918L139.97 196.961H139.976C152.226 197.484 160 198.271 160 199.14Z" fill="black"/>
<path d="M155.329 198.637C155.329 199.234 150.144 199.78 141.572 200.196C140.014 200.272 138.343 200.344 136.572 200.412C135.041 200.47 133.437 200.524 131.759 200.576C130.134 200.624 128.446 200.67 126.696 200.712C121.167 200.845 115.057 200.941 108.565 200.988C106.991 201 105.395 201.009 103.776 201.016C102.091 201.022 100.387 201.025 98.6648 201.025C67.3695 201.025 42 199.955 42 198.634C42 197.313 67.3695 196.243 98.6648 196.243C112.137 196.243 124.51 196.441 134.235 196.772L135.298 196.808H135.306C147.56 197.252 155.329 197.906 155.329 198.637Z" fill="#3F3D56"/>
<path d="M56.6349 176.917L55.2123 172.531L89.2805 172.156L90.6763 176.498L56.6349 176.917Z" fill="#3F3D56"/>
<path opacity="0.15" d="M56.6349 176.917L55.2123 172.531L89.2805 172.156L90.6763 176.498L56.6349 176.917Z" fill="black"/>
<path d="M54.3637 176.917L52.9411 172.531L87.0093 172.156L88.4051 176.498L54.3637 176.917Z" fill="#3F3D56"/>
<path d="M112.522 170.177C109 170.177 106.224 168.77 104.194 165.954C102.165 163.138 101.15 159.727 101.15 155.72C101.15 151.686 102.131 148.282 104.094 145.507C106.057 142.732 108.826 141.346 112.401 141.349C116.191 141.349 119.048 142.811 120.969 145.735C122.891 148.659 123.852 152.043 123.853 155.887C123.853 159.704 122.858 163.04 120.869 165.896C118.88 168.753 116.098 170.18 112.522 170.177ZM112.626 167.01C114.943 167.01 116.675 165.993 117.821 163.959C118.968 161.925 119.541 159.36 119.541 156.266C119.541 152.821 118.955 150.001 117.781 147.805C116.608 145.608 114.808 144.51 112.382 144.509C107.771 144.509 105.465 148.198 105.465 155.574C105.465 163.199 107.851 167.011 112.623 167.01H112.626ZM113.786 197.344H108.691L142.045 141.913H147.044L113.786 197.344ZM143.293 197.912C139.718 197.912 136.93 196.492 134.931 193.65C132.932 190.809 131.928 187.397 131.92 183.415C131.92 179.409 132.894 176.018 134.843 173.243C136.792 170.468 139.568 169.082 143.17 169.085C146.934 169.085 149.771 170.547 151.679 173.471C153.588 176.395 154.542 179.779 154.543 183.622C154.543 187.414 153.555 190.744 151.579 193.613C149.603 196.481 146.84 197.914 143.291 197.912H143.293ZM143.353 194.664C145.659 194.664 147.382 193.664 148.521 191.665C149.66 189.665 150.23 187.111 150.23 184.003C150.23 180.676 149.653 177.886 148.5 175.633C147.348 173.38 145.552 172.252 143.113 172.248C138.474 172.248 136.155 175.937 136.155 183.314C136.154 190.881 138.553 194.664 143.351 194.664H143.353Z" fill="#3F3D56"/>
<path d="M112.522 170.177C109 170.177 106.224 168.77 104.194 165.954C102.165 163.138 101.15 159.727 101.15 155.72C101.15 151.686 102.131 148.282 104.094 145.507C106.057 142.732 108.826 141.346 112.401 141.349C116.191 141.349 119.048 142.811 120.969 145.735C122.891 148.659 123.852 152.043 123.853 155.887C123.853 159.704 122.858 163.04 120.869 165.896C118.88 168.753 116.098 170.18 112.522 170.177ZM112.626 167.01C114.943 167.01 116.675 165.993 117.821 163.959C118.968 161.925 119.541 159.36 119.541 156.266C119.541 152.821 118.955 150.001 117.781 147.805C116.608 145.608 114.808 144.51 112.382 144.509C107.771 144.509 105.465 148.198 105.465 155.574C105.465 163.199 107.851 167.011 112.623 167.01H112.626ZM113.786 197.344H108.691L142.045 141.913H147.044L113.786 197.344ZM143.293 197.912C139.718 197.912 136.93 196.492 134.931 193.65C132.932 190.809 131.928 187.397 131.92 183.415C131.92 179.409 132.894 176.018 134.843 173.243C136.792 170.468 139.568 169.082 143.17 169.085C146.934 169.085 149.771 170.547 151.679 173.471C153.588 176.395 154.542 179.779 154.543 183.622C154.543 187.414 153.555 190.744 151.579 193.613C149.603 196.481 146.84 197.914 143.291 197.912H143.293ZM143.353 194.664C145.659 194.664 147.382 193.664 148.521 191.665C149.66 189.665 150.23 187.111 150.23 184.003C150.23 180.676 149.653 177.886 148.5 175.633C147.348 173.38 145.552 172.252 143.113 172.248C138.474 172.248 136.155 175.937 136.155 183.314C136.154 190.881 138.553 194.664 143.351 194.664H143.353Z" fill="#3F3D56"/>
<path opacity="0.15" d="M112.522 170.177C109 170.177 106.224 168.77 104.194 165.954C102.165 163.138 101.15 159.727 101.15 155.72C101.15 151.686 102.131 148.282 104.094 145.507C106.057 142.732 108.826 141.346 112.401 141.349C116.191 141.349 119.048 142.811 120.969 145.735C122.891 148.659 123.852 152.043 123.853 155.887C123.853 159.704 122.858 163.04 120.869 165.896C118.88 168.753 116.098 170.18 112.522 170.177ZM112.626 167.01C114.943 167.01 116.675 165.993 117.821 163.959C118.968 161.925 119.541 159.36 119.541 156.266C119.541 152.821 118.955 150.001 117.781 147.805C116.608 145.608 114.808 144.51 112.382 144.509C107.771 144.509 105.465 148.198 105.465 155.574C105.465 163.199 107.851 167.011 112.623 167.01H112.626ZM113.786 197.344H108.691L142.045 141.913H147.044L113.786 197.344ZM143.293 197.912C139.718 197.912 136.93 196.492 134.931 193.65C132.932 190.809 131.928 187.397 131.92 183.415C131.92 179.409 132.894 176.018 134.843 173.243C136.792 170.468 139.568 169.082 143.17 169.085C146.934 169.085 149.771 170.547 151.679 173.471C153.588 176.395 154.542 179.779 154.543 183.622C154.543 187.414 153.555 190.744 151.579 193.613C149.603 196.481 146.84 197.914 143.291 197.912H143.293ZM143.353 194.664C145.659 194.664 147.382 193.664 148.521 191.665C149.66 189.665 150.23 187.111 150.23 184.003C150.23 180.676 149.653 177.886 148.5 175.633C147.348 173.38 145.552 172.252 143.113 172.248C138.474 172.248 136.155 175.937 136.155 183.314C136.154 190.881 138.553 194.664 143.351 194.664H143.353Z" fill="black"/>
<path d="M109.322 170.177C105.8 170.177 103.023 168.77 100.994 165.954C98.9642 163.138 97.9494 159.727 97.9494 155.72C97.9494 151.686 98.9308 148.282 100.894 145.507C102.857 142.732 105.625 141.346 109.2 141.349C112.991 141.349 115.847 142.811 117.769 145.735C119.69 148.659 120.652 152.043 120.652 155.887C120.652 159.704 119.658 163.04 117.669 165.896C115.68 168.753 112.897 170.18 109.322 170.177ZM109.425 167.01C111.743 167.01 113.475 165.993 114.621 163.959C115.768 161.925 116.341 159.36 116.341 156.266C116.341 152.821 115.754 150.001 114.581 147.805C113.407 145.608 111.608 144.51 109.182 144.509C104.57 144.509 102.265 148.198 102.265 155.574C102.265 163.199 104.651 167.011 109.423 167.01H109.425ZM110.586 197.344H105.491L138.845 141.913H143.843L110.586 197.344ZM140.093 197.912C136.517 197.912 133.73 196.492 131.731 193.65C129.731 190.809 128.727 187.397 128.719 183.415C128.719 179.409 129.694 176.018 131.643 173.243C133.592 170.468 136.368 169.082 139.97 169.085C143.734 169.085 146.57 170.547 148.479 173.471C150.387 176.395 151.342 179.779 151.343 183.622C151.343 187.414 150.355 190.744 148.379 193.613C146.403 196.481 143.64 197.914 140.091 197.912H140.093ZM140.153 194.664C142.459 194.664 144.182 193.664 145.321 191.665C146.46 189.665 147.029 187.111 147.029 184.003C147.029 180.676 146.453 177.886 145.3 175.633C144.147 173.38 142.351 172.252 139.91 172.248C135.272 172.248 132.953 175.937 132.953 183.314C132.953 190.881 135.352 194.664 140.151 194.664H140.153Z" fill="#3F3D56"/>
<path d="M120.467 198.735C120.893 197.94 120.41 196.967 119.854 196.258C119.299 195.549 118.622 194.813 118.636 193.91C118.657 192.614 120.023 191.847 121.114 191.159C121.924 190.649 122.672 190.044 123.342 189.357C123.622 189.092 123.853 188.779 124.026 188.433C124.252 187.926 124.245 187.349 124.232 186.794C124.185 184.942 124.094 183.093 123.96 181.247" stroke="#3F3D56" stroke-width="4" stroke-miterlimit="10"/>
<path d="M126.037 181.145C126.022 180.806 125.922 180.477 125.746 180.187C125.571 179.898 125.326 179.657 125.035 179.488L124.584 180.384L124.598 179.299C124.383 179.236 124.16 179.208 123.936 179.219C123.539 179.237 123.157 179.374 122.837 179.612C122.517 179.849 122.275 180.177 122.14 180.554C122.006 180.93 121.985 181.338 122.08 181.726C122.176 182.115 122.384 182.466 122.678 182.735C122.971 183.005 123.338 183.18 123.731 183.24C124.124 183.299 124.525 183.24 124.885 183.07C125.245 182.9 125.546 182.626 125.751 182.284C125.956 181.941 126.056 181.545 126.037 181.145Z" fill="#2CB674"/>
<path d="M122.455 194.84C122.244 195.253 121.899 195.58 121.477 195.766C121.055 195.953 120.583 195.988 120.138 195.865C119.694 195.743 119.305 195.47 119.037 195.093C118.769 194.716 118.637 194.257 118.665 193.794C118.693 193.331 118.877 192.892 119.189 192.55C119.5 192.208 119.918 191.984 120.374 191.915C120.829 191.847 121.294 191.938 121.691 192.174C122.088 192.41 122.391 192.777 122.552 193.211L121.296 194.24L122.68 193.915C122.679 194.237 122.602 194.555 122.455 194.84Z" fill="#2CB674"/>
<path d="M121.463 190.91C121.199 190.922 120.936 190.882 120.687 190.792C120.439 190.702 120.211 190.564 120.016 190.385C119.821 190.206 119.663 189.99 119.55 189.75C119.438 189.509 119.374 189.249 119.362 188.983C119.346 188.667 119.406 188.35 119.535 188.061C119.655 187.791 119.833 187.551 120.055 187.357C120.277 187.163 120.539 187.021 120.822 186.94L120.81 187.771L121.265 186.865C121.798 186.84 122.318 187.029 122.712 187.39C123.106 187.751 123.341 188.255 123.366 188.791C123.391 189.327 123.204 189.851 122.845 190.248C122.486 190.645 121.986 190.882 121.453 190.907L121.463 190.91Z" fill="#2CB674"/>
<path d="M126.34 187.642C126.073 187.66 125.805 187.624 125.553 187.537C125.3 187.449 125.067 187.312 124.868 187.133C124.668 186.953 124.506 186.736 124.392 186.493C124.277 186.25 124.211 185.986 124.199 185.717C124.186 185.449 124.227 185.18 124.319 184.927C124.411 184.674 124.552 184.443 124.733 184.245C124.915 184.048 125.134 183.889 125.378 183.779C125.621 183.668 125.884 183.607 126.152 183.599C126.527 183.581 126.9 183.67 127.227 183.856L126.872 184.835L127.603 184.13C127.995 184.49 128.23 184.992 128.255 185.526C128.264 185.713 128.246 185.901 128.203 186.083C128.103 186.512 127.867 186.896 127.531 187.177C127.194 187.459 126.776 187.622 126.34 187.642Z" fill="#2CB674"/>
<path opacity="0.1" d="M125.767 181.685C125.303 181.736 124.853 181.881 124.387 181.91C123.922 181.939 123.411 181.827 123.116 181.462C122.958 181.267 122.879 181.018 122.745 180.804C122.618 180.605 122.444 180.44 122.239 180.325C122.11 180.581 122.037 180.862 122.024 181.15C122.012 181.437 122.06 181.723 122.166 181.99C122.272 182.257 122.433 182.498 122.639 182.697C122.845 182.896 123.09 183.049 123.359 183.145C123.628 183.241 123.915 183.279 124.199 183.255C124.484 183.231 124.76 183.146 125.009 183.006C125.258 182.866 125.475 182.674 125.645 182.444C125.815 182.213 125.934 181.948 125.995 181.667C125.918 181.671 125.843 181.676 125.767 181.685Z" fill="black"/>
<path opacity="0.1" d="M126.34 187.642C125.993 187.658 125.649 187.584 125.34 187.426C125.031 187.269 124.767 187.033 124.575 186.743C124.383 186.452 124.268 186.117 124.242 185.769C124.217 185.421 124.281 185.072 124.429 184.756C124.588 184.865 124.725 185.003 124.832 185.164C124.976 185.381 125.063 185.633 125.231 185.832C125.54 186.204 126.078 186.324 126.563 186.302C127.047 186.28 127.515 186.141 127.999 186.094C128.066 186.088 128.134 186.084 128.205 186.082C128.105 186.511 127.869 186.896 127.532 187.177C127.196 187.459 126.777 187.622 126.34 187.642Z" fill="black"/>
<path opacity="0.1" d="M121.463 190.91C121.199 190.922 120.936 190.882 120.687 190.792C120.439 190.702 120.211 190.564 120.016 190.385C119.821 190.206 119.663 189.99 119.55 189.75C119.438 189.509 119.374 189.249 119.362 188.983C119.346 188.667 119.406 188.35 119.535 188.061C119.701 188.172 119.845 188.313 119.96 188.477C120.115 188.699 120.213 188.954 120.396 189.159C120.735 189.539 121.305 189.673 121.818 189.66C122.331 189.648 122.794 189.527 123.289 189.489C123.166 189.886 122.925 190.235 122.599 190.489C122.272 190.744 121.875 190.89 121.463 190.91Z" fill="black"/>
<path opacity="0.1" d="M122.455 194.84C122.221 195.303 121.82 195.658 121.334 195.83C120.847 196.003 120.314 195.982 119.844 195.769C119.373 195.557 119.001 195.171 118.806 194.691C118.61 194.211 118.605 193.673 118.792 193.19C118.957 193.299 119.106 193.433 119.233 193.586C119.424 193.821 119.55 194.087 119.771 194.305C120.184 194.71 120.844 194.878 121.435 194.893C121.776 194.896 122.116 194.879 122.455 194.84Z" fill="black"/>
<path d="M151.542 198.631C151.967 197.837 151.484 196.863 150.929 196.154C150.373 195.445 149.696 194.709 149.71 193.806C149.731 192.51 151.098 191.744 152.188 191.055C152.999 190.545 153.747 189.94 154.416 189.253C154.696 188.988 154.928 188.675 155.1 188.33C155.326 187.822 155.319 187.245 155.307 186.69C155.259 184.838 155.168 182.989 155.034 181.143" stroke="#3F3D56" stroke-width="4" stroke-miterlimit="10"/>
<path d="M157.111 181.041C157.096 180.702 156.996 180.373 156.821 180.083C156.646 179.794 156.401 179.553 156.109 179.384L155.659 180.28L155.672 179.195C155.458 179.132 155.234 179.104 155.011 179.115C154.614 179.133 154.231 179.27 153.912 179.508C153.592 179.745 153.349 180.073 153.215 180.45C153.08 180.826 153.059 181.234 153.155 181.622C153.25 182.011 153.458 182.362 153.752 182.631C154.046 182.901 154.412 183.076 154.805 183.136C155.198 183.195 155.6 183.136 155.959 182.966C156.319 182.796 156.62 182.522 156.825 182.18C157.03 181.837 157.13 181.441 157.111 181.041Z" fill="#2CB674"/>
<path d="M153.529 194.736C153.318 195.149 152.973 195.476 152.551 195.662C152.13 195.849 151.657 195.884 151.213 195.761C150.769 195.639 150.38 195.366 150.111 194.989C149.843 194.612 149.712 194.153 149.739 193.69C149.767 193.227 149.952 192.788 150.263 192.446C150.574 192.104 150.992 191.88 151.448 191.811C151.904 191.743 152.369 191.834 152.765 192.07C153.162 192.306 153.466 192.673 153.626 193.107L152.371 194.136L153.754 193.811C153.754 194.133 153.676 194.451 153.529 194.736Z" fill="#2CB674"/>
<path d="M152.537 190.806C152.273 190.818 152.01 190.778 151.762 190.688C151.514 190.598 151.285 190.46 151.09 190.281C150.895 190.102 150.737 189.886 150.625 189.646C150.513 189.405 150.448 189.145 150.436 188.879C150.421 188.563 150.48 188.246 150.61 187.957C150.73 187.687 150.907 187.447 151.129 187.253C151.351 187.059 151.613 186.917 151.896 186.836L151.885 187.667L152.34 186.761H152.345C152.609 186.748 152.872 186.788 153.12 186.878C153.368 186.968 153.597 187.107 153.792 187.286C153.987 187.465 154.145 187.68 154.257 187.921C154.369 188.161 154.434 188.422 154.446 188.687C154.458 188.952 154.419 189.218 154.329 189.468C154.24 189.718 154.102 189.947 153.925 190.144C153.747 190.34 153.533 190.5 153.294 190.613C153.055 190.726 152.796 190.79 152.533 190.803L152.537 190.806Z" fill="#2CB674"/>
<path d="M157.414 187.538C157.147 187.556 156.88 187.52 156.627 187.433C156.374 187.345 156.141 187.208 155.942 187.029C155.743 186.849 155.581 186.632 155.466 186.389C155.351 186.146 155.285 185.882 155.273 185.613C155.26 185.345 155.301 185.076 155.393 184.823C155.485 184.571 155.626 184.339 155.808 184.142C155.99 183.944 156.209 183.786 156.452 183.675C156.696 183.564 156.959 183.503 157.226 183.496C157.601 183.477 157.974 183.566 158.302 183.752L157.947 184.732L158.678 184.026C159.07 184.386 159.304 184.888 159.329 185.422C159.338 185.609 159.321 185.797 159.277 185.979C159.177 186.408 158.941 186.792 158.605 187.073C158.269 187.355 157.851 187.518 157.414 187.538Z" fill="#2CB674"/>
<path opacity="0.1" d="M156.841 181.581C156.377 181.632 155.927 181.777 155.462 181.806C154.996 181.835 154.485 181.723 154.191 181.358C154.032 181.163 153.953 180.914 153.819 180.7C153.692 180.501 153.519 180.336 153.313 180.221C153.184 180.477 153.111 180.758 153.099 181.046C153.086 181.333 153.134 181.619 153.24 181.886C153.346 182.153 153.508 182.394 153.713 182.593C153.919 182.792 154.165 182.945 154.434 183.041C154.703 183.137 154.989 183.175 155.273 183.151C155.558 183.127 155.834 183.042 156.083 182.902C156.333 182.762 156.55 182.57 156.72 182.339C156.89 182.109 157.009 181.844 157.069 181.563C156.993 181.567 156.917 181.572 156.841 181.581Z" fill="black"/>
<path opacity="0.1" d="M157.414 187.538C157.068 187.554 156.723 187.48 156.414 187.322C156.105 187.165 155.841 186.929 155.649 186.639C155.457 186.349 155.342 186.013 155.317 185.665C155.291 185.317 155.355 184.968 155.503 184.653C155.662 184.761 155.799 184.9 155.907 185.06C156.05 185.277 156.137 185.529 156.305 185.729C156.615 186.1 157.153 186.22 157.637 186.198C158.121 186.177 158.59 186.037 159.073 185.991C159.14 185.984 159.208 185.98 159.279 185.978C159.18 186.407 158.943 186.792 158.607 187.073C158.27 187.355 157.851 187.518 157.414 187.538Z" fill="black"/>
<path opacity="0.1" d="M152.537 190.806C152.273 190.818 152.01 190.778 151.762 190.688C151.514 190.598 151.285 190.46 151.09 190.281C150.895 190.102 150.737 189.886 150.625 189.646C150.513 189.405 150.448 189.145 150.436 188.88C150.421 188.563 150.48 188.247 150.61 187.957C150.775 188.069 150.919 188.209 151.034 188.373C151.19 188.595 151.288 188.85 151.471 189.055C151.809 189.435 152.379 189.569 152.892 189.556C153.39 189.546 153.869 189.423 154.363 189.385C154.241 189.782 154 190.131 153.673 190.386C153.346 190.64 152.95 190.787 152.537 190.806Z" fill="black"/>
<path opacity="0.1" d="M153.529 194.736C153.295 195.199 152.894 195.554 152.408 195.726C151.922 195.899 151.388 195.878 150.918 195.665C150.447 195.453 150.076 195.067 149.88 194.587C149.684 194.107 149.679 193.569 149.866 193.086C150.032 193.195 150.18 193.329 150.307 193.482C150.498 193.717 150.624 193.983 150.845 194.201C151.258 194.606 151.919 194.774 152.509 194.789C152.85 194.792 153.19 194.775 153.529 194.736Z" fill="black"/>
<path d="M53.3489 197.279C52.9236 196.485 53.4067 195.512 53.9621 194.803C54.5175 194.094 55.1948 193.358 55.1803 192.455C55.1597 191.158 53.7928 190.392 52.7026 189.704C51.8918 189.194 51.144 188.589 50.4748 187.901C50.1945 187.636 49.9628 187.324 49.7903 186.978C49.5642 186.471 49.5714 185.894 49.5838 185.339C49.6313 183.487 49.7222 181.638 49.8564 179.792" stroke="#3F3D56" stroke-width="4" stroke-miterlimit="10"/>
<path d="M47.7792 179.69C47.7948 179.351 47.8947 179.022 48.0699 178.732C48.2451 178.442 48.4899 178.202 48.7817 178.033L49.2318 178.929L49.2184 177.843C49.4331 177.78 49.6566 177.753 49.8801 177.763C50.277 177.782 50.6595 177.919 50.9791 178.156C51.2988 178.394 51.5413 178.722 51.676 179.098C51.8107 179.475 51.8316 179.883 51.7359 180.271C51.6403 180.659 51.4324 181.011 51.1386 181.28C50.8448 181.549 50.4783 181.725 50.0854 181.785C49.6925 181.844 49.2909 181.785 48.9313 181.615C48.5718 181.445 48.2704 181.171 48.0653 180.828C47.8602 180.486 47.7607 180.089 47.7792 179.69Z" fill="#2CB674"/>
<path d="M51.3615 193.385C51.5723 193.797 51.9175 194.124 52.3393 194.311C52.761 194.498 53.2336 194.532 53.6779 194.41C54.1221 194.287 54.511 194.014 54.7792 193.637C55.0475 193.26 55.1789 192.802 55.1513 192.339C55.1237 191.876 54.9388 191.436 54.6277 191.094C54.3166 190.752 53.8982 190.528 53.4426 190.46C52.987 190.391 52.5219 190.483 52.1253 190.719C51.7287 190.955 51.4248 191.321 51.2645 191.756L52.5199 192.784L51.1365 192.46C51.1371 192.782 51.2142 193.099 51.3615 193.385Z" fill="#2CB674"/>
<path d="M52.3537 189.454C52.6172 189.467 52.8806 189.427 53.1289 189.337C53.3771 189.247 53.6053 189.108 53.8003 188.929C53.9954 188.75 54.1536 188.535 54.2659 188.294C54.3781 188.054 54.4422 187.793 54.4545 187.528C54.4702 187.211 54.4107 186.895 54.2811 186.606C54.1611 186.336 53.9837 186.095 53.7615 185.901C53.5393 185.708 53.2775 185.565 52.9948 185.484L53.0061 186.316L52.5509 185.409C52.0186 185.384 51.4982 185.573 51.1042 185.934C50.7102 186.296 50.4749 186.8 50.45 187.336C50.4251 187.872 50.6126 188.396 50.9714 188.792C51.3301 189.189 51.8307 189.426 52.363 189.451L52.3537 189.454Z" fill="#2CB674"/>
<path d="M47.4767 186.187C47.7434 186.205 48.011 186.169 48.2637 186.081C48.5164 185.994 48.7493 185.856 48.9486 185.677C49.148 185.498 49.3099 185.28 49.4248 185.037C49.5396 184.794 49.6053 184.531 49.6178 184.262C49.6302 183.993 49.5894 183.724 49.4975 183.472C49.4057 183.219 49.2647 182.987 49.0828 182.79C48.901 182.593 48.6819 182.434 48.4383 182.323C48.1948 182.212 47.9318 182.151 47.6646 182.144C47.2909 182.127 46.9199 182.216 46.5941 182.401L46.9492 183.38L46.2131 182.677C45.8216 183.037 45.5873 183.538 45.5617 184.07C45.5525 184.258 45.5699 184.445 45.6133 184.628C45.7132 185.056 45.9492 185.44 46.2855 185.722C46.6218 186.003 47.04 186.166 47.4767 186.187Z" fill="#2CB674"/>
<path opacity="0.1" d="M48.0497 180.229C48.5133 180.28 48.9634 180.426 49.429 180.455C49.8946 180.484 50.4056 180.372 50.6998 180.007C50.8588 179.811 50.9373 179.563 51.0715 179.349C51.1982 179.149 51.372 178.985 51.5773 178.869C51.7063 179.126 51.7795 179.407 51.7921 179.694C51.8047 179.981 51.7564 180.268 51.6504 180.535C51.5443 180.802 51.3831 181.043 51.1773 181.242C50.9715 181.441 50.7259 181.594 50.4569 181.69C50.1879 181.786 49.9017 181.823 49.6172 181.799C49.3328 181.775 49.0567 181.691 48.8073 181.551C48.558 181.411 48.3411 181.219 48.1711 180.988C48.0011 180.757 47.882 180.492 47.8216 180.211C47.898 180.216 47.9733 180.221 48.0497 180.229Z" fill="black"/>
<path opacity="0.1" d="M47.4767 186.187C47.8229 186.203 48.1673 186.128 48.4765 185.971C48.7857 185.813 49.0492 185.578 49.2415 185.287C49.4337 184.997 49.5482 184.662 49.5738 184.314C49.5994 183.966 49.5353 183.617 49.3876 183.301C49.2285 183.41 49.0915 183.548 48.984 183.709C48.8405 183.926 48.7538 184.178 48.5855 184.377C48.2758 184.748 47.7379 184.869 47.2537 184.847C46.7696 184.825 46.3009 184.686 45.8177 184.639C45.7506 184.633 45.6825 184.629 45.6112 184.627C45.7111 185.056 45.9473 185.44 46.284 185.722C46.6207 186.004 47.0395 186.167 47.4767 186.187Z" fill="black"/>
<path opacity="0.1" d="M52.3536 189.454C52.6172 189.467 52.8806 189.427 53.1288 189.337C53.377 189.247 53.6052 189.108 53.8003 188.929C53.9954 188.751 54.1536 188.535 54.2658 188.294C54.3781 188.054 54.4422 187.793 54.4545 187.528C54.4701 187.211 54.4107 186.895 54.281 186.606C54.1154 186.717 53.9716 186.858 53.8567 187.022C53.7009 187.243 53.6028 187.499 53.42 187.704C53.0814 188.083 52.5116 188.217 51.9985 188.205C51.5009 188.194 51.0218 188.072 50.5273 188.033C50.6499 188.43 50.891 188.78 51.2177 189.034C51.5445 189.288 51.9411 189.435 52.3536 189.454Z" fill="black"/>
<path opacity="0.1" d="M51.3616 193.385C51.5953 193.848 51.9968 194.202 52.4828 194.375C52.9689 194.548 53.5023 194.526 53.9728 194.314C54.4433 194.102 54.8149 193.716 55.0106 193.236C55.2064 192.756 55.2113 192.218 55.0244 191.734C54.859 191.844 54.7105 191.977 54.5836 192.13C54.3926 192.365 54.2667 192.631 54.0457 192.85C53.6328 193.255 52.9721 193.422 52.3816 193.438C52.0408 193.441 51.7002 193.423 51.3616 193.385Z" fill="black"/>
<path d="M111.53 187.537C111.532 187.285 111.475 187.036 111.365 186.81C111.254 186.584 111.092 186.388 110.892 186.236C110.867 185.283 110.192 184.504 109.324 184.383C109.257 184.059 109.106 183.759 108.887 183.512C108.669 183.266 108.389 183.081 108.077 182.978C108.001 182.954 107.923 182.935 107.845 182.923H107.822L107.782 182.917H107.748H107.713H107.669H107.642H107.569C106.683 182.917 105.946 183.599 105.794 184.499C105.221 184.366 104.696 184.538 104.602 184.903C104.578 185 104.583 185.102 104.617 185.195C104.714 185.478 105.03 185.748 105.459 185.882L105.515 185.899C105.542 185.907 105.57 185.914 105.598 185.92H105.617C105.459 186.258 105.437 186.644 105.554 186.998C105.672 187.353 105.92 187.648 106.248 187.823C106.235 187.83 106.222 187.838 106.21 187.847C106.157 187.896 106.115 187.956 106.086 188.022C105.983 188.205 105.902 188.4 105.847 188.603C105.806 188.777 105.798 188.958 105.744 189.13C105.65 189.442 105.408 189.715 105.38 190.047C105.368 190.195 105.392 190.368 105.287 190.469C105.261 190.492 105.234 190.512 105.205 190.53C105.132 190.581 105.07 190.646 105.023 190.722C104.993 190.784 104.952 190.841 104.902 190.89C104.808 190.962 104.654 190.954 104.607 191.065C104.561 191.175 104.68 191.305 104.653 191.425C104.63 191.523 104.523 191.568 104.446 191.633C104.359 191.728 104.299 191.844 104.271 191.969C104.116 191.999 103.957 191.994 103.805 191.955C103.653 191.916 103.511 191.844 103.39 191.744C103.431 191.851 103.462 191.962 103.481 192.075C103.358 191.943 103.156 191.905 103.006 191.836C102.813 191.747 102.64 191.618 102.5 191.458L102.77 191.42L101.573 189.591L101.22 189.518L101.537 190.13C101.511 190.143 101.488 190.161 101.47 190.184C101.452 190.206 101.44 190.233 101.434 190.261C101.417 190.329 101.412 190.4 101.421 190.469C101.438 190.633 101.465 190.796 101.503 190.957L101.595 191.387C101.602 191.427 101.612 191.467 101.625 191.507C101.505 191.502 101.385 191.516 101.269 191.547C101.032 191.459 100.785 191.4 100.533 191.371C100.478 191.362 100.421 191.364 100.367 191.38C100.306 191.408 100.253 191.452 100.212 191.507C100.006 191.747 99.8226 192.007 99.6651 192.282C99.022 193.409 98.163 194.392 97.3588 195.411C96.8034 195.639 96.2438 195.855 95.6833 196.069L94.4785 196.532C94.2379 196.624 93.9881 196.719 93.7321 196.702C93.6165 196.695 93.4761 196.677 93.411 196.776C93.3794 196.825 93.3547 196.878 93.3377 196.934C93.2954 196.934 93.2531 196.945 93.2138 196.947H93.2066C93.1302 196.755 93.0641 196.551 92.9175 196.411C92.888 196.416 92.8601 196.428 92.8363 196.446C92.8125 196.464 92.7936 196.488 92.7813 196.515C92.7524 196.569 92.7348 196.629 92.7018 196.678C92.6367 196.774 92.5242 196.821 92.4437 196.902C92.3632 196.983 92.3126 197.11 92.2259 197.189C92.1044 197.278 91.9621 197.333 91.8129 197.35C91.5894 197.403 91.3738 197.485 91.1718 197.595C91.0973 197.641 91.0176 197.678 90.9344 197.706C90.8428 197.723 90.7491 197.726 90.6567 197.715L90.0187 197.668C89.9619 197.661 89.9042 197.663 89.8483 197.675C89.7826 197.7 89.7267 197.745 89.6893 197.805C89.652 197.864 89.6353 197.935 89.6418 198.005C89.6496 198.075 89.6715 198.142 89.7061 198.203C89.7407 198.263 89.7874 198.316 89.8431 198.358C89.9539 198.44 90.0765 198.504 90.2065 198.549C90.7609 198.765 91.3325 198.934 91.9151 199.053V199.183C92.3189 199.388 92.7648 199.494 93.2169 199.495C93.2503 199.497 93.2837 199.491 93.314 199.477C93.3558 199.445 93.3848 199.4 93.3955 199.348C93.5309 198.94 93.6165 198.518 93.6505 198.089C93.7303 198.084 93.8083 198.064 93.8807 198.03C94.1006 197.97 94.3185 198.121 94.5446 198.146C94.8233 198.176 95.0824 198.013 95.3457 197.912C95.3839 197.898 95.4221 197.885 95.4603 197.873C95.3852 197.971 95.2965 198.057 95.197 198.13C95.0876 198.209 94.9647 198.267 94.8574 198.349C94.7681 198.431 94.6725 198.506 94.5714 198.573C94.5001 198.606 94.4266 198.634 94.3515 198.658C94.2426 198.698 94.1386 198.75 94.0418 198.815C93.9551 198.866 93.8815 198.937 93.8271 199.023C93.7996 199.062 93.7828 199.109 93.7781 199.157C93.7734 199.205 93.781 199.254 93.8003 199.298C93.8195 199.342 93.8497 199.381 93.888 199.41C93.9263 199.44 93.9715 199.459 94.0191 199.466C94.1053 199.481 94.1933 199.483 94.2803 199.473C94.6251 199.447 94.9689 199.415 95.3126 199.383C95.4582 199.374 95.6028 199.353 95.7452 199.321C95.8206 199.302 95.8949 199.277 95.9703 199.258C96.0988 199.223 96.2307 199.204 96.3636 199.198C96.4022 199.195 96.441 199.199 96.4782 199.21C96.5587 199.236 96.6155 199.314 96.6971 199.335C96.75 199.34 96.8034 199.332 96.8529 199.313C97.1046 199.258 97.3614 199.23 97.619 199.231C97.7315 199.224 97.8636 199.203 97.9163 199.098C97.9803 198.968 97.8729 198.822 97.8306 198.682C97.809 198.592 97.7973 198.501 97.7955 198.409C97.7759 198.183 97.7113 197.963 97.6055 197.762C97.5493 197.668 97.502 197.569 97.4641 197.466C97.9574 197.277 98.4295 197.036 98.8723 196.747C99.1262 196.588 99.3884 196.416 99.6754 196.358C100.01 196.291 100.355 196.38 100.684 196.476C101.469 196.704 102.24 196.975 102.996 197.288C103.357 197.436 103.718 197.594 104.088 197.703C104.196 197.85 104.327 197.979 104.475 198.084C104.723 198.245 105.025 198.292 105.316 198.315C105.71 198.351 106.105 198.366 106.499 198.359C106.801 198.354 107.112 198.333 107.381 198.195C107.447 198.161 107.509 198.12 107.566 198.073C107.772 198.11 107.984 197.999 108.146 197.856C108.361 197.672 108.515 197.428 108.59 197.155C108.685 196.779 108.612 196.342 108.841 196.035C108.902 195.953 108.981 195.886 109.041 195.803C109.115 195.692 109.151 195.559 109.144 195.426L109.155 195.41C109.207 195.289 109.241 195.162 109.258 195.032C109.285 194.93 109.32 194.83 109.361 194.733C109.478 194.443 109.579 194.147 109.665 193.847C109.724 193.647 109.771 193.444 109.805 193.238C109.83 193.074 109.844 192.909 109.858 192.744C109.874 192.485 109.924 192.229 110.006 191.984C110.21 191.397 110.325 190.783 110.348 190.162C110.348 190.15 110.348 190.138 110.348 190.126C110.648 190.093 110.924 189.948 111.124 189.721C111.324 189.493 111.432 189.199 111.427 188.895C111.427 188.712 111.389 188.531 111.315 188.364C111.458 188.112 111.532 187.827 111.53 187.537ZM105.692 194.68C105.71 194.744 105.73 194.807 105.751 194.871C105.656 194.776 105.562 194.678 105.466 194.585C105.504 194.596 105.542 194.609 105.58 194.622C105.619 194.638 105.657 194.657 105.693 194.68H105.692ZM105.23 194.368C104.666 193.876 104.013 193.493 103.436 193.017C103.746 193.174 104.056 193.356 104.366 193.531C104.726 193.738 105.091 193.937 105.46 194.127C105.399 194.22 105.322 194.3 105.233 194.364L105.23 194.368ZM105.47 193.127L105.497 193.099C105.497 193.169 105.497 193.234 105.497 193.294C105.446 193.277 105.394 193.26 105.345 193.242C105.39 193.205 105.432 193.165 105.471 193.123L105.47 193.127ZM100.508 194.462C100.74 194.198 100.942 193.908 101.109 193.598C101.332 193.992 101.696 194.276 102.006 194.605C101.508 194.535 101.009 194.48 100.509 194.458L100.508 194.462Z" fill="url(#paint0_linear)"/>
<path d="M101.313 189.67L101.669 189.742L102.882 191.547L102.346 191.62L101.313 189.67Z" fill="#2F2E41"/>
<path d="M92.6873 196.994C92.7834 197.314 92.9017 197.627 93.0415 197.93C93.4434 197.845 93.8388 197.732 94.2246 197.59C94.1499 197.473 94.0678 197.361 93.9789 197.254C93.884 197.148 93.7706 197.06 93.6444 196.995C93.5215 196.941 93.3698 196.982 93.2386 196.989C93.0549 196.996 92.8711 196.998 92.6873 196.994Z" fill="#FBBEBE"/>
<path d="M93.6464 197.477C93.4461 197.413 93.3233 197.21 93.2417 197.013C93.1602 196.817 93.0941 196.603 92.9392 196.458C92.9098 196.463 92.8819 196.475 92.8581 196.493C92.8343 196.511 92.8154 196.535 92.803 196.562C92.773 196.614 92.7555 196.673 92.7214 196.723C92.6574 196.817 92.5438 196.862 92.4623 196.942C92.3807 197.022 92.3301 197.144 92.2424 197.224C92.1206 197.312 91.9784 197.367 91.8294 197.384C91.6044 197.436 91.3871 197.517 91.1832 197.625C91.1077 197.67 91.0273 197.704 90.9437 197.729C90.8514 197.747 90.7571 197.75 90.6639 197.739L90.0207 197.692C89.9635 197.685 89.9056 197.688 89.8493 197.7C89.7838 197.723 89.7279 197.768 89.6904 197.827C89.653 197.885 89.6362 197.955 89.6429 198.025C89.6514 198.094 89.6742 198.161 89.7097 198.221C89.7453 198.281 89.7928 198.332 89.8493 198.373C89.9612 198.453 90.0844 198.516 90.2148 198.56C90.7752 198.772 91.3518 198.938 91.9389 199.056V199.184C92.3469 199.387 92.7957 199.494 93.251 199.496C93.2864 199.499 93.3219 199.493 93.3542 199.478C93.3961 199.447 93.4254 199.402 93.4368 199.351C93.5911 198.897 93.6812 198.423 93.7042 197.944C93.7161 197.822 93.707 197.7 93.6774 197.582C93.6423 197.465 93.762 197.514 93.6505 197.468" fill="#2F2E41"/>
<path d="M105.977 195.036C104.07 195.152 102.187 194.589 100.277 194.528C100.04 194.514 99.8024 194.529 99.5691 194.574C99.326 194.64 99.0906 194.732 98.8671 194.849C97.844 195.328 96.7848 195.725 95.7266 196.122L94.5126 196.577C94.2689 196.668 94.0181 196.76 93.7589 196.745C93.6433 196.738 93.5019 196.72 93.4358 196.818C93.2386 197.112 93.3326 197.545 93.4627 197.876C93.505 197.98 93.5762 198.099 93.6898 198.112C93.7701 198.106 93.8488 198.086 93.9221 198.053C94.143 197.993 94.3639 198.143 94.591 198.167C94.8729 198.197 95.1341 198.036 95.3994 197.937C95.8392 197.774 96.3203 197.779 96.7828 197.701C97.5591 197.571 98.2776 197.209 98.9507 196.795C99.2068 196.638 99.4669 196.469 99.7601 196.412C100.098 196.346 100.446 196.433 100.777 196.528C101.567 196.753 102.345 197.02 103.107 197.327C103.504 197.501 103.911 197.65 104.325 197.774C105.229 198.014 106.185 197.958 107.055 197.614C107.365 197.492 107.691 197.278 107.708 196.947C107.719 196.757 107.573 196.591 107.476 196.427C107.413 196.323 107.351 196.219 107.283 196.12C106.955 195.638 106.556 195 105.977 195.036Z" fill="#2F2E41"/>
<path opacity="0.1" d="M105.977 195.036C104.07 195.152 102.187 194.589 100.277 194.528C100.04 194.514 99.8024 194.529 99.5691 194.574C99.326 194.64 99.0906 194.732 98.8671 194.849C97.844 195.328 96.7848 195.725 95.7266 196.122L94.5126 196.577C94.2689 196.668 94.0181 196.76 93.7589 196.745C93.6433 196.738 93.5019 196.72 93.4358 196.818C93.2386 197.112 93.3326 197.545 93.4627 197.876C93.505 197.98 93.5762 198.099 93.6898 198.112C93.7701 198.106 93.8488 198.086 93.9221 198.053C94.143 197.993 94.3639 198.143 94.591 198.167C94.8729 198.197 95.1341 198.036 95.3994 197.937C95.8392 197.774 96.3203 197.779 96.7828 197.701C97.5591 197.571 98.2776 197.209 98.9507 196.795C99.2068 196.638 99.4669 196.469 99.7601 196.412C100.098 196.346 100.446 196.433 100.777 196.528C101.567 196.753 102.345 197.02 103.107 197.327C103.504 197.501 103.911 197.65 104.325 197.774C105.229 198.014 106.185 197.958 107.055 197.614C107.365 197.492 107.691 197.278 107.708 196.947C107.719 196.757 107.573 196.591 107.476 196.427C107.413 196.323 107.351 196.219 107.283 196.12C106.955 195.638 106.556 195 105.977 195.036Z" fill="black"/>
<path d="M96.3471 197.088C96.6458 197.19 96.9466 197.284 97.2494 197.371C97.4198 197.089 97.7377 196.894 97.81 196.572C97.8141 196.558 97.8141 196.544 97.81 196.53C97.8021 196.516 97.7902 196.505 97.776 196.498C97.5583 196.378 97.3168 196.307 97.0688 196.291C96.8726 196.278 96.7838 196.484 96.695 196.628C96.6641 196.687 96.4266 197.115 96.3471 197.088Z" fill="#FBBEBE"/>
<path d="M96.7673 196.882C96.6781 196.867 96.593 196.834 96.5175 196.784C96.4419 196.734 96.3776 196.668 96.3285 196.592C96.2862 196.518 96.2418 196.418 96.1571 196.424C96.0725 196.429 96.0436 196.522 96.026 196.6C95.9689 196.892 95.8863 197.177 95.7793 197.454C95.6714 197.731 95.4887 197.973 95.2517 198.151C95.1413 198.228 95.0184 198.287 94.91 198.368C94.8197 198.449 94.723 198.523 94.621 198.588C94.5491 198.621 94.4749 198.649 94.399 198.671C94.2878 198.71 94.1814 198.762 94.0821 198.826C93.995 198.877 93.9211 198.949 93.8663 199.034C93.8399 199.077 93.8244 199.127 93.8211 199.177C93.8179 199.228 93.827 199.279 93.8477 199.325C93.87 199.363 93.8999 199.395 93.9354 199.421C93.971 199.446 94.0115 199.463 94.0542 199.472C94.1412 199.486 94.2298 199.488 94.3175 199.478C94.6654 199.452 95.0122 199.421 95.3591 199.39C95.506 199.38 95.6519 199.36 95.7958 199.329C95.8722 199.311 95.9465 199.286 96.0219 199.266C96.152 199.232 96.2852 199.213 96.4194 199.208C96.4583 199.205 96.4974 199.209 96.535 199.219C96.6155 199.245 96.6723 199.323 96.7549 199.342C96.8081 199.347 96.8618 199.34 96.9118 199.321C97.1657 199.267 97.4245 199.24 97.684 199.24C97.7976 199.234 97.9318 199.212 97.9834 199.109C98.0484 198.981 97.9411 198.838 97.8977 198.7C97.8763 198.612 97.8642 198.523 97.8616 198.432C97.842 198.209 97.777 197.992 97.6706 197.795C97.5818 197.631 97.4641 197.45 97.523 197.275C97.5546 197.221 97.5746 197.16 97.5818 197.097C97.5673 196.816 96.9242 196.92 96.7673 196.882Z" fill="#2F2E41"/>
<path d="M103.118 191.957C102.781 191.806 102.51 191.536 102.359 191.197C102.328 191.124 102.301 191.048 102.271 190.974C102.17 190.73 102.015 190.513 101.817 190.34C101.795 190.317 101.769 190.298 101.74 190.286C101.711 190.273 101.68 190.267 101.648 190.268C101.618 190.277 101.59 190.295 101.568 190.318C101.547 190.341 101.532 190.37 101.524 190.401C101.507 190.469 101.502 190.54 101.511 190.609C101.529 190.771 101.556 190.931 101.594 191.089L101.687 191.513C101.698 191.578 101.718 191.641 101.744 191.702C101.784 191.773 101.837 191.836 101.899 191.888C101.984 191.967 102.07 192.043 102.156 192.117C102.204 192.16 102.256 192.199 102.312 192.231C102.404 192.275 102.502 192.304 102.602 192.316C102.981 192.387 103.366 192.489 103.685 192.732C103.685 192.732 103.685 192.448 103.678 192.42C103.674 192.338 103.646 192.259 103.597 192.193C103.478 192.063 103.271 192.024 103.118 191.957Z" fill="#FBBEBE"/>
<path opacity="0.1" d="M103.118 191.957C102.781 191.806 102.51 191.536 102.359 191.197C102.328 191.124 102.301 191.048 102.271 190.974C102.17 190.73 102.015 190.513 101.817 190.34C101.795 190.317 101.769 190.298 101.74 190.286C101.711 190.273 101.68 190.267 101.648 190.268C101.618 190.277 101.59 190.295 101.568 190.318C101.547 190.341 101.532 190.37 101.524 190.401C101.507 190.469 101.502 190.54 101.511 190.609C101.529 190.771 101.556 190.931 101.594 191.089L101.687 191.513C101.698 191.578 101.718 191.641 101.744 191.702C101.784 191.773 101.837 191.836 101.899 191.888C101.984 191.967 102.07 192.043 102.156 192.117C102.204 192.16 102.256 192.199 102.312 192.231C102.404 192.275 102.502 192.304 102.602 192.316C102.981 192.387 103.366 192.489 103.685 192.732C103.685 192.732 103.685 192.448 103.678 192.42C103.674 192.338 103.646 192.259 103.597 192.193C103.478 192.063 103.271 192.024 103.118 191.957Z" fill="black"/>
<path d="M107 188.713C107.256 188.713 107.464 188.503 107.464 188.243C107.464 187.984 107.256 187.773 107 187.773C106.744 187.773 106.537 187.984 106.537 188.243C106.537 188.503 106.744 188.713 107 188.713Z" fill="#2F2E41"/>
<path d="M106.713 187.959C106.589 187.931 106.458 187.95 106.347 188.012C106.293 188.06 106.25 188.119 106.222 188.185C106.117 188.365 106.036 188.557 105.98 188.757C105.939 188.928 105.932 189.107 105.877 189.277C105.782 189.588 105.538 189.854 105.51 190.179C105.498 190.324 105.522 190.496 105.417 190.595C105.39 190.617 105.362 190.637 105.333 190.654C105.26 190.704 105.197 190.768 105.15 190.843C105.119 190.911 105.075 190.972 105.021 191.023C104.926 191.094 104.77 191.086 104.724 191.196C104.677 191.305 104.797 191.432 104.769 191.55C104.746 191.647 104.639 191.691 104.563 191.758C104.476 191.851 104.415 191.965 104.386 192.09C104.231 192.119 104.072 192.114 103.918 192.076C103.765 192.037 103.622 191.966 103.499 191.866C103.628 192.187 103.632 192.542 103.637 192.888C103.652 192.999 103.622 193.111 103.555 193.2C103.925 193.208 104.284 193.304 104.644 193.39C104.798 193.442 104.965 193.442 105.119 193.39C105.202 193.345 105.275 193.286 105.337 193.216C105.533 193.015 105.739 192.8 105.786 192.52C105.799 192.363 105.801 192.205 105.794 192.047C105.813 191.852 105.853 191.66 105.913 191.474C106.017 191.088 106.086 190.693 106.12 190.294C106.141 190.048 106.352 189.85 106.463 189.63C106.67 189.214 106.887 188.783 106.903 188.317C106.918 188.165 106.866 187.979 106.713 187.959Z" fill="#2F2E41"/>
<path opacity="0.1" d="M106.713 187.959C106.589 187.931 106.458 187.95 106.347 188.012C106.293 188.06 106.25 188.119 106.222 188.185C106.117 188.365 106.036 188.557 105.98 188.757C105.939 188.928 105.932 189.107 105.877 189.277C105.782 189.588 105.538 189.854 105.51 190.179C105.498 190.324 105.522 190.496 105.417 190.595C105.39 190.617 105.362 190.637 105.333 190.654C105.26 190.704 105.197 190.768 105.15 190.843C105.119 190.911 105.075 190.972 105.021 191.023C104.926 191.094 104.77 191.086 104.724 191.196C104.677 191.305 104.797 191.432 104.769 191.55C104.746 191.647 104.639 191.691 104.563 191.758C104.476 191.851 104.415 191.965 104.386 192.09C104.231 192.119 104.072 192.114 103.918 192.076C103.765 192.037 103.622 191.966 103.499 191.866C103.628 192.187 103.632 192.542 103.637 192.888C103.652 192.999 103.622 193.111 103.555 193.2C103.925 193.208 104.284 193.304 104.644 193.39C104.798 193.442 104.965 193.442 105.119 193.39C105.202 193.345 105.275 193.286 105.337 193.216C105.533 193.015 105.739 192.8 105.786 192.52C105.799 192.363 105.801 192.205 105.794 192.047C105.813 191.852 105.853 191.66 105.913 191.474C106.017 191.088 106.086 190.693 106.12 190.294C106.141 190.048 106.352 189.85 106.463 189.63C106.67 189.214 106.887 188.783 106.903 188.317C106.918 188.165 106.866 187.979 106.713 187.959Z" fill="black"/>
<path d="M106.28 195.44C105.882 195.25 105.592 194.896 105.271 194.592C104.658 194.012 103.908 193.602 103.264 193.059C102.838 192.699 102.456 192.28 101.986 191.978C101.573 191.713 101.104 191.548 100.617 191.495C100.561 191.485 100.504 191.488 100.45 191.503C100.388 191.531 100.335 191.574 100.294 191.628C100.086 191.864 99.9008 192.12 99.7415 192.392C98.9249 193.787 97.7656 194.961 96.8044 196.259C96.7736 196.29 96.7553 196.331 96.7532 196.375C96.7511 196.418 96.7653 196.461 96.7931 196.494L96.9882 196.88C97.0976 197.095 97.2731 197.347 97.5044 197.304C97.6105 197.273 97.7055 197.212 97.778 197.129L98.6555 196.283L99.5753 195.398C100.114 194.878 100.662 194.348 101.014 193.684C101.289 194.164 101.776 194.478 102.111 194.917C102.238 195.084 102.341 195.268 102.455 195.444C102.637 195.728 102.844 195.994 103.05 196.259L104.106 197.616C104.24 197.809 104.405 197.978 104.595 198.115C104.845 198.274 105.149 198.317 105.443 198.343C105.84 198.379 106.238 198.394 106.636 198.386C106.939 198.381 107.255 198.361 107.524 198.225C107.792 198.089 108.02 197.809 108.006 197.505C107.989 197.345 107.937 197.191 107.854 197.055C107.481 196.358 106.988 195.776 106.28 195.44Z" fill="#2F2E41"/>
<path d="M107.285 188.929C107.482 188.929 107.641 188.768 107.641 188.569C107.641 188.369 107.482 188.208 107.285 188.208C107.088 188.208 106.929 188.369 106.929 188.569C106.929 188.768 107.088 188.929 107.285 188.929Z" fill="#E8E8F0"/>
<path d="M107.207 188.297C107.287 188.459 107.301 188.645 107.246 188.817C107.191 188.986 107.114 189.147 107.017 189.295C106.933 189.449 106.833 189.592 106.718 189.724C107.269 189.751 107.802 189.533 108.288 189.269C108.679 189.061 109.069 188.796 109.278 188.4C109.215 188.415 109.151 188.417 109.088 188.405C109.025 188.394 108.966 188.369 108.913 188.333C108.808 188.259 108.714 188.171 108.633 188.071L108.358 187.759C108.293 187.69 108.235 187.615 108.187 187.533C108.127 187.423 108.101 187.296 108.114 187.17C108.004 187.286 107.882 187.389 107.749 187.476C107.551 187.606 107.336 187.7 107.136 187.827C107.066 187.873 106.91 187.947 106.951 188.035C106.991 188.124 107.151 188.198 107.207 188.297Z" fill="#FBBEBE"/>
<path opacity="0.1" d="M107.207 188.297C107.287 188.459 107.301 188.645 107.246 188.817C107.191 188.986 107.114 189.147 107.017 189.295C106.933 189.449 106.833 189.592 106.718 189.724C107.269 189.751 107.802 189.533 108.288 189.269C108.679 189.061 109.069 188.796 109.278 188.4C109.215 188.415 109.151 188.417 109.088 188.405C109.025 188.394 108.966 188.369 108.913 188.333C108.808 188.259 108.714 188.171 108.633 188.071L108.358 187.759C108.293 187.69 108.235 187.615 108.187 187.533C108.127 187.423 108.101 187.296 108.114 187.17C108.004 187.286 107.882 187.389 107.749 187.476C107.551 187.606 107.336 187.7 107.136 187.827C107.066 187.873 106.91 187.947 106.951 188.035C106.991 188.124 107.151 188.198 107.207 188.297Z" fill="black"/>
<path d="M107.214 188.351C107.158 188.431 107.128 188.525 107.128 188.622C107.128 188.719 107.158 188.814 107.214 188.893C107.229 188.913 107.288 189.036 107.317 189.038C107.341 189.035 107.364 189.024 107.38 189.005C107.505 188.874 107.621 188.735 107.729 188.589C107.838 188.442 107.995 188.338 108.173 188.296C108.389 188.262 108.596 188.377 108.785 188.488C108.866 188.528 108.937 188.587 108.992 188.66C109.031 188.732 109.055 188.813 109.061 188.895C109.115 189.391 109.136 189.889 109.123 190.388C109.133 190.747 109.109 191.107 109.052 191.462C109.017 191.645 108.965 191.824 108.94 192.009C108.922 192.172 108.915 192.335 108.918 192.499V193.185C108.914 193.311 108.923 193.437 108.945 193.561C108.988 193.708 109.038 193.854 109.095 193.996C109.145 194.166 109.18 194.34 109.198 194.516L109.291 195.226C109.321 195.451 109.343 195.695 109.207 195.875C109.147 195.957 109.067 196.021 109.001 196.103C108.769 196.4 108.846 196.831 108.743 197.2C108.666 197.471 108.51 197.712 108.295 197.892C108.131 198.032 107.918 198.143 107.705 198.1C107.419 198.045 107.247 197.745 107.168 197.461C107.09 197.177 107.065 196.868 106.893 196.63C106.754 196.433 106.541 196.31 106.348 196.17C106.155 196.03 105.965 195.85 105.922 195.613C105.904 195.509 105.915 195.405 105.905 195.301C105.889 195.169 105.839 195.043 105.759 194.937C105.678 194.83 105.571 194.748 105.448 194.698C105.302 194.641 105.12 194.62 105.036 194.49C105.246 194.357 105.399 194.15 105.465 193.909C105.529 193.672 105.564 193.427 105.568 193.181L105.618 192.356C105.639 191.987 105.65 191.621 105.811 191.289C105.883 191.142 105.973 191.002 106.047 190.856C106.147 190.65 106.232 190.437 106.301 190.22C106.418 189.882 106.536 189.543 106.64 189.201C106.682 189.035 106.744 188.875 106.826 188.726C106.922 188.57 107.049 188.383 107.214 188.351Z" fill="#E8E8F0"/>
<path d="M105.394 193.715L105.611 193.722L105.657 193.392C105.663 193.326 105.678 193.262 105.702 193.2C105.738 193.135 105.78 193.073 105.827 193.016C106.041 192.712 106.026 192.309 106.078 191.94C106.148 191.448 106.353 190.987 106.555 190.533L106.976 189.588C107.014 189.511 107.044 189.43 107.066 189.346C107.085 189.254 107.093 189.16 107.092 189.067C107.092 188.921 107.14 188.39 107.143 188.243C107.143 188.189 107.025 188.219 107 188.172C106.947 188.068 106.875 188.35 106.776 188.413C106.683 188.485 106.615 188.585 106.582 188.699C106.491 188.937 106.435 189.187 106.351 189.426C106.276 189.671 106.141 189.893 105.957 190.07C105.872 190.147 105.772 190.207 105.69 190.288C105.428 190.549 105.403 190.961 105.394 191.328C105.388 191.555 105.345 193.715 105.394 193.715Z" fill="#2F2E41"/>
<path d="M108.517 187.957C108.31 188.041 108.19 188.269 108.132 188.492C108.073 188.714 108.048 188.949 107.934 189.147C107.67 189.61 106.996 189.745 106.809 190.246C106.762 190.416 106.736 190.59 106.734 190.766C106.701 191.125 106.583 191.472 106.548 191.831C106.53 192.11 106.536 192.39 106.568 192.668L106.804 195.498C106.85 195.915 106.826 196.337 106.733 196.746C106.975 196.781 107.223 196.74 107.441 196.628C107.663 196.525 107.865 196.387 108.078 196.269C108.444 196.061 108.849 195.921 109.169 195.645C109.227 195.599 109.277 195.544 109.317 195.482C109.368 195.363 109.403 195.237 109.42 195.109C109.447 195.008 109.482 194.91 109.523 194.815C109.642 194.53 109.745 194.239 109.833 193.942C109.893 193.746 109.94 193.545 109.974 193.342C110 193.181 110.014 193.018 110.028 192.856C110.045 192.601 110.095 192.349 110.178 192.107C110.383 191.531 110.498 190.926 110.522 190.314C110.529 190.226 110.523 190.137 110.504 190.05C110.468 189.945 110.421 189.844 110.362 189.751C110.263 189.565 110.205 189.36 110.112 189.172C109.905 188.745 109.535 188.422 109.147 188.151C108.949 188.019 108.731 187.875 108.517 187.957Z" fill="#2F2E41"/>
<path d="M103.588 192.576C103.421 192.488 103.269 192.372 103.139 192.233C103.08 192.163 103.036 192.086 102.972 192.017C102.82 191.854 102.623 191.741 102.407 191.693C102.192 191.645 101.973 191.624 101.753 191.629C101.606 191.619 101.458 191.637 101.318 191.682C101.248 191.705 101.184 191.746 101.134 191.801C101.083 191.855 101.047 191.922 101.029 191.994C100.997 192.171 101.112 192.342 101.249 192.455C101.377 192.56 101.527 192.633 101.688 192.67C101.819 192.693 101.951 192.708 102.084 192.717C102.864 192.799 103.561 193.226 104.245 193.616C104.846 193.957 105.458 194.277 106.082 194.575C106.107 194.387 106.118 194.197 106.113 194.008C106.113 193.866 106.103 193.65 105.97 193.567C105.815 193.469 105.557 193.447 105.386 193.389C104.983 193.257 104.59 193.097 104.21 192.911C103.994 192.806 103.787 192.695 103.588 192.576Z" fill="#FBBEBE"/>
<path d="M107 188.136C107.768 188.136 108.391 187.506 108.391 186.728C108.391 185.95 107.768 185.319 107 185.319C106.232 185.319 105.61 185.95 105.61 186.728C105.61 187.506 106.232 188.136 107 188.136Z" fill="#FBBEBE"/>
<path d="M108.914 189.554C108.803 189.711 108.713 189.881 108.645 190.06C108.472 190.417 108.203 190.723 108.069 191.1C107.926 191.492 107.931 191.959 107.656 192.267C107.6 192.314 107.559 192.375 107.535 192.444C107.533 192.487 107.528 192.53 107.52 192.572C107.481 192.684 107.299 192.69 107.264 192.804C107.255 192.837 107.264 192.874 107.248 192.908C107.22 192.982 107.124 192.992 107.059 193.037C106.924 193.129 106.956 193.343 106.853 193.477C106.811 193.526 106.756 193.563 106.695 193.585C106.635 193.606 106.569 193.611 106.506 193.599C106.379 193.572 106.257 193.526 106.144 193.463C106.105 193.441 106.061 193.427 106.015 193.422C105.961 193.424 105.909 193.441 105.866 193.473C105.609 193.638 105.488 193.964 105.49 194.272C105.508 194.58 105.58 194.882 105.704 195.164C105.718 195.213 105.742 195.258 105.775 195.297C105.859 195.387 106.008 195.373 106.122 195.322C106.228 195.258 106.341 195.207 106.459 195.17C106.674 195.13 106.885 195.28 107.102 195.268C107.262 195.243 107.412 195.177 107.537 195.074C107.758 194.939 107.956 194.769 108.123 194.57C108.218 194.444 108.289 194.301 108.372 194.167C108.479 194.002 108.596 193.844 108.723 193.695L109.525 192.706C109.606 192.613 109.678 192.512 109.741 192.406C109.813 192.262 109.87 192.111 109.909 191.955C109.995 191.694 110.051 191.424 110.076 191.151C110.08 190.925 110.06 190.698 110.017 190.476C109.99 190.255 109.932 190.039 109.844 189.835C109.666 189.471 109.241 189.17 108.914 189.554Z" fill="#2F2E41"/>
<path d="M111.708 187.719C111.709 187.47 111.651 187.223 111.539 187C111.427 186.777 111.264 186.585 111.064 186.437C111.057 185.994 110.895 185.567 110.606 185.233C110.316 184.899 109.918 184.679 109.483 184.613C109.399 184.193 109.17 183.816 108.837 183.55C108.504 183.283 108.089 183.143 107.663 183.154C107.238 183.166 106.83 183.328 106.512 183.613C106.194 183.897 105.986 184.286 105.924 184.71C105.346 184.579 104.818 184.749 104.722 185.108C104.618 185.483 105.031 185.922 105.643 186.088C105.834 186.143 106.034 186.163 106.232 186.147C106.374 186.358 106.558 186.536 106.773 186.67C106.987 186.804 107.227 186.892 107.477 186.927C107.551 187.266 107.716 187.578 107.956 187.827C108.196 188.076 108.5 188.253 108.835 188.338C108.927 188.563 109.071 188.763 109.254 188.922C109.254 188.966 109.247 189.01 109.247 189.056C109.24 189.216 109.265 189.376 109.322 189.525C109.378 189.675 109.463 189.811 109.573 189.927C109.683 190.042 109.815 190.134 109.961 190.197C110.107 190.26 110.265 190.292 110.423 190.292C110.582 190.292 110.74 190.26 110.886 190.197C111.032 190.134 111.164 190.042 111.274 189.927C111.384 189.811 111.469 189.675 111.525 189.525C111.582 189.376 111.607 189.216 111.6 189.056C111.6 188.877 111.562 188.7 111.488 188.536C111.633 188.289 111.709 188.007 111.708 187.719Z" fill="#F86D70"/>
<path opacity="0.1" d="M105.114 185.18C105.21 184.821 105.733 184.65 106.317 184.781C106.385 184.351 106.601 183.958 106.929 183.673C107.256 183.388 107.673 183.228 108.106 183.222C108.146 183.222 108.186 183.222 108.226 183.222C108.058 183.171 107.884 183.145 107.709 183.145C107.277 183.151 106.86 183.311 106.532 183.596C106.205 183.881 105.988 184.274 105.92 184.705C105.342 184.574 104.814 184.744 104.718 185.103C104.614 185.478 105.027 185.917 105.638 186.083C105.752 186.115 105.869 186.135 105.986 186.143C105.406 185.973 105.016 185.547 105.114 185.18Z" fill="black"/>
<path opacity="0.1" d="M109.639 189.129C109.639 189.083 109.639 189.039 109.646 188.994C109.463 188.835 109.319 188.635 109.227 188.411C108.893 188.325 108.589 188.148 108.349 187.899C108.11 187.649 107.943 187.338 107.869 186.999C107.619 186.964 107.379 186.876 107.165 186.742C106.95 186.607 106.766 186.429 106.624 186.219C106.509 186.228 106.392 186.225 106.277 186.21C106.42 186.404 106.6 186.567 106.806 186.69C107.012 186.813 107.24 186.894 107.477 186.927C107.551 187.266 107.716 187.578 107.956 187.827C108.196 188.076 108.5 188.253 108.835 188.338C108.927 188.563 109.071 188.763 109.254 188.922C109.254 188.966 109.247 189.01 109.247 189.056C109.241 189.375 109.361 189.683 109.581 189.913C109.8 190.142 110.101 190.276 110.417 190.283C110.186 190.193 109.988 190.035 109.849 189.828C109.71 189.622 109.637 189.378 109.639 189.129Z" fill="black"/>
<path d="M107.636 187.244C107.731 187.171 107.73 187.01 107.634 186.883C107.539 186.757 107.385 186.713 107.29 186.785C107.196 186.857 107.197 187.018 107.292 187.145C107.388 187.272 107.542 187.316 107.636 187.244Z" fill="#FBBEBE"/>
<path d="M74.3958 194.253L75.7709 193.439C75.5851 193.119 75.3475 192.833 75.0679 192.592L72.4746 193.404L74.5063 192.201C74.0032 191.924 73.437 191.783 72.8635 191.793C72.29 191.802 71.7289 191.962 71.2354 192.257C70.7419 192.551 70.3331 192.97 70.0491 193.472C69.7652 193.974 69.6159 194.541 69.6159 195.119C69.6159 196.956 71.0953 197.019 72.9195 197.019C74.7437 197.019 76.2231 196.956 76.2231 195.119C76.2242 194.653 76.1275 194.193 75.9392 193.768L74.3958 194.253Z" fill="#2CB674"/>
<path opacity="0.1" d="M74.7458 196.039C74.5993 195.891 74.4357 195.762 74.2585 195.653C74.0097 195.486 73.7506 195.316 73.4564 195.259C73.1983 195.209 72.9319 195.252 72.6687 195.237C72.2115 195.208 71.7813 195.01 71.4618 194.679C71.2739 194.484 71.1263 194.244 70.9002 194.094C70.6475 193.943 70.3494 193.888 70.0599 193.939C69.976 193.951 69.8929 193.968 69.8111 193.99C69.6817 194.352 69.6156 194.734 69.6159 195.119C69.6159 196.956 71.0953 197.019 72.9195 197.019C73.8053 197.019 74.6085 197.005 75.2021 196.779L75.0989 196.593C75.0051 196.394 74.8864 196.208 74.7458 196.039Z" fill="black"/>
</g>
</g>
<defs>
<linearGradient id="paint0_linear" x1="100.587" y1="199.496" x2="100.587" y2="182.9" gradientUnits="userSpaceOnUse">
<stop stop-color="#808080" stop-opacity="0.25"/>
<stop offset="0.54" stop-color="#808080" stop-opacity="0.12"/>
<stop offset="1" stop-color="#808080" stop-opacity="0.1"/>
</linearGradient>
<clipPath id="clip0">
<rect width="217" height="190" fill="white" transform="translate(42 55)"/>
</clipPath>
<clipPath id="clip1">
<rect width="118" height="69" fill="white" transform="translate(42 133)"/>
</clipPath>
</defs>
</svg>
