<svg width="300" height="300" viewBox="0 0 300 300" fill="none" xmlns="http://www.w3.org/2000/svg">
<circle r="35" transform="matrix(-1 0 0 1 265 35)" fill="#F3ECAA"/>
<circle cx="150" cy="150" r="150" fill="#F2FCF5"/>
<circle r="34.25" transform="matrix(-1 0 0 1 35 265)" stroke="#F3ECAA" stroke-width="1.5"/>
<g clip-path="url(#clip0)">
<path opacity="0.1" d="M261.329 182.384C261.12 182.538 260.927 182.687 260.721 182.832C259.963 183.369 259.17 183.854 258.346 184.283C254.032 186.562 248.713 187.675 243.533 188.431C231.915 190.128 220.054 190.457 208.243 190.781C176.329 191.659 144.339 192.534 112.503 190.512C99.9248 189.714 87.0698 188.378 75.6718 184.283C74.038 183.698 72.4364 183.052 70.8669 182.347C67.6909 180.916 64.6406 179.175 62.104 177.096C59.7204 175.147 57.7876 172.909 56.6325 170.363C54.2237 165.062 55.4983 159.108 58.2488 153.913C59.3911 151.811 60.6794 149.792 62.104 147.87C64.2277 144.945 66.5693 142.103 68.7055 139.18C76.307 128.788 81.267 115.642 74.2504 104.983C72.2337 101.921 69.3198 99.233 67.6762 96.0366C65.5798 91.9476 65.7412 87.407 66.4079 82.9967C66.4945 82.4367 66.5861 81.8822 66.6825 81.3334C67.8209 74.7935 69.9634 67.7475 76.569 63.6648C83.4305 59.4225 93.1745 59.6367 101.69 61.1446C114.933 63.5136 127.148 68.4448 139.494 72.8971C151.84 77.3494 164.755 81.4174 178.323 81.8542C190.304 82.2407 204.278 79.3488 212.23 71.8323C219.953 64.5322 234.47 63.9756 244.933 68.386C252.116 71.4123 257.474 76.8643 259.734 82.9967C260.192 84.2279 260.521 85.5032 260.717 86.8022C260.898 87.9894 260.957 89.1921 260.893 90.3914C260.862 90.9836 260.801 91.5696 260.717 92.1492C258.969 104.25 246.384 113.795 238.734 124.605C234.997 129.885 232.357 136.227 234.927 141.921C238.848 150.596 252.48 153.682 260.713 160.137C262.262 161.312 263.626 162.714 264.759 164.296C268.753 170.042 267.279 177.802 261.329 182.384Z" fill="#2CB674"/>
<path d="M87.0845 128.226C87.0845 128.226 77.4412 111.105 62.909 106.174C56.8107 104.103 51.488 100.21 47.8487 94.8877C46.1257 92.3611 44.638 89.6812 43.4043 86.882" stroke="#535461" stroke-width="2" stroke-miterlimit="10"/>
<path d="M34.2662 83.7128C35.9224 85.3152 43.6328 86.9953 43.6328 86.9953C43.6328 86.9953 41.7461 79.3256 40.0858 77.7148C39.2877 76.9576 38.2239 76.5461 37.125 76.5693C36.026 76.5925 34.9805 77.0486 34.2149 77.8387C33.4494 78.6289 33.0255 79.6894 33.0351 80.7905C33.0447 81.8916 33.487 82.9446 34.2662 83.7212V83.7128Z" fill="#2CB674"/>
<path d="M38.6287 97.5928C40.8907 98.0422 48.2721 95.2427 48.2721 95.2427C48.2721 95.2427 42.5175 89.8327 40.2534 89.3833C39.1774 89.1934 38.0699 89.4334 37.1684 90.0518C36.2669 90.6702 35.643 91.6178 35.4306 92.6915C35.2181 93.7651 35.4339 94.8795 36.0317 95.7956C36.6295 96.7118 37.5618 97.357 38.6287 97.5928Z" fill="#2CB674"/>
<path d="M54.5089 112.617C56.6892 111.861 61.6366 105.714 61.6366 105.714C61.6366 105.714 53.9471 103.952 51.7689 104.708C51.2345 104.874 50.7389 105.147 50.3114 105.508C49.884 105.87 49.5335 106.315 49.2808 106.815C49.028 107.315 48.8782 107.861 48.8401 108.42C48.802 108.98 48.8765 109.541 49.0591 110.071C49.2417 110.601 49.5287 111.089 49.9031 111.505C50.2775 111.922 50.7317 112.259 51.2386 112.497C51.7456 112.734 52.295 112.867 52.8542 112.888C53.4135 112.909 53.9712 112.817 54.4942 112.617H54.5089Z" fill="#2CB674"/>
<path d="M69.0787 121.268C71.3554 120.89 77.2756 115.671 77.2756 115.671C77.2756 115.671 69.9948 112.632 67.7182 113.008C66.6248 113.189 65.6479 113.797 65.0024 114.699C64.3568 115.602 64.0955 116.724 64.2759 117.819C64.4563 118.915 65.0637 119.893 65.9644 120.54C66.8651 121.187 67.9854 121.448 69.0787 121.268Z" fill="#2CB674"/>
<path d="M54.6955 89.2488C54.6955 91.559 50.5237 98.2647 50.5237 98.2647C50.5237 98.2647 46.3435 91.5632 46.3414 89.253C46.3289 88.6956 46.4277 88.1413 46.6321 87.6227C46.8364 87.104 47.1421 86.6315 47.5312 86.2329C47.9203 85.8343 48.385 85.5175 48.8979 85.3013C49.4109 85.085 49.9619 84.9736 50.5184 84.9736C51.075 84.9736 51.6259 85.085 52.1389 85.3013C52.6519 85.5175 53.1166 85.8343 53.5057 86.2329C53.8948 86.6315 54.2005 87.104 54.4048 87.6227C54.6091 88.1413 54.7079 88.6956 54.6955 89.253V89.2488Z" fill="#2CB674"/>
<path d="M71.6091 99.5963C70.9194 101.801 64.9342 106.947 64.9342 106.947C64.9342 106.947 62.9469 99.2918 63.6282 97.0761C63.9944 96.0616 64.7374 95.228 65.7022 94.749C66.6671 94.2701 67.7793 94.1828 68.8068 94.5054C69.8344 94.8281 70.6979 95.5357 71.2172 96.4806C71.7366 97.4256 71.8717 98.535 71.5944 99.5774L71.6091 99.5963Z" fill="#2CB674"/>
<path d="M86.6695 111.893C86.3634 114.184 81.3321 120.268 81.3321 120.268C81.3321 120.268 78.0827 113.069 78.3972 110.777C78.56 109.691 79.1429 108.712 80.0201 108.052C80.8973 107.392 81.9984 107.104 83.0856 107.25C84.1729 107.397 85.159 107.966 85.8311 108.834C86.5032 109.703 86.8073 110.801 86.6779 111.893H86.6695Z" fill="#2CB674"/>
<path opacity="0.25" d="M34.2662 83.7128C35.9224 85.3152 43.6328 86.9953 43.6328 86.9953C43.6328 86.9953 41.7461 79.3256 40.0858 77.7148C39.2877 76.9576 38.2239 76.5461 37.125 76.5693C36.026 76.5925 34.9805 77.0486 34.2149 77.8387C33.4494 78.6289 33.0255 79.6894 33.0351 80.7905C33.0447 81.8916 33.487 82.9446 34.2662 83.7212V83.7128Z" fill="black"/>
<path opacity="0.25" d="M38.6287 97.5928C40.8907 98.0422 48.2721 95.2427 48.2721 95.2427C48.2721 95.2427 42.5175 89.8327 40.2534 89.3833C39.1774 89.1934 38.0699 89.4334 37.1684 90.0518C36.2669 90.6702 35.643 91.6178 35.4306 92.6915C35.2181 93.7651 35.4339 94.8795 36.0317 95.7956C36.6295 96.7118 37.5618 97.357 38.6287 97.5928Z" fill="black"/>
<path opacity="0.25" d="M54.5089 112.617C56.6892 111.861 61.6366 105.714 61.6366 105.714C61.6366 105.714 53.9471 103.952 51.7689 104.708C51.2345 104.874 50.7389 105.147 50.3114 105.508C49.884 105.87 49.5335 106.315 49.2808 106.815C49.028 107.315 48.8782 107.861 48.8401 108.42C48.802 108.98 48.8765 109.541 49.0591 110.071C49.2417 110.601 49.5287 111.089 49.9031 111.505C50.2775 111.922 50.7317 112.259 51.2386 112.497C51.7456 112.734 52.295 112.867 52.8542 112.888C53.4135 112.909 53.9712 112.817 54.4942 112.617H54.5089Z" fill="black"/>
<path opacity="0.25" d="M69.0787 121.268C71.3554 120.89 77.2756 115.671 77.2756 115.671C77.2756 115.671 69.9948 112.632 67.7182 113.008C66.6248 113.189 65.6479 113.797 65.0024 114.699C64.3568 115.602 64.0955 116.724 64.2759 117.819C64.4563 118.915 65.0637 119.893 65.9644 120.54C66.8651 121.187 67.9854 121.448 69.0787 121.268Z" fill="black"/>
<path opacity="0.25" d="M54.6955 89.2488C54.6955 91.559 50.5237 98.2647 50.5237 98.2647C50.5237 98.2647 46.3435 91.5632 46.3414 89.253C46.3289 88.6956 46.4277 88.1413 46.6321 87.6227C46.8364 87.104 47.1421 86.6315 47.5312 86.2329C47.9203 85.8343 48.385 85.5175 48.8979 85.3013C49.4109 85.085 49.9619 84.9736 50.5184 84.9736C51.075 84.9736 51.6259 85.085 52.1389 85.3013C52.6519 85.5175 53.1166 85.8343 53.5057 86.2329C53.8948 86.6315 54.2005 87.104 54.4048 87.6227C54.6091 88.1413 54.7079 88.6956 54.6955 89.253V89.2488Z" fill="black"/>
<path opacity="0.25" d="M71.6091 99.5963C70.9194 101.801 64.9342 106.947 64.9342 106.947C64.9342 106.947 62.9469 99.2918 63.6282 97.0761C63.9944 96.0616 64.7374 95.228 65.7022 94.749C66.6671 94.2701 67.7793 94.1828 68.8068 94.5054C69.8344 94.8281 70.6979 95.5357 71.2172 96.4806C71.7366 97.4256 71.8717 98.535 71.5944 99.5774L71.6091 99.5963Z" fill="black"/>
<path opacity="0.25" d="M86.6695 111.893C86.3634 114.184 81.3321 120.268 81.3321 120.268C81.3321 120.268 78.0827 113.069 78.3972 110.777C78.56 109.691 79.1429 108.712 80.0201 108.052C80.8973 107.392 81.9984 107.104 83.0856 107.25C84.1729 107.397 85.159 107.966 85.8311 108.834C86.5032 109.703 86.8073 110.801 86.6779 111.893H86.6695Z" fill="black"/>
<path d="M86.529 127.885C86.529 127.885 84.6422 108.316 73.3469 97.9077C68.6112 93.5394 65.3199 87.827 64.1438 81.4761C63.5918 78.466 63.3167 75.4115 63.322 72.351" stroke="#535461" stroke-width="2" stroke-miterlimit="10"/>
<path d="M56.2468 65.7502C57.1105 67.8944 63.4856 72.5463 63.4856 72.5463C63.4856 72.5463 64.8587 64.7652 63.9971 62.6209C63.5829 61.5905 62.777 60.7671 61.7568 60.3319C60.7366 59.8967 59.5856 59.8853 58.557 60.3003C57.5284 60.7152 56.7065 61.5225 56.2721 62.5446C55.8376 63.5667 55.8263 64.7197 56.2405 65.7502H56.2468Z" fill="#2CB674"/>
<path d="M54.6137 80.2097C56.5005 81.5391 64.3766 81.9738 64.3766 81.9738C64.3766 81.9738 61.3221 74.6947 59.4354 73.3653C58.5294 72.7248 57.4065 72.471 56.3138 72.6599C55.221 72.8487 54.2479 73.4647 53.6085 74.3723C52.9691 75.28 52.7158 76.4049 52.9043 77.4996C53.0928 78.5943 53.7077 79.5692 54.6137 80.2097Z" fill="#2CB674"/>
<path d="M63.0642 100.388C65.3702 100.583 72.3805 96.9732 72.3805 96.9732C72.3805 96.9732 66.0641 92.2415 63.7644 92.0483C63.2111 91.9893 62.6515 92.0416 62.1187 92.2022C61.5858 92.3627 61.0903 92.6283 60.6612 92.9833C60.2322 93.3384 59.8783 93.7757 59.6203 94.2696C59.3623 94.7635 59.2053 95.3041 59.1587 95.8596C59.112 96.4151 59.1766 96.9743 59.3487 97.5045C59.5207 98.0346 59.7968 98.525 60.1606 98.9468C60.5244 99.3687 60.9686 99.7134 61.4672 99.9609C61.9659 100.208 62.5088 100.354 63.0642 100.388Z" fill="#2CB674"/>
<path d="M72.8836 114.215C75.1183 114.795 82.6422 112.426 82.6422 112.426C82.6422 112.426 77.2147 106.693 74.9821 106.113C73.9163 105.854 72.7918 106.026 71.8511 106.59C70.9104 107.155 70.229 108.067 69.9539 109.131C69.6787 110.194 69.8319 111.323 70.3804 112.275C70.9289 113.226 71.8287 113.923 72.8857 114.215H72.8836Z" fill="#2CB674"/>
<path d="M72.6845 79.1051C71.7516 81.2179 65.2235 85.6513 65.2235 85.6513C65.2235 85.6513 64.1124 77.8303 65.0453 75.7155C65.2614 75.2038 65.5769 74.7403 65.9736 74.3521C66.3703 73.9639 66.8402 73.6586 67.3559 73.4542C67.8715 73.2498 68.4226 73.1502 68.9771 73.1614C69.5316 73.1725 70.0782 73.2941 70.5853 73.5191C71.0924 73.7441 71.5496 74.068 71.9305 74.4718C72.3113 74.8757 72.6081 75.3514 72.8035 75.8714C72.9988 76.3913 73.089 76.945 73.0686 77.5002C73.0481 78.0554 72.9176 78.601 72.6845 79.1051Z" fill="#2CB674"/>
<path d="M83.9629 95.4191C82.441 97.1559 74.8877 99.4304 74.8877 99.4304C74.8877 99.4304 76.1623 91.6346 77.6864 89.8978C78.0483 89.4849 78.4878 89.1475 78.9798 88.9048C79.4719 88.6621 80.0068 88.5189 80.5541 88.4833C81.1014 88.4477 81.6504 88.5204 82.1696 88.6974C82.6889 88.8743 83.1682 89.152 83.5804 89.5145C83.9925 89.877 84.3293 90.3174 84.5716 90.8103C84.8138 91.3032 84.9568 91.8391 84.9923 92.3874C85.0279 92.9357 84.9552 93.4857 84.7786 94.0058C84.602 94.526 84.3248 95.0062 83.9629 95.4191Z" fill="#2CB674"/>
<path d="M92.7678 112.785C91.5602 114.755 84.4996 118.275 84.4996 118.275C84.4996 118.275 84.4409 110.374 85.6485 108.404C86.2284 107.457 87.16 106.78 88.2384 106.521C89.3168 106.263 90.4536 106.444 91.3988 107.025C92.344 107.605 93.0201 108.539 93.2784 109.619C93.5367 110.699 93.356 111.838 92.7761 112.785H92.7678Z" fill="#2CB674"/>
<path opacity="0.1" d="M118.566 238.87C131.479 238.87 141.947 237.505 141.947 235.821C141.947 234.137 131.479 232.771 118.566 232.771C105.653 232.771 95.1849 234.137 95.1849 235.821C95.1849 237.505 105.653 238.87 118.566 238.87Z" fill="#2CB674"/>
<path opacity="0.1" d="M71.3386 236.804C75.2612 236.804 78.4412 236.258 78.4412 235.586C78.4412 234.913 75.2612 234.367 71.3386 234.367C67.416 234.367 64.2361 234.913 64.2361 235.586C64.2361 236.258 67.416 236.804 71.3386 236.804Z" fill="#2CB674"/>
<path d="M72.8815 222.023C72.8815 222.023 74.0324 223.533 72.349 225.803C70.6656 228.073 69.2778 230.003 69.8333 231.425C69.8333 231.425 72.3721 227.193 74.4454 227.134C76.5187 227.076 75.1581 224.568 72.8815 222.023Z" fill="#2CB674"/>
<path opacity="0.1" d="M72.8816 222.023C72.9821 222.169 73.0612 222.329 73.1164 222.497C75.1331 224.871 76.2085 227.086 74.2694 227.141C72.4644 227.193 70.2968 230.428 69.779 231.244C69.7961 231.308 69.8164 231.37 69.8398 231.431C69.8398 231.431 72.3785 227.2 74.4518 227.141C76.5251 227.082 75.1583 224.568 72.8816 222.023Z" fill="black"/>
<path d="M75.0219 223.946C75.0219 224.478 74.9632 224.908 74.8898 224.908C74.8164 224.908 74.7556 224.488 74.7556 223.946C74.7556 223.405 74.8311 223.665 74.9045 223.665C74.9779 223.665 75.0219 223.415 75.0219 223.946Z" fill="#FFD037"/>
<path d="M75.7578 224.581C75.2924 224.835 74.8857 224.988 74.8501 224.923C74.8145 224.858 75.1645 224.6 75.6299 224.345C76.0953 224.091 75.9109 224.276 75.9465 224.345C75.9821 224.415 76.2232 224.327 75.7578 224.581Z" fill="#FFD037"/>
<path d="M66.7978 222.023C66.7978 222.023 65.6469 223.533 67.3303 225.803C69.0137 228.073 70.4015 230.003 69.8459 231.425C69.8459 231.425 67.3072 227.193 65.2339 227.134C63.1606 227.076 64.5253 224.568 66.7978 222.023Z" fill="#2CB674"/>
<path opacity="0.1" d="M66.7978 222.023C66.6972 222.169 66.6182 222.329 66.563 222.497C64.5463 224.871 63.4708 227.086 65.41 227.141C67.2171 227.193 69.3826 230.428 69.9004 231.244C69.8843 231.308 69.864 231.37 69.8396 231.431C69.8396 231.431 67.3009 227.2 65.2276 227.141C63.1543 227.082 64.5253 224.568 66.7978 222.023Z" fill="black"/>
<path d="M64.6574 223.946C64.6574 224.478 64.7161 224.908 64.7895 224.908C64.8629 224.908 64.9237 224.488 64.9237 223.946C64.9237 223.405 64.8482 223.665 64.7748 223.665C64.7015 223.665 64.6574 223.415 64.6574 223.946Z" fill="#FFD037"/>
<path d="M63.9237 224.581C64.3891 224.835 64.7937 224.988 64.8294 224.923C64.865 224.858 64.5149 224.6 64.0495 224.345C63.5841 224.091 63.7686 224.276 63.7329 224.345C63.6973 224.415 63.4583 224.327 63.9237 224.581Z" fill="#FFD037"/>
<path d="M65.0243 231.234C65.0243 231.234 68.2444 231.133 69.2171 230.442C70.1898 229.751 74.1687 228.922 74.4098 230.033C74.6509 231.144 79.2483 235.554 75.6131 235.583C71.978 235.613 67.1668 235.016 66.1983 234.426C65.2298 233.836 65.0243 231.234 65.0243 231.234Z" fill="#A8A8A8"/>
<path opacity="0.2" d="M75.676 235.197C72.0409 235.226 67.2297 234.63 66.2612 234.04C65.5233 233.588 65.2298 231.973 65.1312 231.23H65.0243C65.0243 231.23 65.234 233.83 66.1962 234.422C67.1584 235.014 71.9759 235.609 75.611 235.579C76.6592 235.579 77.024 235.197 77.003 234.642C76.8584 234.983 76.458 235.191 75.676 235.197Z" fill="black"/>
<path d="M172.556 231.11C172.556 231.11 163.693 230.575 164.739 236.797C164.739 236.797 164.529 237.896 165.525 238.395C165.525 238.395 165.542 237.936 166.435 238.091C166.752 238.145 167.075 238.16 167.397 238.137C167.832 238.108 168.246 237.937 168.575 237.65C168.575 237.65 171.065 236.621 172.034 232.54C172.034 232.54 172.751 231.65 172.724 231.421L171.227 232.051C171.227 232.051 171.738 233.132 171.336 234.031C171.336 234.031 171.288 232.091 171 232.141C170.942 232.141 170.223 232.515 170.223 232.515C170.223 232.515 171.103 234.405 170.432 235.766C170.432 235.766 170.684 233.456 169.942 232.652L168.894 233.267C168.894 233.267 169.921 235.212 169.225 236.799C169.225 236.799 169.403 234.365 168.674 233.416L167.72 234.162C167.72 234.162 168.684 236.079 168.095 237.396C168.095 237.396 168.019 234.563 167.512 234.348C167.512 234.348 166.674 235.086 166.55 235.399C166.55 235.399 167.21 236.789 166.801 237.524C166.801 237.524 166.55 235.634 166.342 235.634C166.342 235.634 165.504 236.894 165.424 237.734C165.424 237.734 165.462 236.459 166.141 235.506C165.662 235.597 165.219 235.827 164.869 236.167C164.869 236.167 164.999 235.283 166.336 235.205C166.336 235.205 167.024 234.256 167.208 234.199C167.208 234.199 165.866 234.086 165.053 234.447C165.053 234.447 165.768 233.607 167.453 233.991L168.395 233.223C168.395 233.223 166.63 232.979 165.879 233.248C165.879 233.248 166.743 232.509 168.648 233.038L169.676 232.425C169.676 232.425 168.168 232.099 167.271 232.215C167.271 232.215 168.219 231.702 169.975 232.257L170.709 231.927C170.709 231.927 169.604 231.717 169.281 231.677C168.959 231.637 168.942 231.553 168.942 231.553C169.641 231.436 170.359 231.516 171.015 231.784C171.015 231.784 172.583 231.209 172.556 231.11Z" fill="#2CB674"/>
<path opacity="0.1" d="M166.451 240C169.916 240 172.724 239.524 172.724 238.937C172.724 238.351 169.916 237.875 166.451 237.875C162.987 237.875 160.179 238.351 160.179 238.937C160.179 239.524 162.987 240 166.451 240Z" fill="#2CB674"/>
<path d="M157.028 231.442C157.028 231.442 152.03 231.139 152.626 234.649C152.596 234.827 152.622 235.01 152.702 235.171C152.782 235.333 152.911 235.466 153.07 235.55C153.07 235.55 153.07 235.289 153.584 235.378C153.762 235.407 153.944 235.416 154.125 235.405C154.37 235.387 154.603 235.29 154.789 235.13C154.789 235.13 156.194 234.548 156.741 232.248C156.741 232.248 157.143 231.746 157.129 231.618L156.29 231.977C156.29 231.977 156.577 232.589 156.351 233.095C156.351 233.095 156.324 232 156.162 232.026C156.129 232.026 155.724 232.236 155.724 232.236C155.724 232.236 156.219 233.286 155.846 234.069C155.846 234.069 155.986 232.761 155.569 232.311L154.976 232.66C154.976 232.66 155.554 233.756 155.162 234.651C155.162 234.651 155.263 233.277 154.85 232.744L154.313 233.164C154.313 233.164 154.856 234.246 154.523 234.987C154.523 234.987 154.479 233.389 154.194 233.269C153.99 233.441 153.807 233.638 153.651 233.855C153.651 233.855 154.024 234.64 153.793 235.054C153.793 235.054 153.651 233.989 153.536 233.985C153.536 233.985 153.066 234.691 153.018 235.174C153.039 234.726 153.178 234.291 153.42 233.914C153.15 233.965 152.901 234.094 152.703 234.285C152.703 234.285 152.777 233.786 153.542 233.744C153.542 233.744 153.928 233.208 154.032 233.177C154.032 233.177 153.276 233.111 152.817 233.315C152.817 233.315 153.221 232.845 154.171 233.059L154.701 232.624C154.701 232.624 153.705 232.488 153.284 232.639C153.284 232.639 153.77 232.219 154.846 232.526L155.422 232.181C154.978 232.082 154.523 232.043 154.068 232.063C154.068 232.063 154.603 231.776 155.592 232.087L156.011 231.902C156.011 231.902 155.382 231.778 155.208 231.759C155.034 231.74 155.016 231.69 155.016 231.69C155.41 231.624 155.815 231.669 156.185 231.82C156.185 231.82 157.043 231.499 157.028 231.442Z" fill="#2CB674"/>
<path opacity="0.1" d="M153.586 236.455C155.539 236.455 157.123 236.187 157.123 235.856C157.123 235.526 155.539 235.258 153.586 235.258C151.633 235.258 150.049 235.526 150.049 235.856C150.049 236.187 151.633 236.455 153.586 236.455Z" fill="#2CB674"/>
<path d="M166.539 224.005C166.539 224.005 160.508 223.64 161.219 227.876C161.182 228.091 161.215 228.312 161.311 228.507C161.407 228.702 161.563 228.862 161.755 228.964C161.755 228.964 161.755 228.651 162.374 228.754C162.59 228.788 162.809 228.799 163.028 228.785C163.324 228.764 163.606 228.648 163.831 228.453C163.831 228.453 165.527 227.752 166.185 224.973C166.185 224.973 166.674 224.369 166.655 224.213L165.636 224.648C165.636 224.648 165.984 225.385 165.711 225.996C165.711 225.996 165.678 224.675 165.481 224.707C165.443 224.707 164.952 224.961 164.952 224.961C164.952 224.961 165.552 226.244 165.099 227.174C165.099 227.174 165.271 225.595 164.766 225.053L164.049 225.473C164.049 225.473 164.749 226.796 164.275 227.878C164.275 227.878 164.397 226.221 163.898 225.568L163.248 226.074C163.248 226.074 163.906 227.378 163.506 228.275C163.506 228.275 163.454 226.347 163.108 226.2C163.108 226.2 162.54 226.702 162.454 226.908C162.454 226.908 162.904 227.855 162.623 228.355C162.623 228.355 162.454 227.071 162.313 227.065C162.313 227.065 161.747 227.905 161.684 228.5C161.711 227.96 161.879 227.437 162.171 226.983C161.844 227.045 161.543 227.202 161.305 227.433C161.305 227.433 161.393 226.83 162.311 226.777C162.311 226.777 162.778 226.133 162.904 226.093C162.904 226.093 161.99 226.017 161.437 226.263C161.437 226.263 161.923 225.694 163.072 225.952L163.713 225.429C163.713 225.429 162.51 225.263 162.001 225.446C162.001 225.446 162.588 224.944 163.887 225.309L164.586 224.889C164.586 224.889 163.56 224.679 162.95 224.749C162.95 224.749 163.594 224.4 164.791 224.776L165.29 224.553C165.29 224.553 164.537 224.404 164.317 224.381C164.097 224.358 164.087 224.297 164.087 224.297C164.562 224.218 165.051 224.272 165.498 224.455C165.498 224.455 166.56 224.072 166.539 224.005Z" fill="#2CB674"/>
<path opacity="0.1" d="M162.386 230.056C164.745 230.056 166.657 229.732 166.657 229.333C166.657 228.934 164.745 228.611 162.386 228.611C160.028 228.611 158.116 228.934 158.116 229.333C158.116 229.732 160.028 230.056 162.386 230.056Z" fill="#2CB674"/>
<path d="M261.107 182.79V80.0648H61.668V176.897C64.2151 179.026 67.2779 180.818 70.4728 182.29C72.0465 183.016 73.6537 183.681 75.2945 184.283H258.728L261.107 182.79Z" fill="url(#paint0_linear)"/>
<path d="M260.721 182.832V83.005H62.1041V177.113C64.6407 179.184 67.6909 180.925 70.867 182.363C72.4351 183.063 74.0367 183.709 75.6719 184.3H258.346L260.721 182.832Z" fill="white"/>
<path d="M260.721 80.3567H62.1062V85.6365H260.721V80.3567Z" fill="#3F3D56"/>
<path d="M66.0725 84.3618C66.825 84.3618 67.4351 83.7506 67.4351 82.9967C67.4351 82.2428 66.825 81.6316 66.0725 81.6316C65.3199 81.6316 64.7098 82.2428 64.7098 82.9967C64.7098 83.7506 65.3199 84.3618 66.0725 84.3618Z" fill="white"/>
<path d="M69.7411 84.3618C70.4937 84.3618 71.1038 83.7506 71.1038 82.9967C71.1038 82.2428 70.4937 81.6316 69.7411 81.6316C68.9886 81.6316 68.3785 82.2428 68.3785 82.9967C68.3785 83.7506 68.9886 84.3618 69.7411 84.3618Z" fill="white"/>
<path d="M73.4098 84.3618C74.1624 84.3618 74.7724 83.7506 74.7724 82.9967C74.7724 82.2428 74.1624 81.6316 73.4098 81.6316C72.6572 81.6316 72.0471 82.2428 72.0471 82.9967C72.0471 83.7506 72.6572 84.3618 73.4098 84.3618Z" fill="white"/>
<path d="M145.67 97.24H112.862V117.893H145.67V97.24Z" fill="#2CB674"/>
<path d="M100.243 97.24H67.4351V117.893H100.243V97.24Z" fill="#F2F2F2"/>
<path d="M191.096 97.24H158.288V117.893H191.096V97.24Z" fill="#F2F2F2"/>
<path d="M100.243 126.766H67.4351V147.419H100.243V126.766Z" fill="#F2F2F2"/>
<path d="M145.67 126.766H112.862V147.419H145.67V126.766Z" fill="#F2F2F2"/>
<path d="M191.096 126.766H158.288V147.419H191.096V126.766Z" fill="#F2F2F2"/>
<path d="M100.243 156.29H67.4351V176.943H100.243V156.29Z" fill="#F2F2F2"/>
<path d="M145.67 156.29H112.862V176.943H145.67V156.29Z" fill="#F2F2F2"/>
<path d="M191.096 156.29H158.288V176.943H191.096V156.29Z" fill="#F2F2F2"/>
<path d="M137.63 115.331L135.366 116.133L134.544 114.768C133.916 113.718 133.043 112.281 132.4 111.238C131.264 109.402 132.75 106.605 132.75 106.605C132.75 106.605 133.018 103.797 133.974 102.931C134.93 102.066 135.196 106.605 135.196 106.605C139.035 108.352 136.978 112.462 136.978 112.462L137.351 114.092L137.63 115.331Z" fill="#EFB7B9"/>
<path opacity="0.1" d="M137.63 115.331L135.366 116.133L134.544 114.768V114.648C134.544 114.648 135.842 113.756 137.356 114.092L137.63 115.331Z" fill="black"/>
<path d="M133.974 124.529L135.108 123.568L134.54 114.911C134.54 114.911 137.475 112.899 139.647 116.047C139.647 116.047 139.559 117.971 139.647 118.496C139.735 119.021 139.037 119.546 139.647 120.069C140.257 120.592 139.647 122.343 139.647 122.343C139.647 122.343 140.337 123.567 140.773 123.916C141.209 124.265 141.647 127.152 140.773 127.764C139.899 128.375 138.259 129.776 138.259 130.387C138.259 130.998 136.163 132.487 136.163 132.487L134.322 130.049L133.974 124.529Z" fill="#FF6484"/>
<path d="M109.447 177.079C105.216 175.282 106.155 170.89 106.952 168.679C107.111 168.231 107.298 167.793 107.512 167.368L109.885 165.926C109.885 165.926 110.369 167.163 110.887 168.822C112.088 172.682 113.47 178.791 109.447 177.079Z" fill="#EFB7B9"/>
<path d="M115.262 217.148C114.976 217.707 114.764 218.302 114.633 218.917C114.424 219.905 114.332 220.916 114.361 221.926C114.377 222.625 114.436 223.083 114.436 223.083L109.723 226.33C109.723 226.33 109.751 225.95 109.797 225.391C109.918 223.904 110.172 221.145 110.411 220.788C110.577 220.54 110.692 219.544 110.765 218.62C110.839 217.696 110.868 216.886 110.868 216.886C110.868 216.886 116.539 214.756 115.262 217.148Z" fill="#EFB7B9"/>
<path d="M126.392 219.477C126.392 219.477 126.392 220.38 126.358 221.43C126.325 222.481 126.262 223.72 126.13 224.297C126.008 224.826 126 225.799 126.023 226.696C126.054 227.746 126.13 228.691 126.13 228.691C126.13 228.691 121.318 224.133 121.809 223.772C121.941 223.676 122.071 223.287 122.19 222.77C122.337 222.14 122.469 221.3 122.568 220.586C122.685 219.736 122.759 219.051 122.759 219.051L126.392 219.477Z" fill="#EFB7B9"/>
<path opacity="0.1" d="M115.262 217.148C114.976 217.707 114.764 218.302 114.633 218.917C113.343 218.883 112.056 218.784 110.776 218.62C110.847 217.717 110.878 216.886 110.878 216.886C110.878 216.886 116.539 214.756 115.262 217.148Z" fill="black"/>
<path opacity="0.1" d="M126.392 219.477C126.392 219.477 126.392 220.38 126.358 221.43C124.857 221.815 123.314 221.046 122.568 220.59C122.685 219.74 122.759 219.055 122.759 219.055L126.392 219.477Z" fill="black"/>
<path d="M136.243 174.807C134.322 179.007 133.536 183.989 133.536 183.989L132.838 188.189C132.838 188.189 133.188 190.025 132.838 190.724C132.488 191.423 131.79 192.562 131.79 192.562C131.79 192.562 132.314 196.846 131.79 197.283C131.266 197.72 131.79 200.343 131.79 200.343L130.044 209.163L127.599 220.529C125.243 222.455 122.107 220.007 122.107 220.007L122.798 212.574C122.798 212.574 123.847 199.553 123.411 199.02C122.975 198.486 123.585 196.833 123.585 196.833C123.585 196.833 124.197 195.258 123.761 194.647C123.325 194.036 123.847 192.723 123.847 192.723C123.847 192.723 123.673 187.389 124.197 186.165C124.721 184.94 124.197 177.367 124.197 177.367L123.987 175.009L123.866 173.702L123.855 173.574C123.855 173.574 123.775 174.097 123.645 174.908C123.26 177.375 122.438 182.489 122.113 183.542C121.892 184.3 121.592 185.033 121.218 185.728C121.218 185.728 121.671 188.351 121.218 189.05C120.765 189.75 121.149 190.537 121.149 190.537C121.149 190.537 121.585 192.723 120.274 193.597C118.964 194.471 120.274 194.91 120.274 194.91C120.274 194.91 119.314 197.01 118.966 197.881C118.618 198.753 118.966 199.982 118.966 199.982L118.268 207.063C118.268 207.063 117.656 210.035 117.744 212.047C117.832 214.059 116.958 218.692 116.958 218.692C116.958 218.692 110.237 218.692 109.201 217.904C108.166 217.117 110.931 209.434 110.931 209.434C110.931 209.434 111.717 195.968 111.541 195.62C111.365 195.271 111.541 192.646 112.153 192.123C112.765 191.6 112.153 190.548 112.153 190.548C112.153 190.548 111.979 188.448 112.153 187.925C112.327 187.402 112.126 185.65 112.126 185.65C112.126 185.65 111.541 181.366 111.455 178.917C111.369 176.468 110.931 170.962 110.931 170.962C110.931 170.962 111.388 167.555 111.457 165.934C111.482 165.337 111.748 164.592 112.086 163.89C112.464 163.098 112.898 162.335 113.386 161.605C113.386 161.605 134.067 155.481 134.934 156.09C135.165 156.252 135.5 157.351 135.832 158.94C136.754 163.382 137.656 171.72 136.243 174.807Z" fill="#444053"/>
<path d="M123.501 121.364C126.827 121.364 129.524 118.663 129.524 115.331C129.524 111.998 126.827 109.297 123.501 109.297C120.174 109.297 117.478 111.998 117.478 115.331C117.478 118.663 120.174 121.364 123.501 121.364Z" fill="#A1616A"/>
<path opacity="0.1" d="M135.832 158.945C135.138 159.302 134.672 159.547 134.672 159.547C134.672 159.547 124.897 164.182 122.117 163.92C119.966 163.71 114.476 163.83 112.084 163.888C112.462 163.096 112.896 162.333 113.384 161.603C113.384 161.603 134.067 155.482 134.934 156.091C135.165 156.256 135.5 157.351 135.832 158.945Z" fill="black"/>
<path d="M119.31 124.966C119.31 124.966 113.732 125.848 112.415 126.713C111.098 127.579 108.491 129.25 108.491 132.835C108.491 136.42 107.881 140.094 107.53 141.142C107.18 142.19 113.029 150.672 113.029 150.672L110.933 163.527C110.933 163.527 119.318 163.265 122.111 163.527C124.903 163.79 134.674 159.155 134.674 159.155C134.674 159.155 140.435 156.095 141.657 156.004C142.88 155.914 139.213 149.271 139.213 149.271C139.213 149.271 133.538 138.518 134.498 136.769C135.458 135.02 136.163 132.485 136.163 132.485L135.115 123.567C135.115 123.567 133.544 123.042 132.234 124.004C130.924 124.966 126.473 124.441 126.473 124.441L119.31 124.966Z" fill="#FF6484"/>
<path opacity="0.1" d="M109.841 140.53L107.652 141.142L107.046 149.37C107.046 149.37 107.832 151.556 107.046 152.256C106.26 152.955 106.086 167.908 106.086 167.908C106.086 167.908 108.619 169.744 111.585 168.345C111.585 168.345 111.149 166.684 112.459 160.65C113.769 154.616 113.767 151.556 113.767 151.556C113.767 151.556 113.767 144.036 114.379 142.811C114.991 141.587 114.379 138.527 114.379 138.527C114.379 138.527 113.157 136.866 113.243 136.255C113.329 135.643 109.841 140.53 109.841 140.53Z" fill="black"/>
<path opacity="0.1" d="M110.887 168.828C109.601 169.262 108.203 169.211 106.952 168.685C107.111 168.237 107.298 167.799 107.512 167.375L109.885 165.932C109.885 165.932 110.377 167.169 110.887 168.828Z" fill="black"/>
<path d="M109.709 140.53L107.526 141.142L106.916 149.37C106.916 149.37 107.702 151.556 106.916 152.256C106.13 152.955 105.956 167.908 105.956 167.908C105.956 167.908 108.491 169.741 111.455 168.336C111.455 168.336 111.019 166.675 112.327 160.642C113.635 154.608 113.637 151.548 113.637 151.548C113.637 151.548 113.637 144.027 114.247 142.803C114.857 141.578 114.247 138.519 114.247 138.519C114.247 138.519 113.025 136.857 113.113 136.246C113.201 135.635 109.709 140.53 109.709 140.53Z" fill="#FF6484"/>
<path opacity="0.1" d="M132.054 141.841C132.054 141.841 130.92 151.634 127.601 153.472C127.601 153.472 135.02 151.374 132.054 141.841Z" fill="black"/>
<path opacity="0.1" d="M115.384 142.717C115.384 142.717 119.484 144.727 118.528 146.125C117.572 147.524 115.384 142.717 115.384 142.717Z" fill="black"/>
<path opacity="0.1" d="M115.384 146.739C115.384 146.739 118.002 149.45 117.48 150.412C116.958 151.374 115.384 146.739 115.384 146.739Z" fill="black"/>
<path opacity="0.1" d="M136.505 124.267C136.505 124.267 137.532 126.014 137.63 127.152C137.729 128.291 136.505 124.267 136.505 124.267Z" fill="black"/>
<path opacity="0.1" d="M136.505 121.906C136.505 121.906 137.02 121.467 138.337 121.906C139.653 122.345 136.505 121.906 136.505 121.906Z" fill="black"/>
<path opacity="0.1" d="M131.465 173.014C129.302 173.321 127.097 173.038 125.081 172.194L123.981 175.017L123.859 173.711C124.039 172.615 124.39 171.441 125.081 171.144C125.081 171.144 127.505 173.079 131.465 173.014Z" fill="black"/>
<path opacity="0.1" d="M113.56 176.687C113.56 176.687 118.928 177.802 120.434 177.604L113.56 176.687Z" fill="black"/>
<path opacity="0.1" d="M114.117 178.096C114.117 178.096 116.409 177.997 117.553 178.457L114.117 178.096Z" fill="black"/>
<path opacity="0.1" d="M114.379 179.047C115.425 179.27 116.486 179.41 117.553 179.467L114.379 179.047Z" fill="black"/>
<path opacity="0.1" d="M114.247 191.081C114.346 191.016 118.83 189.966 119.388 190.72L114.247 191.081Z" fill="black"/>
<path opacity="0.1" d="M114.247 192.459C114.247 192.459 118.142 191.999 118.241 192.459C118.339 192.919 114.247 192.459 114.247 192.459Z" fill="black"/>
<path opacity="0.1" d="M114.247 193.704C114.247 193.704 118.404 192.843 118.895 193.053C119.385 193.263 114.247 193.704 114.247 193.704Z" fill="black"/>
<path opacity="0.1" d="M114.444 223.085L109.732 226.332C109.732 226.332 109.759 225.952 109.805 225.393C110.853 222.81 112.218 221.447 112.218 221.447C113.281 221.17 113.952 221.426 114.369 221.928C114.386 222.625 114.444 223.085 114.444 223.085Z" fill="black"/>
<path d="M114.903 226.002C114.237 227.525 113.902 229.171 113.92 230.833C113.947 232.195 113.602 233.539 112.922 234.72C112.824 234.887 112.713 235.045 112.591 235.195C112.591 235.195 109.317 235.168 108.17 234.216C108.041 234.114 107.936 233.985 107.862 233.838C107.206 232.528 109.138 227.51 109.138 227.51C110.153 223.642 112.214 221.575 112.214 221.575C115.885 220.624 114.903 226.002 114.903 226.002Z" fill="#444053"/>
<path opacity="0.1" d="M112.922 234.71C112.824 234.876 112.713 235.035 112.591 235.184C112.591 235.184 109.317 235.157 108.17 234.206C108.734 232.337 110.532 226.681 111.375 227.643C112.168 228.546 112.719 232.891 112.922 234.71Z" fill="black"/>
<path d="M112.474 227.993L112.245 236.465H113.344C113.344 236.465 113.522 229.033 114.013 227.993C114.503 226.954 112.474 227.993 112.474 227.993Z" fill="#444053"/>
<path opacity="0.1" d="M126.13 228.691C126.13 228.691 121.318 224.133 121.809 223.772C121.941 223.675 122.071 223.287 122.19 222.77C123.115 222.609 124.706 222.995 126.023 226.696C126.054 227.746 126.13 228.691 126.13 228.691Z" fill="black"/>
<path d="M126.849 233.773C126.812 233.789 126.773 233.8 126.733 233.807C126.167 233.905 124.081 233.849 122.914 233.807C122.7 233.8 122.497 233.71 122.348 233.556C122.199 233.402 122.115 233.196 122.115 232.981C122.115 232.666 122.115 232.282 122.09 231.872C122.035 230.579 121.88 229.039 121.417 228.693C120.597 228.063 119.949 225.925 121.417 223.218C121.417 223.218 124.23 221.065 126.26 227.536C126.26 227.536 126.457 229.382 127.339 230.037C128.222 230.692 127.243 233.586 126.849 233.773Z" fill="#444053"/>
<path opacity="0.1" d="M126.729 233.807C126.163 233.905 124.077 233.849 122.91 233.807C122.696 233.8 122.493 233.71 122.344 233.556C122.195 233.402 122.111 233.196 122.111 232.981C122.111 232.666 122.111 232.282 122.086 231.872C122.44 230.306 122.949 228.693 123.606 228.325C123.61 228.323 125.595 228.098 126.729 233.807Z" fill="black"/>
<path d="M121.773 228.134L122.302 235.184H122.972V227.533L121.773 228.134Z" fill="#444053"/>
<path opacity="0.1" d="M123.413 105.716C121.511 105.858 119.67 106.45 118.042 107.445C117.622 107.699 117.203 108.007 117.029 108.463C116.878 108.858 116.941 109.303 116.947 109.723C117.004 113.34 112.979 116.076 113.105 119.691C113.155 121.125 113.874 122.461 114.006 123.891C114.226 126.277 112.818 128.471 111.467 130.448C112.858 130.532 114.228 130.077 115.293 129.177C116.718 133.934 116.902 138.977 115.828 143.826H117.759C117.949 143.812 118.141 143.835 118.323 143.895C118.492 143.975 118.644 144.089 118.769 144.229C120.574 146.029 121.784 148.69 121.094 151.147L125.203 149.603C126.186 149.233 127.184 148.858 128.039 148.249C128.895 147.639 129.612 146.755 129.792 145.718C129.903 145.088 129.867 144.336 130.385 143.97C130.64 143.835 130.912 143.734 131.194 143.67C132.322 143.271 132.821 141.965 133.052 140.789C133.333 139.346 133.421 137.872 133.314 136.406C133.131 133.949 132.406 131.454 133.004 129.055C133.341 127.709 134.092 126.455 134.152 125.065C134.251 122.774 132.463 120.799 132.196 118.521C132.01 116.933 132.582 115.326 132.396 113.739C132.292 112.919 131.993 112.137 131.523 111.458C131.053 110.779 130.427 110.224 129.698 109.839C129.192 109.578 128.649 109.404 128.15 109.116C127.012 108.455 126.285 107.264 125.251 106.445C124.218 105.626 122.497 105.317 121.719 106.382L123.413 105.716Z" fill="black"/>
<path d="M123.413 105.454C121.511 105.595 119.67 106.188 118.042 107.182C117.622 107.436 117.203 107.745 117.029 108.201C116.878 108.595 116.941 109.041 116.947 109.461C117.004 113.077 112.979 115.814 113.105 119.43C113.155 120.862 113.874 122.198 114.006 123.63C114.226 126.016 112.818 128.211 111.467 130.189C112.858 130.271 114.227 129.816 115.293 128.919C116.718 133.674 116.902 138.716 115.828 143.563H117.759C117.95 143.55 118.141 143.574 118.323 143.634C118.492 143.714 118.644 143.826 118.769 143.966C120.574 145.768 121.784 148.427 121.094 150.884L125.203 149.341C126.186 148.971 127.184 148.595 128.039 147.986C128.895 147.377 129.612 146.493 129.792 145.455C129.903 144.825 129.867 144.073 130.385 143.708C130.64 143.572 130.912 143.471 131.194 143.408C132.322 143.009 132.821 141.702 133.052 140.526C133.335 139.082 133.425 137.607 133.32 136.139C133.138 133.682 132.412 131.187 133.01 128.788C133.347 127.442 134.098 126.188 134.159 124.798C134.257 122.507 132.469 120.533 132.203 118.254C132.016 116.666 132.588 115.062 132.402 113.472C132.298 112.653 131.999 111.87 131.529 111.192C131.059 110.513 130.433 109.957 129.704 109.572C129.199 109.312 128.656 109.137 128.157 108.852C127.018 108.188 126.291 106.997 125.257 106.178C124.224 105.359 122.503 105.05 121.725 106.115L123.413 105.454Z" fill="#925978"/>
<g opacity="0.1">
<path opacity="0.1" d="M116.943 108.587C116.935 108.668 116.93 108.749 116.931 108.831C116.937 108.751 116.941 108.669 116.943 108.587Z" fill="black"/>
<path opacity="0.1" d="M132.18 116.994C132.255 115.881 132.503 114.764 132.41 113.655C132.341 114.768 132.094 115.885 132.18 116.994Z" fill="black"/>
<path opacity="0.1" d="M114.006 122.528C113.885 121.226 113.279 120.008 113.136 118.708C113.108 118.946 113.097 119.186 113.105 119.426C113.155 120.844 113.857 122.169 114 123.58C114.035 123.23 114.037 122.878 114.006 122.528Z" fill="black"/>
<path opacity="0.1" d="M133.018 127.701C132.822 128.555 132.751 129.434 132.809 130.309C132.83 129.799 132.9 129.292 133.018 128.795C133.356 127.449 134.106 126.195 134.167 124.805C134.177 124.558 134.166 124.31 134.134 124.065C133.97 125.315 133.318 126.478 133.018 127.701Z" fill="black"/>
<path opacity="0.1" d="M115.293 127.814C114.419 128.548 113.337 128.989 112.199 129.074C111.96 129.448 111.713 129.813 111.467 130.175C112.858 130.256 114.227 129.802 115.293 128.904C116.059 131.457 116.47 134.104 116.513 136.769C116.576 133.739 116.164 130.717 115.293 127.814Z" fill="black"/>
<path opacity="0.1" d="M133.058 139.426C132.827 140.602 132.329 141.908 131.201 142.305C130.918 142.368 130.646 142.47 130.391 142.608C129.874 142.973 129.909 143.729 129.798 144.355C129.618 145.392 128.903 146.274 128.046 146.875C127.188 147.476 126.192 147.862 125.209 148.232L121.289 149.702C121.269 150.096 121.205 150.487 121.1 150.867L125.209 149.324C126.192 148.954 127.19 148.578 128.046 147.969C128.901 147.36 129.618 146.476 129.798 145.439C129.909 144.809 129.874 144.057 130.391 143.691C130.647 143.555 130.919 143.454 131.201 143.391C132.329 142.992 132.827 141.686 133.058 140.51C133.297 139.286 133.396 138.039 133.354 136.792C133.326 137.677 133.227 138.557 133.058 139.426Z" fill="black"/>
<path opacity="0.1" d="M118.775 142.86C118.651 142.719 118.499 142.605 118.329 142.526C118.147 142.466 117.956 142.442 117.765 142.454H116.052C115.985 142.82 115.914 143.185 115.843 143.548H117.773C117.964 143.535 118.156 143.559 118.337 143.62C118.507 143.699 118.659 143.812 118.784 143.952C120.105 145.271 121.105 147.047 121.276 148.87C121.488 146.69 120.36 144.447 118.775 142.86Z" fill="black"/>
</g>
<path opacity="0.1" d="M109.197 150.017C109.197 150.017 110.757 149.362 111.105 150.017C111.453 150.672 109.197 150.017 109.197 150.017Z" fill="black"/>
<path opacity="0.1" d="M109.748 151.14C109.748 151.14 111.308 150.485 111.658 151.14C112.008 151.796 109.748 151.14 109.748 151.14Z" fill="black"/>
<path opacity="0.1" d="M206.415 66.3466C206.415 66.3466 198.438 65.8657 199.379 71.4647C199.379 71.4647 199.193 72.4539 200.088 72.9033C200.088 72.9033 200.102 72.4833 200.905 72.6282C201.191 72.6764 201.482 72.6905 201.771 72.6702C202.162 72.6431 202.533 72.489 202.828 72.2313C202.828 72.2313 205.069 71.3051 205.941 67.634C205.941 67.634 206.586 66.8318 206.57 66.626L205.224 67.2035C205.224 67.2035 205.683 68.1759 205.32 68.9844C205.32 68.9844 205.278 67.2371 205.018 67.2791C204.966 67.2791 204.32 67.6151 204.32 67.6151C204.32 67.6151 205.111 69.31 204.513 70.5427C204.513 70.5427 204.74 68.4552 204.073 67.739L203.121 68.304C203.121 68.304 204.046 70.0534 203.419 71.4815C203.419 71.4815 203.58 69.2911 202.922 68.4384L202.063 69.1083C202.063 69.1083 202.933 70.8242 202.408 72.0087C202.408 72.0087 202.339 69.457 201.882 69.2659C201.882 69.2659 201.132 69.9295 201.019 70.2025C201.019 70.2025 201.612 71.4626 201.243 72.1137C201.243 72.1137 201.016 70.4167 200.824 70.4083C200.824 70.4083 200.075 71.534 199.998 72.2985C200.034 71.5852 200.256 70.8938 200.641 70.2928C200.209 70.3747 199.811 70.5821 199.497 70.8893C199.497 70.8893 199.612 70.0933 200.826 70.0219C200.826 70.0219 201.444 69.1692 201.61 69.1167C201.61 69.1167 200.402 69.0159 199.671 69.3415C199.671 69.3415 200.314 68.5896 201.832 68.9214L202.67 68.2284C202.67 68.2284 201.081 68.0184 200.406 68.2515C200.406 68.2515 201.182 67.5878 202.899 68.0709L203.821 67.5185C203.821 67.5185 202.467 67.2245 201.66 67.3316C201.66 67.3316 202.511 66.8717 204.092 67.3694L204.752 67.0733C204.752 67.0733 203.758 66.878 203.469 66.8465C203.18 66.815 203.163 66.7352 203.163 66.7352C203.792 66.6304 204.437 66.7031 205.027 66.9452C205.027 66.9452 206.438 66.4348 206.415 66.3466Z" fill="#2CB674"/>
<path opacity="0.1" d="M195.046 61.8062C195.046 61.8062 188.338 66.1556 192.407 70.106C192.407 70.106 192.841 71.0132 193.828 70.8452C193.828 70.8452 193.593 70.5008 194.325 70.1375C194.584 70.0066 194.827 69.8452 195.048 69.6565C195.347 69.4028 195.555 69.0585 195.641 68.6758C195.641 68.6758 196.899 66.5966 195.432 63.1229C195.432 63.1229 195.478 62.0939 195.335 61.9427L194.593 63.2028C194.593 63.2028 195.539 63.7131 195.725 64.5784C195.725 64.5784 194.658 63.1986 194.467 63.3855C194.43 63.4233 194.103 64.0722 194.103 64.0722C194.103 64.0722 195.744 64.9669 195.989 66.3131C195.989 66.3131 194.941 64.4964 193.975 64.3179L193.539 65.326C193.539 65.326 195.321 66.1871 195.66 67.7097C195.66 67.7097 194.493 65.8489 193.459 65.5528L193.166 66.6029C193.166 66.6029 194.885 67.4766 195.159 68.7451C195.159 68.7451 193.595 66.7331 193.113 66.8549C193.113 66.8549 192.903 67.8336 192.971 68.115C192.971 68.115 194.191 68.7703 194.283 69.5221C194.283 69.5221 193.096 68.2893 192.943 68.3922C192.943 68.3922 193.006 69.7426 193.398 70.4105C193.006 69.8142 192.776 69.1258 192.732 68.4132C192.432 68.7354 192.234 69.1385 192.161 69.5725C192.161 69.5725 191.784 68.8627 192.721 68.0856C192.721 68.0856 192.721 67.0355 192.815 66.8906C192.815 66.8906 191.784 67.5207 191.386 68.2221C191.386 68.2221 191.461 67.2351 192.885 66.6092L193.157 65.5486C193.157 65.5486 191.748 66.3173 191.348 66.9116C191.348 66.9116 191.581 65.9162 193.247 65.2861L193.667 64.2927C193.667 64.2927 192.409 64.8619 191.813 65.4268C191.813 65.4268 192.233 64.549 193.797 64.0134L194.153 63.3834C194.153 63.3834 193.237 63.816 192.985 63.963C192.734 64.11 192.673 64.0554 192.673 64.0554C193.117 63.5976 193.68 63.2726 194.298 63.1166C194.298 63.1166 195.117 61.865 195.046 61.8062Z" fill="#2CB674"/>
<path opacity="0.1" d="M184.837 66.8739C184.837 66.8739 180.826 73.8044 186.241 75.4698C186.241 75.4698 187.04 76.081 187.843 75.4698C187.843 75.4698 187.48 75.2724 187.966 74.615C188.135 74.3804 188.276 74.1267 188.386 73.859C188.537 73.4968 188.567 73.0952 188.472 72.7144C188.472 72.7144 188.65 70.2908 185.767 67.861C185.767 67.861 185.348 66.9243 185.138 66.855L185.048 68.3251C185.048 68.3251 186.122 68.3503 186.681 69.037C186.681 69.037 185.105 68.2915 185.025 68.5414C185.008 68.5918 185.011 69.3185 185.011 69.3185C185.011 69.3185 186.895 69.3752 187.734 70.463C187.734 70.463 185.973 69.3227 185.036 69.5999L185.103 70.6962C185.103 70.6962 187.08 70.6542 188.071 71.8575C188.071 71.8575 186.185 70.7298 185.136 70.9356L185.346 72.0046C185.346 72.0046 187.275 72.0046 188.092 73.0084C188.092 73.0084 185.786 71.9248 185.411 72.2461C185.411 72.2461 185.665 73.2163 185.858 73.4411C185.858 73.4411 187.241 73.4705 187.665 74.0984C187.665 74.0984 186.048 73.5377 185.958 73.7015C185.958 73.7015 186.627 74.8755 187.279 75.2913C186.66 74.94 186.144 74.4333 185.78 73.8212C185.659 74.2441 185.665 74.6932 185.797 75.1128C185.797 75.1128 185.138 74.6529 185.621 73.5335C185.621 73.5335 185.138 72.5968 185.166 72.4267C185.166 72.4267 184.537 73.4621 184.495 74.2622C184.495 74.2622 184.113 73.3487 185.099 72.1453L184.862 71.0742C184.862 71.0742 183.954 72.3994 183.866 73.1113C183.866 73.1113 183.623 72.118 184.824 70.8012L184.744 69.728C184.744 69.728 183.876 70.8096 183.608 71.5803C183.608 71.5803 183.579 70.6101 184.734 69.4193L184.765 68.6947C184.765 68.6947 184.136 69.4949 183.988 69.7448C183.839 69.9947 183.751 69.959 183.751 69.959C183.94 69.3486 184.294 68.8027 184.774 68.3818C184.774 68.3818 184.925 66.8928 184.837 66.8739Z" fill="#2CB674"/>
<path d="M219.27 145.877C218.676 145.877 218.096 146.054 217.603 146.384C217.11 146.714 216.725 147.184 216.498 147.733C216.271 148.282 216.212 148.886 216.327 149.469C216.443 150.052 216.729 150.588 217.148 151.008C217.568 151.428 218.102 151.714 218.684 151.83C219.266 151.946 219.869 151.887 220.418 151.659C220.966 151.432 221.434 151.047 221.764 150.552C222.094 150.058 222.27 149.477 222.27 148.883C222.267 148.086 221.951 147.323 221.388 146.76C220.826 146.197 220.065 145.88 219.27 145.877ZM210.498 122.295V125.3H213.498L218.899 136.259L216.641 139.94C216.394 140.376 216.265 140.868 216.266 141.368C216.266 143.38 217.639 144.374 219.5 144.374H237.041V141.484H219.867C219.817 141.487 219.767 141.479 219.72 141.462C219.673 141.444 219.63 141.416 219.595 141.381C219.559 141.345 219.532 141.302 219.514 141.255C219.496 141.208 219.489 141.158 219.492 141.108C219.531 140.978 219.585 140.853 219.651 140.734L221.15 138.363H232.326C232.866 138.368 233.397 138.223 233.86 137.944C234.323 137.666 234.7 137.265 234.951 136.786L240.353 127.48C240.458 127.244 240.51 126.987 240.504 126.728C240.502 126.535 240.461 126.344 240.384 126.167C240.307 125.989 240.195 125.829 240.055 125.696C239.915 125.563 239.75 125.459 239.569 125.391C239.388 125.323 239.196 125.292 239.003 125.3H216.8L215.375 122.295H210.498ZM234.039 145.877C233.445 145.878 232.866 146.054 232.372 146.385C231.879 146.715 231.495 147.185 231.269 147.734C231.042 148.283 230.983 148.888 231.099 149.47C231.215 150.053 231.501 150.588 231.92 151.009C232.34 151.429 232.874 151.715 233.456 151.83C234.038 151.946 234.641 151.887 235.189 151.659C235.737 151.432 236.206 151.046 236.535 150.552C236.865 150.058 237.041 149.477 237.041 148.883C237.038 148.086 236.721 147.323 236.159 146.759C235.596 146.196 234.834 145.879 234.039 145.877Z" fill="#2CB674"/>
<path d="M230.2 130.609H227.684V128.089H225.798V130.609H223.282V132.499H225.798V135.02H227.684V132.499H230.2V130.609Z" fill="white"/>
</g>
<defs>
<linearGradient id="paint0_linear" x1="161.386" y1="184.283" x2="161.386" y2="80.0648" gradientUnits="userSpaceOnUse">
<stop stop-color="#808080" stop-opacity="0.25"/>
<stop offset="0.54" stop-color="#808080" stop-opacity="0.12"/>
<stop offset="1" stop-color="#808080" stop-opacity="0.1"/>
</linearGradient>
<clipPath id="clip0">
<rect width="234" height="180" fill="white" transform="translate(33 60)"/>
</clipPath>
</defs>
</svg>
